<svg width="86" height="68" viewBox="0 0 86 68" fill="none" xmlns="http://www.w3.org/2000/svg">
    <g clip-path="url(#clip0_171_207)">
        <path opacity="0.05" d="M21.7362 66.7149H20.2268V67.9019H21.7362V66.7149Z" fill="#292A2E" />
        <path opacity="0.05" d="M6.3043 66.7149H4.79492V67.9019H6.3043V66.7149Z" fill="#292A2E" />
        <path d="M23.1197 42.8007H3.41138V66.6747H23.1197V42.8007Z" fill="#F4F4F4" />
        <path opacity="0.03" d="M23.1197 42.8007H3.41138V66.6747H23.1197V42.8007Z" fill="#292A2E" />
        <path d="M26.7721 42.8007H7.06372V66.6747H26.7721V42.8007Z" fill="#F4F4F4" />
        <path opacity="0.05" d="M25.3885 66.7149H23.8792V67.9019H25.3885V66.7149Z" fill="#292A2E" />
        <path opacity="0.05" d="M9.95665 66.7149H8.44727V67.9019H9.95665V66.7149Z" fill="#292A2E" />
        <path opacity="0.7" d="M26.0322 43.9188H7.80347V48.5055H26.0322V43.9188Z" fill="white" />
        <path opacity="0.7" d="M26.0322 49.6282H7.80347V54.2149H26.0322V49.6282Z" fill="white" />
        <path opacity="0.7" d="M26.0322 55.3374H7.80347V59.9241H26.0322V55.3374Z" fill="white" />
        <path opacity="0.05"
            d="M16.9178 46.8539C17.2188 46.8539 17.4629 46.5666 17.4629 46.2121C17.4629 45.8577 17.2188 45.5704 16.9178 45.5704C16.6168 45.5704 16.3728 45.8577 16.3728 46.2121C16.3728 46.5666 16.6168 46.8539 16.9178 46.8539Z"
            fill="#292A2E" />
        <path opacity="0.05"
            d="M16.9178 52.5633C17.2188 52.5633 17.4629 52.276 17.4629 51.9216C17.4629 51.5671 17.2188 51.2798 16.9178 51.2798C16.6168 51.2798 16.3728 51.5671 16.3728 51.9216C16.3728 52.276 16.6168 52.5633 16.9178 52.5633Z"
            fill="#292A2E" />
        <path opacity="0.05"
            d="M16.9178 58.2726C17.2188 58.2726 17.4629 57.9853 17.4629 57.6308C17.4629 57.2764 17.2188 56.9891 16.9178 56.9891C16.6168 56.9891 16.3728 57.2764 16.3728 57.6308C16.3728 57.9853 16.6168 58.2726 16.9178 58.2726Z"
            fill="#292A2E" />
        <path opacity="0.7" d="M26.0322 61.1754H7.80347V65.7621H26.0322V61.1754Z" fill="white" />
        <path opacity="0.05"
            d="M16.9178 64.1105C17.2188 64.1105 17.4629 63.8232 17.4629 63.4687C17.4629 63.1143 17.2188 62.827 16.9178 62.827C16.6168 62.827 16.3728 63.1143 16.3728 63.4687C16.3728 63.8232 16.6168 64.1105 16.9178 64.1105Z"
            fill="#292A2E" />
        <path d="M68.8944 1.02283H57.7693V18.074H68.8944V1.02283Z" fill="#F4F4F4" />
        <path d="M68.8945 18.0738H69.2554V1.02259H68.8945V18.0738Z" fill="#F4F4F4" />
        <path opacity="0.05" d="M68.8945 18.0738H69.2554V1.02259H68.8945V18.0738Z" fill="#292A2E" />
        <path opacity="0.05" d="M66.8678 4.12866H59.7959V14.9676H66.8678V4.12866Z" fill="#292A2E" />
        <path opacity="0.03" d="M66.8678 4.12866H66.4993V14.9676H66.8678V4.12866Z" fill="#292A2E" />
        <path d="M77.9928 22.2669H68.8943V33.0789H77.9928V22.2669Z" fill="#F4F4F4" />
        <path opacity="0.05" d="M76.3355 24.2365H70.5518V31.1094H76.3355V24.2365Z" fill="#292A2E" />
        <path d="M77.9929 33.079H78.3538V22.2669H77.9929V33.079Z" fill="#F4F4F4" />
        <path opacity="0.05" d="M77.9929 33.079H78.3538V22.2669H77.9929V33.079Z" fill="#292A2E" />
        <path opacity="0.03" d="M76.3356 24.2365H75.967V31.1094H76.3356V24.2365Z" fill="#292A2E" />
        <path d="M32.6796 0H1.87427V36.2736H32.6796V0Z" fill="#F4F4F4" />
        <path d="M1.87432 0H1.52124V36.2736H1.87432V0Z" fill="#F4F4F4" />
        <path opacity="0.05" d="M1.87432 0H1.52124V36.2736H1.87432V0Z" fill="#292A2E" />
        <path opacity="0.05"
            d="M9.33704 24.9955V15.5052H15.9391V21.0188H26.1657V30.7815H30.5122V36.2736H26.1657H25.3284H3.3562V24.9955H9.33704Z"
            fill="#292A2E" />
        <path opacity="0.34" d="M15.0917 16.5356H10.2839V17.566H15.0917V16.5356Z" fill="#FFFFFA" />
        <path opacity="0.34" d="M15.0917 18.6709H10.2839V19.7013H15.0917V18.6709Z" fill="#FFFFFA" />
        <path opacity="0.34" d="M15.0917 20.8061H10.2839V21.8365H15.0917V20.8061Z" fill="#FFFFFA" />
        <path opacity="0.34" d="M5.09488 25.9958H4.20874V27.0262H5.09488V25.9958Z" fill="#FFFFFA" />
        <path opacity="0.34" d="M5.09488 28.1311H4.20874V29.1615H5.09488V28.1311Z" fill="#FFFFFA" />
        <path opacity="0.34" d="M5.09488 30.2663H4.20874V31.2967H5.09488V30.2663Z" fill="#FFFFFA" />
        <path opacity="0.34" d="M6.73429 25.9958H5.84814V27.0262H6.73429V25.9958Z" fill="#FFFFFA" />
        <path opacity="0.34" d="M6.73429 28.1311H5.84814V29.1615H6.73429V28.1311Z" fill="#FFFFFA" />
        <path opacity="0.34" d="M6.73429 30.2663H5.84814V31.2967H6.73429V30.2663Z" fill="#FFFFFA" />
        <path opacity="0.34" d="M8.32926 25.9958H7.44312V27.0262H8.32926V25.9958Z" fill="#FFFFFA" />
        <path opacity="0.34" d="M8.32926 28.1311H7.44312V29.1615H8.32926V28.1311Z" fill="#FFFFFA" />
        <path opacity="0.34" d="M8.32926 30.2663H7.44312V31.2967H8.32926V30.2663Z" fill="#FFFFFA" />
        <path
            d="M1.87427 17.9333H8.07277V0H8.58542V17.9333H25.3283V0H25.841V17.9333H32.6796V18.537H25.841V36.2736H25.3283V18.537H8.58542V36.2736H8.07277V18.537H1.87427V17.9333Z"
            fill="white" />
        <path d="M33.9069 36.2299H0.647217V37.4362H33.9069V36.2299Z" fill="#F4F4F4" />
        <path opacity="0.1" d="M33.9069 36.2299H0.647217V37.4362H33.9069V36.2299Z" fill="#292A2E" />
        <path opacity="0.1" d="M0.647188 36.2299H0.166992V37.4362H0.647188V36.2299Z" fill="#292A2E" />
        <path opacity="0.1" d="M0.647188 36.2299H0.166992V37.4362H0.647188V36.2299Z" fill="#292A2E" />
        <path
            d="M9.07422 12.4002L9.07422 55.3309C9.07422 58.8823 11.5192 61.7614 14.5353 61.7614L71.4646 61.7614C74.4807 61.7614 76.9257 58.8823 76.9257 55.3309V12.4002C76.9257 8.84875 74.4807 5.96972 71.4646 5.96972L14.5353 5.96972C11.5192 5.96972 9.07422 8.84875 9.07422 12.4002Z"
            fill="#292A2E" />
        <path
            d="M75.0928 12.42V55.3109C75.0927 56.4819 74.6976 57.605 73.9944 58.433C73.2911 59.2611 72.3373 59.7263 71.3428 59.7263H14.5292C13.5347 59.7261 12.581 59.2608 11.8778 58.4328C11.1746 57.6048 10.7795 56.4818 10.7793 55.3109V44.4585H11.936C12.47 44.4586 12.9821 44.2089 13.3597 43.7644C13.7374 43.3199 13.9496 42.7169 13.9497 42.0882V25.6428C13.9496 25.0141 13.7374 24.4112 13.3597 23.9667C12.9821 23.5222 12.47 23.2725 11.936 23.2726H10.7793V12.42C10.7795 11.249 11.1746 10.126 11.8778 9.29797C12.581 8.46994 13.5347 8.00467 14.5292 8.00446H71.3428C72.3373 8.0045 73.2911 8.46972 73.9944 9.29778C74.6976 10.1258 75.0927 11.2489 75.0928 12.42Z"
            fill="white" />
        <path
            d="M10.0745 44.4584L10.0745 23.2727H11.9363C12.4703 23.2727 12.9823 23.5224 13.3599 23.967C13.7374 24.4115 13.9495 25.0145 13.9495 25.6432V42.0879C13.9495 42.7166 13.7374 43.3195 13.3599 43.7641C12.9823 44.2087 12.4703 44.4584 11.9363 44.4584H10.0745Z"
            fill="#292A2E" />
        <path
            d="M79.4903 56.3396C79.4705 56.3396 79.4514 56.3303 79.4374 56.3138C79.3321 56.1897 79.1603 53.9135 78.6978 47.1363C78.5085 44.3639 78.3298 41.7453 78.1993 40.1543C78.19 40.0406 78.1526 40.0273 78.1403 40.023C77.9613 39.9592 77.4185 40.4638 77.1153 40.9054C77.1092 40.9147 77.1016 40.9225 77.0929 40.9283C77.0842 40.9341 77.0746 40.9378 77.0647 40.9392C77.0548 40.9405 77.0448 40.9396 77.0352 40.9363C77.0256 40.933 77.0167 40.9275 77.0089 40.9201C77.0012 40.9128 76.9948 40.9036 76.99 40.8933C76.9853 40.8829 76.9824 40.8715 76.9815 40.8598C76.9806 40.8481 76.9817 40.8363 76.9847 40.8251C76.9877 40.8139 76.9926 40.8036 76.9991 40.7946C77.1994 40.5026 77.8527 39.7373 78.1833 39.8543C78.2499 39.8779 78.3325 39.946 78.3478 40.1373C78.4784 41.7301 78.6571 44.3495 78.8465 47.1226C79.1276 51.241 79.446 55.9067 79.5507 56.2002C79.5587 56.2134 79.5635 56.2289 79.5646 56.2451C79.5656 56.2612 79.5628 56.2774 79.5565 56.2918C79.5502 56.3063 79.5407 56.3184 79.5289 56.3268C79.5172 56.3352 79.5037 56.3397 79.4899 56.3397L79.4903 56.3396Z"
            fill="#494949" />
        <path
            d="M78.007 43.0744C79.2478 41.9033 79.6591 40.0805 78.9256 39.003C78.1921 37.9255 76.5917 38.0014 75.3509 39.1726C74.1101 40.3437 73.6989 42.1666 74.4323 43.244C75.1658 44.3215 76.7663 44.2456 78.007 43.0744Z"
            fill="#0CBC8B" />
        <path opacity="0.2"
            d="M78.007 43.0744C79.2478 41.9033 79.6591 40.0805 78.9256 39.003C78.1921 37.9255 76.5917 38.0014 75.3509 39.1726C74.1101 40.3437 73.6989 42.1666 74.4323 43.244C75.1658 44.3215 76.7663 44.2456 78.007 43.0744Z"
            fill="white" />
        <path
            d="M74.7804 43.5182C74.7733 43.5182 74.7663 43.5158 74.7603 43.5114C74.7543 43.5069 74.7495 43.5005 74.7465 43.4929C74.7434 43.4853 74.7423 43.4769 74.7432 43.4686C74.7441 43.4603 74.747 43.4524 74.7516 43.446L78.2879 38.4248C78.2943 38.4158 78.3034 38.4101 78.3133 38.4091C78.3231 38.408 78.333 38.4116 78.3406 38.419C78.3482 38.4265 78.353 38.4372 78.354 38.4488C78.3549 38.4605 78.3518 38.4721 78.3455 38.4811L74.8094 43.5023C74.8058 43.5073 74.8014 43.5113 74.7964 43.5141C74.7914 43.5168 74.7859 43.5182 74.7804 43.5182Z"
            fill="white" />
        <path
            d="M80.2618 55.2632C80.2499 55.2632 80.2381 55.2598 80.2275 55.2534C80.2169 55.2469 80.2078 55.2376 80.2008 55.2261C80.1939 55.2147 80.1894 55.2014 80.1878 55.1875C80.1861 55.1736 80.1872 55.1594 80.1912 55.1461L81.5195 50.6481C81.5586 50.516 81.6252 50.3975 81.7133 50.3035C81.8014 50.2095 81.908 50.1431 82.0236 50.1103C82.1391 50.0774 82.2598 50.0793 82.3746 50.1156C82.4893 50.1519 82.5945 50.2215 82.6805 50.3181L83.3828 51.1081C83.3967 51.1243 83.4045 51.1463 83.4048 51.1693C83.405 51.1923 83.3976 51.2146 83.3841 51.2312C83.3706 51.2478 83.3521 51.2576 83.3325 51.2584C83.313 51.2592 83.294 51.2509 83.2796 51.2354L82.5773 50.4455C82.5094 50.3691 82.4263 50.314 82.3356 50.2853C82.2449 50.2565 82.1496 50.255 82.0583 50.281C81.967 50.3069 81.8827 50.3594 81.8131 50.4337C81.7436 50.5079 81.6909 50.6016 81.6601 50.706L80.3318 55.2041C80.3268 55.2212 80.3173 55.2361 80.3048 55.2467C80.2922 55.2573 80.2773 55.263 80.2618 55.2632Z"
            fill="#494949" />
        <path
            d="M85.3447 53.5985C86.2642 52.7415 86.2096 50.8565 85.2226 49.3883C84.2357 47.9201 82.6902 47.4247 81.7707 48.2817C80.8511 49.1388 80.9058 51.0238 81.8927 52.492C82.8797 53.9602 84.4252 54.4556 85.3447 53.5985Z"
            fill="#0CBC8B" />
        <path
            d="M78.8869 56.0528C78.8701 56.0528 78.8538 56.0461 78.8406 56.0338C78.8275 56.0216 78.8182 56.0044 78.8143 55.9852L76.5853 45.0107C76.57 44.9359 76.5376 44.8675 76.4915 44.813C76.4454 44.7585 76.3874 44.72 76.3239 44.7018C76.2604 44.6836 76.1939 44.6864 76.1317 44.7098C76.0695 44.7332 76.014 44.7764 75.9712 44.8346L75.2841 45.7696C75.2777 45.7787 75.2699 45.7862 75.2611 45.7917C75.2522 45.7972 75.2425 45.8006 75.2326 45.8016C75.2226 45.8026 75.2126 45.8013 75.2031 45.7976C75.1935 45.794 75.1847 45.7881 75.1772 45.7804C75.1696 45.7727 75.1635 45.7633 75.159 45.7527C75.1546 45.7421 75.1521 45.7306 75.1515 45.7189C75.1509 45.7071 75.1524 45.6953 75.1557 45.6843C75.1591 45.6732 75.1643 45.663 75.1711 45.6543L75.8579 44.7189C75.9186 44.6362 75.9976 44.5749 76.086 44.5416C76.1744 44.5084 76.269 44.5045 76.3592 44.5304C76.4494 44.5563 76.5317 44.611 76.5972 44.6885C76.6627 44.766 76.7088 44.8632 76.7304 44.9696L78.9594 55.9441C78.9639 55.9667 78.9606 55.9905 78.9502 56.0103C78.9399 56.0301 78.9233 56.0443 78.9041 56.0497C78.8985 56.0515 78.8927 56.0526 78.8869 56.0528Z"
            fill="#494949" />
        <path
            d="M78.0186 48.2211C78.2889 46.3767 77.5716 44.6912 76.4165 44.4565C75.2613 44.2217 74.1058 45.5266 73.8354 47.371C73.5651 49.2153 74.2824 50.9008 75.4375 51.1356C76.5927 51.3703 77.7482 50.0655 78.0186 48.2211Z"
            fill="#0CBC8B" />
        <path
            d="M79.4903 56.3396C79.4873 56.3396 79.4842 56.3393 79.4811 56.3389C79.4615 56.336 79.4436 56.3241 79.4314 56.3057C79.4192 56.2873 79.4137 56.264 79.4161 56.2408L80.8395 42.6322C80.8551 42.4839 80.9066 42.3441 80.988 42.2295C81.0693 42.115 81.1771 42.0305 81.2982 41.9863C81.4194 41.9421 81.5488 41.9401 81.6709 41.9804C81.7931 42.0208 81.9027 42.1018 81.9866 42.2138L83.6136 44.3835C83.6201 44.3922 83.625 44.4023 83.6282 44.4132C83.6314 44.4241 83.6327 44.4357 83.6321 44.4472C83.6315 44.4588 83.629 44.4701 83.6247 44.4805C83.6203 44.4908 83.6143 44.5001 83.607 44.5078C83.5996 44.5154 83.591 44.5213 83.5817 44.525C83.5724 44.5288 83.5626 44.5303 83.5528 44.5296C83.543 44.5289 83.5334 44.5259 83.5246 44.5208C83.5158 44.5157 83.5079 44.5086 83.5014 44.5L81.8745 42.3303C81.8096 42.2438 81.7249 42.1812 81.6305 42.15C81.5361 42.1188 81.4361 42.1204 81.3424 42.1545C81.2488 42.1887 81.1655 42.2539 81.1026 42.3425C81.0397 42.431 80.9999 42.5391 80.9879 42.6536L79.5644 56.2619C79.5623 56.2833 79.5535 56.303 79.5399 56.3173C79.5262 56.3316 79.5086 56.3396 79.4903 56.3396Z"
            fill="#494949" />
        <path
            d="M85.2822 45.5896C85.8499 44.3813 85.182 42.667 83.7905 41.7606C82.399 40.8543 80.8108 41.0991 80.2431 42.3075C79.6755 43.5158 80.3434 45.2302 81.7349 46.1365C83.1264 47.0428 84.7146 46.798 85.2822 45.5896Z"
            fill="#0CBC8B" />
        <path opacity="0.2"
            d="M85.3447 53.5985C86.2642 52.7415 86.2096 50.8565 85.2226 49.3883C84.2357 47.9201 82.6902 47.4247 81.7707 48.2817C80.8511 49.1388 80.9058 51.0238 81.8927 52.492C82.8797 53.9602 84.4252 54.4556 85.3447 53.5985Z"
            fill="white" />
        <path opacity="0.5"
            d="M78.0186 48.2211C78.2889 46.3767 77.5716 44.6912 76.4165 44.4565C75.2613 44.2217 74.1058 45.5266 73.8354 47.371C73.5651 49.2153 74.2824 50.9008 75.4375 51.1356C76.5927 51.3703 77.7482 50.0655 78.0186 48.2211Z"
            fill="white" />
        <path opacity="0.5"
            d="M85.2822 45.5896C85.8499 44.3813 85.182 42.667 83.7905 41.7606C82.399 40.8543 80.8108 41.0991 80.2431 42.3075C79.6755 43.5158 80.3434 45.2302 81.7349 46.1365C83.1264 47.0428 84.7146 46.798 85.2822 45.5896Z"
            fill="white" />
        <path d="M81.311 67.8862H77.6698L77.0664 54.1682H81.9144L81.311 67.8862Z" fill="#292A2E" />
        <path opacity="0.3" d="M81.311 67.8862H77.6698L77.0664 54.1682H81.9144L81.311 67.8862Z"
            fill="white" />
        <path
            d="M85.3446 53.642C85.339 53.642 85.3334 53.6405 85.3283 53.6376C85.3233 53.6347 85.3188 53.6305 85.3154 53.6253L81.7412 48.3085C81.7354 48.2993 81.7329 48.2878 81.7342 48.2765C81.7355 48.2652 81.7405 48.255 81.748 48.2479C81.7556 48.2408 81.7653 48.2374 81.7749 48.2385C81.7845 48.2397 81.7934 48.2451 81.7997 48.2538L85.3739 53.5706C85.3783 53.5771 85.381 53.5849 85.3818 53.5931C85.3826 53.6013 85.3813 53.6097 85.3783 53.6171C85.3752 53.6246 85.3704 53.6309 85.3645 53.6353C85.3585 53.6397 85.3516 53.642 85.3446 53.642Z"
            fill="white" />
        <path
            d="M85.0445 46.0156C85.0366 46.0155 85.0288 46.0124 85.0225 46.0068L80.4489 42.0747C80.4409 42.0678 80.4356 42.0575 80.434 42.0459C80.4325 42.0344 80.4349 42.0226 80.4408 42.0132C80.4466 42.0038 80.4554 41.9974 80.4652 41.9956C80.475 41.9938 80.485 41.9967 80.4931 42.0036L85.0667 45.936C85.0729 45.9416 85.0776 45.9493 85.0799 45.9581C85.0823 45.9669 85.0822 45.9764 85.0797 45.9852C85.0772 45.9939 85.0725 46.0015 85.0661 46.0069C85.0597 46.0124 85.0521 46.0153 85.0442 46.0153L85.0445 46.0156Z"
            fill="white" />
        <path
            d="M75.2959 51.0649C75.2927 51.065 75.2895 51.0645 75.2863 51.0634C75.2816 51.062 75.2771 51.0594 75.2732 51.0559C75.2693 51.0524 75.2661 51.048 75.2636 51.043C75.2611 51.038 75.2595 51.0324 75.2589 51.0267C75.2582 51.021 75.2585 51.0151 75.2598 51.0096L76.7158 44.5863C76.717 44.5806 76.7191 44.5753 76.7221 44.5706C76.7251 44.5659 76.7288 44.562 76.7331 44.559C76.7374 44.5561 76.7421 44.5541 76.747 44.5533C76.7519 44.5525 76.7569 44.5529 76.7617 44.5544C76.7665 44.5559 76.771 44.5585 76.7749 44.5621C76.7789 44.5657 76.7821 44.5701 76.7846 44.5752C76.787 44.5803 76.7886 44.5859 76.7892 44.5917C76.7898 44.5975 76.7894 44.6034 76.788 44.609L75.3321 51.0323C75.33 51.0417 75.3253 51.0499 75.3187 51.0559C75.3122 51.0618 75.3042 51.065 75.2959 51.0649Z"
            fill="white" />
        <path
            d="M24.1982 42.1842V59.7266H14.5292C14.0367 59.7268 13.549 59.6127 13.0939 59.3909C12.6389 59.1691 12.2254 58.8438 11.8772 58.4337C11.5289 58.0237 11.2527 57.5368 11.0643 57.0009C10.876 56.4651 10.7791 55.8908 10.7793 55.3109V44.4585H11.936C12.3051 44.4589 12.6672 44.3396 12.9825 44.1137C13.2979 43.8878 13.5543 43.5641 13.7238 43.1781C13.8604 42.8705 13.9371 42.5309 13.9481 42.184L24.1982 42.1842Z"
            fill="#F4F4F4" />
        <path opacity="0.03"
            d="M24.1982 42.1842V59.7266H14.5292C14.0367 59.7268 13.549 59.6127 13.0939 59.3909C12.6389 59.1691 12.2254 58.8438 11.8772 58.4337C11.5289 58.0237 11.2527 57.5368 11.0643 57.0009C10.876 56.4651 10.7791 55.8908 10.7793 55.3109V44.4585H11.936C12.3051 44.4589 12.6672 44.3396 12.9825 44.1137C13.2979 43.8878 13.5543 43.5641 13.7238 43.1781C13.8604 42.8705 13.9371 42.5309 13.9481 42.184L24.1982 42.1842Z"
            fill="#292A2E" />
        <path
            d="M27.4448 42.1842V59.7266H14.5292C14.0367 59.7268 13.549 59.6127 13.0939 59.3909C12.6389 59.1691 12.2254 58.8438 11.8772 58.4337C11.5289 58.0237 11.2527 57.5368 11.0643 57.0009C10.876 56.4651 10.7791 55.8908 10.7793 55.3109V44.4585H11.936C12.3051 44.4589 12.6672 44.3396 12.9825 44.1137C13.2979 43.8878 13.5543 43.5641 13.7238 43.1781C13.8604 42.8705 13.9371 42.5309 13.9481 42.184L27.4448 42.1842Z"
            fill="#F4F4F4" />
        <path opacity="0.7"
            d="M26.7875 43.178V47.2555H10.7793V44.4585H11.936C12.3051 44.4588 12.6672 44.3395 12.9825 44.1137C13.2979 43.8878 13.5543 43.5641 13.7238 43.178H26.7875Z"
            fill="white" />
        <path opacity="0.7" d="M26.7876 48.2532H10.7793V52.3307H26.7876V48.2532Z" fill="white" />
        <path opacity="0.7"
            d="M26.7875 53.3292V57.4064H11.2279C10.9324 56.7629 10.7782 56.0425 10.7793 55.3109V53.329L26.7875 53.3292Z"
            fill="white" />
        <path opacity="0.05"
            d="M18.685 45.7876C18.9526 45.7876 19.1695 45.5321 19.1695 45.217C19.1695 44.9019 18.9526 44.6465 18.685 44.6465C18.4174 44.6465 18.2004 44.9019 18.2004 45.217C18.2004 45.5321 18.4174 45.7876 18.685 45.7876Z"
            fill="#292A2E" />
        <path opacity="0.05"
            d="M18.685 50.8629C18.9526 50.8629 19.1695 50.6075 19.1695 50.2924C19.1695 49.9773 18.9526 49.7219 18.685 49.7219C18.4174 49.7219 18.2004 49.9773 18.2004 50.2924C18.2004 50.6075 18.4174 50.8629 18.685 50.8629Z"
            fill="#292A2E" />
        <path opacity="0.05"
            d="M18.685 55.9383C18.9526 55.9383 19.1695 55.6829 19.1695 55.3678C19.1695 55.0527 18.9526 54.7972 18.685 54.7972C18.4174 54.7972 18.2004 55.0527 18.2004 55.3678C18.2004 55.6829 18.4174 55.9383 18.685 55.9383Z"
            fill="#292A2E" />
        <path opacity="0.7"
            d="M26.7874 58.5186V59.7266H14.5291C13.5704 59.7278 12.648 59.2953 11.9524 58.5186H26.7874Z"
            fill="white" />
        <path d="M69.5162 8.00452H57.7693V18.1308H69.5162V8.00452Z" fill="#F4F4F4" />
        <path d="M69.8975 8.00452H69.5161V18.1308H69.8975V8.00452Z" fill="#F4F4F4" />
        <path opacity="0.05" d="M69.8975 8.00452H69.5161V18.1308H69.8975V8.00452Z" fill="#292A2E" />
        <path opacity="0.05" d="M67.3763 8.00452H59.9094V14.851H67.3763V8.00452Z" fill="#292A2E" />
        <path opacity="0.03" d="M67.3761 8.00452H66.9873V14.851H67.3761V8.00452Z" fill="#292A2E" />
        <path d="M75.0927 22.5586H69.5161V33.9747H75.0927V22.5586Z" fill="#F4F4F4" />
        <path opacity="0.05" d="M75.0928 24.6383H71.2666V31.8951H75.0928V24.6383Z" fill="#292A2E" />
        <path
            d="M33.7572 8.00452V37.4755H13.9497V25.6429C13.9496 25.0142 13.7374 24.4112 13.3597 23.9667C12.9821 23.5223 12.47 23.2726 11.936 23.2727H10.7793V12.4201C10.7795 11.249 11.1746 10.1261 11.8778 9.29803C12.581 8.47 13.5347 8.00473 14.5292 8.00452H33.7572Z"
            fill="#F4F4F4" />
        <path opacity="0.05"
            d="M31.5177 31.8018V37.4755H13.9497V25.6429C13.9496 25.0142 13.7374 24.4112 13.3597 23.9668C12.9821 23.5223 12.47 23.2726 11.936 23.2727H10.7793V16.0194H16.4621V21.7151H27.0276V31.8018H31.5177Z"
            fill="#292A2E" />
        <path opacity="0.34" d="M15.5865 17.0839H10.7793V18.1483H15.5865V17.0839Z" fill="#FFFFFA" />
        <path opacity="0.34" d="M15.5865 19.2894H10.7793V20.3539H15.5865V19.2894Z" fill="#FFFFFA" />
        <path opacity="0.34" d="M15.5865 21.4958H10.7793V22.5603H15.5865V21.4958Z" fill="#FFFFFA" />
        <path
            d="M33.7572 18.5279V19.1512H26.6918V37.4755H26.1625V19.1512H10.7793V18.5279H26.1625V8.00452H26.6918V18.5279H33.7572Z"
            fill="white" />
        <path d="M35.0254 37.4306H13.9497V38.6773H35.0254V37.4306Z" fill="#F4F4F4" />
        <path opacity="0.1" d="M35.0254 37.4306H13.9497V38.6773H35.0254V37.4306Z" fill="#292A2E" />
        <path
            d="M50.2965 23.5367L51.3141 24.497L51.2302 24.3114C51.2041 24.2508 51.1986 24.1808 51.2146 24.1155C51.2307 24.0503 51.2672 23.9946 51.3168 23.9599C51.3429 23.943 51.3716 23.9325 51.4013 23.9292C51.431 23.9258 51.4609 23.9296 51.4893 23.9403C51.5176 23.951 51.5439 23.9684 51.5663 23.9915C51.5888 24.0145 51.607 24.0427 51.62 24.0743L52.2757 25.664C52.3585 25.8647 52.3714 26.0955 52.3117 26.3073C52.252 26.519 52.1244 26.6949 51.9561 26.7974C51.7607 26.9163 51.5396 26.9639 51.3211 26.934C51.1026 26.904 50.8967 26.798 50.7298 26.6294L49.9746 25.8639C49.9346 25.825 49.9073 25.7711 49.8973 25.7113C49.8873 25.6514 49.8952 25.5893 49.9196 25.5356C49.9425 25.4875 49.9778 25.4494 50.0204 25.4267C50.063 25.404 50.1107 25.3979 50.1564 25.4094C50.1566 25.4064 50.1572 25.4034 50.1584 25.4007C50.1595 25.398 50.1612 25.3955 50.1631 25.3936C50.1651 25.3916 50.1674 25.3902 50.1699 25.3893C50.1723 25.3884 50.1749 25.3882 50.1775 25.3885L50.0378 25.2476C49.9953 25.2066 49.9668 25.1489 49.9577 25.0851C49.9486 25.0213 49.9594 24.9558 49.9881 24.9007C50.018 24.8472 50.0637 24.8087 50.1163 24.7926C50.1689 24.7766 50.2248 24.7841 50.2729 24.8138C50.2728 24.8111 50.2731 24.8084 50.2737 24.8057L50.2165 24.7478C50.1786 24.7078 50.1527 24.6545 50.1426 24.5959C50.1325 24.5372 50.1387 24.4762 50.1602 24.422C50.1878 24.3627 50.2339 24.3184 50.2888 24.2987C50.3437 24.279 50.403 24.2853 50.4539 24.3164L50.4563 24.3122L50.0288 23.9088C50.0069 23.8881 49.9888 23.8624 49.9756 23.8332C49.9624 23.804 49.9544 23.772 49.9521 23.739C49.9498 23.7061 49.9531 23.6729 49.9621 23.6415C49.971 23.6102 49.9852 23.5813 50.0039 23.5566C50.0414 23.5102 50.0925 23.4824 50.1469 23.4787C50.2012 23.475 50.2547 23.4957 50.2965 23.5367Z"
            fill="#E98862" />
        <path opacity="0.2"
            d="M50.4498 24.3449C50.4511 24.3473 50.4527 24.3494 50.4546 24.3512L50.8738 24.7373C50.8781 24.7413 50.8835 24.7431 50.8889 24.7423C50.8944 24.7415 50.8993 24.7382 50.9027 24.7332C50.906 24.7281 50.9075 24.7217 50.9069 24.7153C50.9062 24.7089 50.9034 24.7031 50.8991 24.6991L50.48 24.313C50.4762 24.3097 50.4715 24.3081 50.4668 24.3084C50.462 24.3087 50.4575 24.3109 50.454 24.3147C50.4505 24.3184 50.4482 24.3235 50.4475 24.329C50.4468 24.3345 50.4477 24.3401 50.4501 24.3449H50.4498Z"
            fill="#0C0C0C" />
        <path opacity="0.2"
            d="M50.2752 24.824C50.2765 24.8263 50.2781 24.8284 50.2799 24.8301L50.6074 25.1367C50.6117 25.1407 50.6171 25.1426 50.6225 25.1418C50.628 25.1411 50.6329 25.1379 50.6363 25.1328C50.6397 25.1278 50.6413 25.1214 50.6407 25.115C50.6401 25.1086 50.6373 25.1028 50.633 25.0988L50.3056 24.7922C50.3018 24.7887 50.2971 24.7868 50.2922 24.787C50.2874 24.7872 50.2828 24.7893 50.2791 24.7931C50.2755 24.7969 50.2732 24.8021 50.2724 24.8077C50.2717 24.8134 50.2727 24.8191 50.2752 24.824Z"
            fill="#0C0C0C" />
        <path opacity="0.2"
            d="M50.1589 25.4249C50.1603 25.4274 50.162 25.4296 50.164 25.4314L50.3215 25.5723C50.3259 25.5757 50.3312 25.5771 50.3364 25.5761C50.3416 25.575 50.3462 25.5717 50.3494 25.5668C50.3526 25.5618 50.354 25.5557 50.3535 25.5495C50.3529 25.5433 50.3504 25.5377 50.3464 25.5336L50.1889 25.3928C50.185 25.3893 50.1803 25.3875 50.1755 25.3878C50.1706 25.388 50.166 25.3902 50.1625 25.3941C50.1589 25.3979 50.1566 25.4031 50.1559 25.4087C50.1553 25.4144 50.1564 25.4201 50.1589 25.4249Z"
            fill="#0C0C0C" />
        <path
            d="M62.08 30.4477L56.7288 32.8529C56.4741 32.9694 56.1965 32.9985 55.9284 32.9369C55.6602 32.8752 55.4123 32.7254 55.2135 32.5047L50.4622 27.2307L52.4461 24.7528L56.5331 29.2895L61.0333 27.2732L62.08 30.4477Z"
            fill="#00D084" />
        <path
            d="M67.5119 65.0697C67.5119 65.0697 67.2702 66.5455 66.0966 66.6281C64.923 66.7107 65.1776 67.8112 65.1776 67.8112H69.6621V65.1726L67.5119 65.0697Z"
            fill="#00D084" />
        <path
            d="M68.8952 38.1479C68.8952 38.1479 68.8811 37.7043 68.8841 38.7107C68.8952 42.4645 68.9505 46.7522 69.0859 49.2614C69.3032 53.2949 69.8602 66.0115 69.8602 66.0115L66.9135 65.9824L64.0571 37.9954L68.8952 38.1479Z"
            fill="#262626" />
        <path
            d="M65.5673 42.5746C65.5673 42.5746 65.4452 45.2987 65.4225 45.938C65.3702 47.4171 65.3519 48.9484 65.3519 50.6846L64.8875 46.133C64.8875 46.133 65.2274 44.7068 65.5673 42.5746Z"
            fill="#0A0A0A" />
        <path
            d="M62.2658 65.0697C62.2658 65.0697 62.024 66.5455 60.8505 66.6281C59.677 66.7107 59.9315 67.8112 59.9315 67.8112H64.416V65.1726L62.2658 65.0697Z"
            fill="#00D084" />
        <path
            d="M61.2266 38.6716C61.2266 38.6716 60.9656 51.5013 61.0038 52.1284L62.0997 66.1467L64.9979 66.2097L64.7154 51.6214C64.7154 51.6214 64.9146 47.5973 65.7404 43.8606C66.1628 41.9427 66.417 39.9789 66.4991 38L61.2266 38.6716Z"
            fill="#262626" />
        <path d="M68.927 38.1475L68.9366 38.1481C68.9366 38.1481 68.9297 37.9293 68.927 38.1475Z"
            fill="#333333" />
        <path
            d="M60.4242 31.3182C60.485 32.1588 60.7806 37.4039 60.8391 38.4394H68.8922C68.9377 37.5055 69.142 33.4215 69.3145 31.5951C69.479 29.8524 69.8023 28.9802 69.5654 28.4646C69.1784 27.6225 68.121 27.1358 67.3999 27.0206C66.9597 26.9502 66.2975 26.9001 66.2975 26.9001C66.2975 26.9001 66.2414 28.2357 64.9044 28.31C63.0844 28.4112 63.206 26.9001 63.1969 26.9001C62.9021 26.9001 61.1855 27.0634 60.8056 27.4075C60.1415 28.0096 60.2952 29.5364 60.4242 31.3182Z"
            fill="#00D084" />
        <path
            d="M60.4316 31.1847C60.4247 31.1847 60.4182 31.1816 60.4132 31.176C60.4082 31.1705 60.4052 31.163 60.4049 31.1549L60.3399 29.82C60.3397 29.8158 60.3402 29.8117 60.3413 29.8078C60.3425 29.8039 60.3443 29.8003 60.3466 29.7972C60.349 29.7941 60.3518 29.7916 60.355 29.7898C60.3581 29.788 60.3616 29.7869 60.3651 29.7867C60.3686 29.7864 60.3721 29.787 60.3754 29.7884C60.3788 29.7897 60.3818 29.7919 60.3844 29.7946C60.3871 29.7974 60.3892 29.8007 60.3907 29.8044C60.3923 29.8082 60.3932 29.8122 60.3934 29.8163L60.4583 31.1513C60.4585 31.1554 60.458 31.1596 60.4569 31.1635C60.4557 31.1674 60.4539 31.171 60.4516 31.1741C60.4492 31.1772 60.4464 31.1797 60.4432 31.1815C60.4401 31.1833 60.4366 31.1844 60.4331 31.1846L60.4316 31.1847Z"
            fill="#0C0C0C" />
        <path
            d="M70.6327 38.3844C70.8695 38.3844 71.1029 38.317 71.3129 38.1879C71.5228 38.0589 71.7032 37.872 71.8387 37.6432C71.9741 37.4144 72.0606 37.1504 72.0907 36.8738C72.1209 36.5972 72.0938 36.316 72.0119 36.0544C71.9287 35.7887 69.978 29.7072 69.607 28.5803L66.8577 29.8922C67.0664 30.5261 67.8228 32.9273 68.4305 34.8619L67.4211 34.7327L67.1033 38.1748L70.4736 38.3745C70.5265 38.3812 70.5796 38.3845 70.6327 38.3844Z"
            fill="#00D084" />
        <path
            d="M62.4583 26.9486C62.4667 26.9473 62.6991 27.977 64.5124 27.8168C65.7679 27.706 66.074 26.6998 66.1027 26.6998C65.9674 26.6659 65.7476 26.6308 65.6875 26.5929C65.5836 26.5366 65.4922 26.4528 65.4204 26.348C65.3485 26.2433 65.2982 26.1204 65.2733 25.9889C65.2166 25.7336 65.1877 24.7497 65.1877 24.2562L63.2559 24.7675C63.2828 25.3243 63.4713 26.6149 62.8107 26.8433C62.7008 26.8807 62.5825 26.9159 62.4583 26.9486Z"
            fill="#E98862" />
        <path
            d="M63.3226 25.8619C64.0842 25.9323 65.0625 25.5537 65.2483 24.3576L65.416 23.278C65.6018 22.0817 65.2188 20.9968 64.2622 20.7908C63.3055 20.5848 62.4399 21.4007 62.2541 22.5971L62.1798 23.075C62.1084 23.5341 61.9639 25.736 63.3226 25.8619Z"
            fill="#E98862" />
        <path
            d="M62.6166 24.7634C62.7533 23.9546 62.816 23.415 62.8087 22.8457C62.6162 22.448 62.6667 21.9917 62.7106 21.7944C62.578 21.8935 62.4221 21.9406 62.2654 21.9288C62.2654 21.9288 62.5837 20.424 63.666 20.0192C63.8651 19.9279 64.3731 19.8127 65.0479 19.9217C65.6217 20.0143 67.0363 20.5196 67.2384 22.3948V22.3959C67.2451 22.458 67.3805 24.1859 67.6517 25.0148C68.0157 26.1292 68.5265 26.4754 68.5137 27.7612C68.4971 29.4151 65.915 29.6352 64.3575 29.5115C62.8001 29.3878 61.9307 28.7847 61.9195 27.5928C61.907 26.2574 62.3431 26.3815 62.6166 24.7634Z"
            fill="#0A0A0A" />
        <path d="M69.0641 31.6306L68.8662 38.4387L68.9197 38.4409L69.1176 31.6328L69.0641 31.6306Z"
            fill="#0C0C0C" />
        <path
            d="M0.0747736 68H85.9252C85.9451 68 85.9641 67.9907 85.9781 67.9742C85.9921 67.9577 86 67.9353 86 67.912C86 67.8886 85.9921 67.8662 85.9781 67.8497C85.9641 67.8332 85.9451 67.8239 85.9252 67.8239H0.0747736C0.0549424 67.8239 0.0359234 67.8332 0.0219007 67.8497C0.00787791 67.8662 0 67.8886 0 67.912C0 67.9353 0.00787791 67.9577 0.0219007 67.9742C0.0359234 67.9907 0.0549424 68 0.0747736 68Z"
            fill="#262626" />
    </g>
    <defs>
        <clipPath id="clip0_171_207">
            <rect width="86" height="68" fill="white" />
        </clipPath>
    </defs>
</svg>