<svg width="36" height="37" viewBox="0 0 36 37" fill="none" xmlns="http://www.w3.org/2000/svg">
<rect x="0.0820312" width="35" height="37" rx="8" fill="#A88A7E"/>
<path d="M29.2061 10.6521C29.1645 10.6535 29.123 10.656 29.0816 10.6595C20.5273 11.3843 12.1229 13.2865 5.13693 17.0828C4.52978 17.4128 4.24607 17.9019 4.14991 18.6264C4.05382 19.351 4.19878 20.2944 4.54366 21.3126C5.20085 23.2532 6.57013 25.4432 8.02261 27.0621L9.05345 26.7855L6.88911 18.707L7.94556 18.425L10.11 26.5018L11.3422 26.1704L9.1779 18.0955L10.2345 17.8117L12.3987 25.8865L13.4991 25.5918L11.3367 17.5168L12.3951 17.233L14.5576 25.3061L15.7459 24.9875L13.5816 16.9144L14.64 16.6306L16.8024 24.7037L18.0348 24.3723L15.8723 16.301L16.9287 16.0172L19.0913 24.0885L20.3235 23.7589L18.1611 15.6876L19.2175 15.4037L21.382 23.4733L22.5263 23.1674L20.3639 15.0979L21.4203 14.8141L23.5828 22.8818L24.8994 22.5284L22.7388 14.4607L23.7972 14.1769L25.9578 22.2445L27.1883 21.915L25.0276 13.8473L26.0859 13.5636L28.2466 21.6294L29.4349 21.3107L27.2743 13.2468L28.3309 12.963L30.4916 21.0269L31.5279 20.7486C31.9777 18.6158 32.0695 15.9845 31.6689 13.95C31.4588 12.8825 31.1093 11.9872 30.6693 11.4212C30.2841 10.9259 29.8791 10.6696 29.327 10.6521C29.2876 10.651 29.247 10.651 29.2062 10.6521H29.2061Z" fill="white"/>
</svg>
