<svg width="86" height="68" viewBox="0 0 86 68" fill="none" xmlns="http://www.w3.org/2000/svg">
<g clip-path="url(#clip0_456_438)">
<path opacity="0.05" d="M21.7359 66.7148H20.2266V67.9018H21.7359V66.7148Z" fill="#292A2E"/>
<path opacity="0.05" d="M6.3043 66.7148H4.79492V67.9018H6.3043V66.7148Z" fill="#292A2E"/>
<path d="M23.1195 42.8008H3.41113V66.6748H23.1195V42.8008Z" fill="#F4F4F4"/>
<path opacity="0.03" d="M23.1195 42.8008H3.41113V66.6748H23.1195V42.8008Z" fill="#292A2E"/>
<path d="M26.7718 42.8008H7.06348V66.6748H26.7718V42.8008Z" fill="#F4F4F4"/>
<path opacity="0.05" d="M25.3883 66.7148H23.8789V67.9018H25.3883V66.7148Z" fill="#292A2E"/>
<path opacity="0.05" d="M9.95665 66.7148H8.44727V67.9018H9.95665V66.7148Z" fill="#292A2E"/>
<path opacity="0.7" d="M26.032 43.9189H7.80322V48.5056H26.032V43.9189Z" fill="white"/>
<path opacity="0.7" d="M26.032 49.6279H7.80322V54.2146H26.032V49.6279Z" fill="white"/>
<path opacity="0.7" d="M26.032 55.3379H7.80322V59.9246H26.032V55.3379Z" fill="white"/>
<path opacity="0.05" d="M16.9176 46.8539C17.2186 46.8539 17.4626 46.5665 17.4626 46.2121C17.4626 45.8576 17.2186 45.5703 16.9176 45.5703C16.6166 45.5703 16.3726 45.8576 16.3726 46.2121C16.3726 46.5665 16.6166 46.8539 16.9176 46.8539Z" fill="#292A2E"/>
<path opacity="0.05" d="M16.9176 52.5638C17.2186 52.5638 17.4626 52.2765 17.4626 51.922C17.4626 51.5676 17.2186 51.2803 16.9176 51.2803C16.6166 51.2803 16.3726 51.5676 16.3726 51.922C16.3726 52.2765 16.6166 52.5638 16.9176 52.5638Z" fill="#292A2E"/>
<path opacity="0.05" d="M16.9176 58.2728C17.2186 58.2728 17.4626 57.9855 17.4626 57.631C17.4626 57.2766 17.2186 56.9893 16.9176 56.9893C16.6166 56.9893 16.3726 57.2766 16.3726 57.631C16.3726 57.9855 16.6166 58.2728 16.9176 58.2728Z" fill="#292A2E"/>
<path opacity="0.7" d="M26.032 61.1758H7.80322V65.7625H26.032V61.1758Z" fill="white"/>
<path opacity="0.05" d="M16.9176 64.1107C17.2186 64.1107 17.4626 63.8234 17.4626 63.4689C17.4626 63.1145 17.2186 62.8271 16.9176 62.8271C16.6166 62.8271 16.3726 63.1145 16.3726 63.4689C16.3726 63.8234 16.6166 64.1107 16.9176 64.1107Z" fill="#292A2E"/>
<path d="M68.8942 1.02246H57.769V18.0737H68.8942V1.02246Z" fill="#F4F4F4"/>
<path d="M68.894 18.0732H69.2549V1.02204H68.894V18.0732Z" fill="#F4F4F4"/>
<path opacity="0.05" d="M68.894 18.0732H69.2549V1.02204H68.894V18.0732Z" fill="#292A2E"/>
<path opacity="0.05" d="M66.8673 4.12891H59.7954V14.9679H66.8673V4.12891Z" fill="#292A2E"/>
<path opacity="0.03" d="M66.8676 4.12891H66.499V14.9679H66.8676V4.12891Z" fill="#292A2E"/>
<path d="M77.9926 22.2666H68.894V33.0786H77.9926V22.2666Z" fill="#F4F4F4"/>
<path opacity="0.05" d="M76.3355 24.2363H70.5518V31.1092H76.3355V24.2363Z" fill="#292A2E"/>
<path d="M77.9927 33.0791H78.3535V22.2671H77.9927V33.0791Z" fill="#F4F4F4"/>
<path opacity="0.05" d="M77.9927 33.0791H78.3535V22.2671H77.9927V33.0791Z" fill="#292A2E"/>
<path opacity="0.03" d="M76.3354 24.2363H75.9668V31.1092H76.3354V24.2363Z" fill="#292A2E"/>
<path d="M32.6799 0H1.87451V36.2736H32.6799V0Z" fill="#F4F4F4"/>
<path d="M1.87457 0H1.52148V36.2736H1.87457V0Z" fill="#F4F4F4"/>
<path opacity="0.05" d="M1.87457 0H1.52148V36.2736H1.87457V0Z" fill="#292A2E"/>
<path opacity="0.05" d="M9.33728 24.9952V15.5049H15.9393V21.0185H26.166V30.7812H30.5125V36.2733H26.166H25.3287H3.35645V24.9952H9.33728Z" fill="#292A2E"/>
<path opacity="0.34" d="M15.0919 16.5352H10.2842V17.5656H15.0919V16.5352Z" fill="#FFFFFA"/>
<path opacity="0.34" d="M15.0919 18.6709H10.2842V19.7013H15.0919V18.6709Z" fill="#FFFFFA"/>
<path opacity="0.34" d="M15.0919 20.8057H10.2842V21.8361H15.0919V20.8057Z" fill="#FFFFFA"/>
<path opacity="0.34" d="M5.09464 25.9961H4.2085V27.0265H5.09464V25.9961Z" fill="#FFFFFA"/>
<path opacity="0.34" d="M5.09464 28.1318H4.2085V29.1622H5.09464V28.1318Z" fill="#FFFFFA"/>
<path opacity="0.34" d="M5.09464 30.2666H4.2085V31.297H5.09464V30.2666Z" fill="#FFFFFA"/>
<path opacity="0.34" d="M6.7338 25.9961H5.84766V27.0265H6.7338V25.9961Z" fill="#FFFFFA"/>
<path opacity="0.34" d="M6.7338 28.1318H5.84766V29.1622H6.7338V28.1318Z" fill="#FFFFFA"/>
<path opacity="0.34" d="M6.7338 30.2666H5.84766V31.297H6.7338V30.2666Z" fill="#FFFFFA"/>
<path opacity="0.34" d="M8.32901 25.9961H7.44287V27.0265H8.32901V25.9961Z" fill="#FFFFFA"/>
<path opacity="0.34" d="M8.32901 28.1318H7.44287V29.1622H8.32901V28.1318Z" fill="#FFFFFA"/>
<path opacity="0.34" d="M8.32901 30.2666H7.44287V31.297H8.32901V30.2666Z" fill="#FFFFFA"/>
<path d="M1.87451 17.9333H8.07302V0H8.58566V17.9333H25.3286V0H25.8412V17.9333H32.6799V18.537H25.8412V36.2736H25.3286V18.537H8.58566V36.2736H8.07302V18.537H1.87451V17.9333Z" fill="white"/>
<path d="M33.9067 36.2295H0.646973V37.4358H33.9067V36.2295Z" fill="#F4F4F4"/>
<path opacity="0.1" d="M33.9067 36.2295H0.646973V37.4358H33.9067V36.2295Z" fill="#292A2E"/>
<path opacity="0.1" d="M0.647188 36.2295H0.166992V37.4358H0.647188V36.2295Z" fill="#292A2E"/>
<path opacity="0.1" d="M0.647188 36.2295H0.166992V37.4358H0.647188V36.2295Z" fill="#292A2E"/>
<path d="M9.07422 12.4006L9.07422 55.3312C9.07422 58.8827 11.5192 61.7617 14.5353 61.7617L71.4646 61.7617C74.4807 61.7617 76.9257 58.8827 76.9257 55.3312V12.4006C76.9257 8.84912 74.4807 5.97009 71.4646 5.97009L14.5353 5.97009C11.5192 5.97009 9.07422 8.84912 9.07422 12.4006Z" fill="#292A2E"/>
<path d="M75.0928 12.4204V55.3113C75.0927 56.4823 74.6976 57.6054 73.9944 58.4334C73.2911 59.2615 72.3373 59.7267 71.3428 59.7267H14.5292C13.5347 59.7265 12.581 59.2613 11.8778 58.4333C11.1746 57.6052 10.7795 56.4823 10.7793 55.3113V44.4589H11.936C12.47 44.459 12.9821 44.2093 13.3597 43.7648C13.7374 43.3203 13.9496 42.7174 13.9497 42.0886V25.6433C13.9496 25.0145 13.7374 24.4116 13.3597 23.9671C12.9821 23.5226 12.47 23.273 11.936 23.273H10.7793V12.4204C10.7795 11.2494 11.1746 10.1264 11.8778 9.2984C12.581 8.47037 13.5347 8.00509 14.5292 8.00488H71.3428C72.3373 8.00493 73.2911 8.47015 73.9944 9.29821C74.6976 10.1263 75.0927 11.2494 75.0928 12.4204Z" fill="white"/>
<path d="M10.0747 44.458L10.0747 23.2722H11.9366C12.4705 23.2722 12.9826 23.522 13.3601 23.9665C13.7377 24.4111 13.9498 25.0141 13.9498 25.6428V42.0874C13.9498 42.7162 13.7377 43.3191 13.3601 43.7637C12.9826 44.2083 12.4705 44.458 11.9366 44.458H10.0747Z" fill="#292A2E"/>
<path d="M79.4905 56.3392C79.4707 56.3392 79.4517 56.3299 79.4377 56.3134C79.3323 56.1892 79.1606 53.913 78.698 47.1359C78.5088 44.3635 78.33 41.7449 78.1996 40.1538C78.1902 40.0402 78.1528 40.0269 78.1405 40.0225C77.9616 39.9588 77.4188 40.4634 77.1155 40.9049C77.1094 40.9143 77.1018 40.9221 77.0931 40.9279C77.0845 40.9337 77.0749 40.9373 77.065 40.9387C77.0551 40.9401 77.045 40.9391 77.0354 40.9359C77.0259 40.9326 77.0169 40.9271 77.0092 40.9197C77.0014 40.9123 76.995 40.9032 76.9903 40.8928C76.9856 40.8825 76.9827 40.8711 76.9818 40.8594C76.9808 40.8477 76.9819 40.8359 76.9849 40.8247C76.9879 40.8135 76.9928 40.8031 76.9993 40.7942C77.1997 40.5022 77.853 39.7369 78.1836 39.8538C78.2501 39.8774 78.3327 39.9456 78.3481 40.1368C78.4786 41.7297 78.6573 44.3491 78.8467 47.1222C79.1278 51.2406 79.4463 55.9062 79.5509 56.1998C79.559 56.213 79.5638 56.2285 79.5648 56.2446C79.5658 56.2608 79.5631 56.277 79.5568 56.2914C79.5505 56.3058 79.5409 56.3179 79.5292 56.3264C79.5174 56.3348 79.5039 56.3393 79.4902 56.3393L79.4905 56.3392Z" fill="#494949"/>
<path d="M78.0073 43.0743C79.2481 41.9032 79.6593 40.0803 78.9258 39.0029C78.1923 37.9254 76.5919 38.0013 75.3511 39.1724C74.1103 40.3436 73.6991 42.1664 74.4326 43.2439C75.1661 44.3214 76.7665 44.2455 78.0073 43.0743Z" fill="#0CBC8B"/>
<path opacity="0.2" d="M78.0073 43.0743C79.2481 41.9032 79.6593 40.0803 78.9258 39.0029C78.1923 37.9254 76.5919 38.0013 75.3511 39.1724C74.1103 40.3436 73.6991 42.1664 74.4326 43.2439C75.1661 44.3214 76.7665 44.2455 78.0073 43.0743Z" fill="white"/>
<path d="M74.7806 43.5175C74.7735 43.5175 74.7665 43.5152 74.7605 43.5107C74.7545 43.5062 74.7497 43.4998 74.7467 43.4922C74.7437 43.4846 74.7426 43.4762 74.7435 43.4679C74.7444 43.4596 74.7473 43.4518 74.7518 43.4453L78.2882 38.4241C78.2945 38.4151 78.3036 38.4095 78.3135 38.4084C78.3234 38.4073 78.3332 38.4109 78.3408 38.4184C78.3485 38.4258 78.3533 38.4365 78.3542 38.4482C78.3551 38.4598 78.3521 38.4714 78.3457 38.4804L74.8096 43.5016C74.8061 43.5066 74.8017 43.5106 74.7966 43.5134C74.7916 43.5162 74.7861 43.5176 74.7806 43.5175Z" fill="white"/>
<path d="M80.2623 55.2632C80.2504 55.2632 80.2386 55.2598 80.228 55.2534C80.2174 55.2469 80.2083 55.2376 80.2013 55.2261C80.1944 55.2147 80.1899 55.2014 80.1882 55.1875C80.1866 55.1736 80.1877 55.1594 80.1917 55.1461L81.5199 50.6481C81.5591 50.516 81.6257 50.3975 81.7138 50.3035C81.8018 50.2095 81.9085 50.1431 82.0241 50.1103C82.1396 50.0774 82.2603 50.0793 82.375 50.1156C82.4898 50.1519 82.595 50.2215 82.681 50.3181L83.3833 51.1081C83.3971 51.1243 83.405 51.1463 83.4053 51.1693C83.4055 51.1923 83.3981 51.2146 83.3846 51.2312C83.3711 51.2478 83.3526 51.2576 83.333 51.2584C83.3135 51.2592 83.2945 51.2509 83.28 51.2354L82.5778 50.4455C82.5099 50.3691 82.4268 50.314 82.3361 50.2853C82.2454 50.2565 82.1501 50.255 82.0588 50.281C81.9675 50.3069 81.8832 50.3594 81.8136 50.4337C81.7441 50.5079 81.6914 50.6016 81.6606 50.706L80.3323 55.2041C80.3272 55.2212 80.3178 55.2361 80.3053 55.2467C80.2927 55.2573 80.2777 55.263 80.2623 55.2632Z" fill="#494949"/>
<path d="M85.345 53.598C86.2645 52.741 86.2098 50.856 85.2229 49.3878C84.2359 47.9196 82.6904 47.4241 81.7709 48.2812C80.8514 49.1382 80.906 51.0232 81.893 52.4914C82.8799 53.9596 84.4254 54.455 85.345 53.598Z" fill="#0CBC8B"/>
<path d="M78.8869 56.052C78.8701 56.052 78.8538 56.0453 78.8406 56.033C78.8275 56.0208 78.8182 56.0036 78.8143 55.9844L76.5853 45.0099C76.57 44.9351 76.5376 44.8667 76.4915 44.8122C76.4454 44.7577 76.3874 44.7192 76.3239 44.701C76.2604 44.6828 76.1939 44.6856 76.1317 44.709C76.0695 44.7324 76.014 44.7756 75.9712 44.8338L75.2841 45.7688C75.2777 45.7779 75.2699 45.7854 75.2611 45.7909C75.2522 45.7964 75.2425 45.7998 75.2326 45.8008C75.2226 45.8018 75.2126 45.8005 75.2031 45.7968C75.1935 45.7932 75.1847 45.7873 75.1772 45.7796C75.1696 45.7719 75.1635 45.7625 75.159 45.7519C75.1546 45.7414 75.1521 45.7298 75.1515 45.7181C75.1509 45.7063 75.1524 45.6946 75.1557 45.6835C75.1591 45.6724 75.1643 45.6622 75.1711 45.6535L75.8579 44.7181C75.9186 44.6354 75.9976 44.5741 76.086 44.5409C76.1744 44.5076 76.269 44.5037 76.3592 44.5296C76.4494 44.5555 76.5317 44.6102 76.5972 44.6877C76.6627 44.7652 76.7088 44.8625 76.7304 44.9688L78.9594 55.9433C78.9639 55.9659 78.9606 55.9897 78.9502 56.0095C78.9399 56.0293 78.9233 56.0435 78.9041 56.0489C78.8985 56.0507 78.8927 56.0518 78.8869 56.052Z" fill="#494949"/>
<path d="M78.0188 48.2205C78.2891 46.3761 77.5719 44.6907 76.4167 44.4559C75.2616 44.2212 74.106 45.526 73.8357 47.3704C73.5653 49.2148 74.2826 50.9003 75.4378 51.135C76.5929 51.3698 77.7485 50.0649 78.0188 48.2205Z" fill="#0CBC8B"/>
<path d="M79.4908 56.3392C79.4877 56.3392 79.4847 56.3389 79.4816 56.3385C79.462 56.3356 79.4441 56.3237 79.4319 56.3053C79.4197 56.2869 79.4142 56.2636 79.4166 56.2404L80.84 42.6317C80.8555 42.4835 80.9071 42.3437 80.9884 42.2291C81.0698 42.1145 81.1776 42.0301 81.2987 41.9859C81.4199 41.9417 81.5493 41.9397 81.6714 41.98C81.7936 42.0203 81.9032 42.1014 81.9871 42.2133L83.6141 44.3831C83.6206 44.3917 83.6255 44.4018 83.6287 44.4128C83.6319 44.4237 83.6332 44.4353 83.6326 44.4468C83.632 44.4584 83.6295 44.4696 83.6251 44.48C83.6208 44.4904 83.6148 44.4997 83.6074 44.5073C83.6001 44.515 83.5915 44.5209 83.5822 44.5246C83.5729 44.5283 83.5631 44.5299 83.5533 44.5292C83.5435 44.5285 83.5339 44.5255 83.5251 44.5204C83.5163 44.5153 83.5084 44.5082 83.5019 44.4995L81.875 42.3299C81.8101 42.2434 81.7254 42.1807 81.631 42.1495C81.5366 42.1184 81.4366 42.1199 81.3429 42.1541C81.2493 42.1882 81.166 42.2535 81.1031 42.342C81.0402 42.4306 81.0004 42.5386 80.9884 42.6532L79.5649 56.2615C79.5628 56.2829 79.554 56.3026 79.5404 56.3169C79.5267 56.3312 79.5091 56.3391 79.4908 56.3392Z" fill="#494949"/>
<path d="M85.2822 45.5893C85.8499 44.3809 85.182 42.6666 83.7905 41.7603C82.399 40.854 80.8108 41.0988 80.2431 42.3072C79.6755 43.5155 80.3434 45.2298 81.7349 46.1362C83.1264 47.0425 84.7146 46.7977 85.2822 45.5893Z" fill="#0CBC8B"/>
<path opacity="0.2" d="M85.345 53.598C86.2645 52.741 86.2098 50.856 85.2229 49.3878C84.2359 47.9196 82.6904 47.4241 81.7709 48.2812C80.8514 49.1382 80.906 51.0232 81.893 52.4914C82.8799 53.9596 84.4254 54.455 85.345 53.598Z" fill="white"/>
<path opacity="0.5" d="M78.0188 48.2205C78.2891 46.3761 77.5719 44.6907 76.4167 44.4559C75.2616 44.2212 74.106 45.526 73.8357 47.3704C73.5653 49.2148 74.2826 50.9003 75.4378 51.135C76.5929 51.3698 77.7485 50.0649 78.0188 48.2205Z" fill="white"/>
<path opacity="0.5" d="M85.2822 45.5893C85.8499 44.3809 85.182 42.6666 83.7905 41.7603C82.399 40.854 80.8108 41.0988 80.2431 42.3072C79.6755 43.5155 80.3434 45.2298 81.7349 46.1362C83.1264 47.0425 84.7146 46.7977 85.2822 45.5893Z" fill="white"/>
<path d="M81.311 67.886H77.6698L77.0664 54.168H81.9144L81.311 67.886Z" fill="#292A2E"/>
<path opacity="0.3" d="M81.311 67.886H77.6698L77.0664 54.168H81.9144L81.311 67.886Z" fill="white"/>
<path d="M85.3446 53.6419C85.339 53.6419 85.3334 53.6404 85.3283 53.6375C85.3233 53.6347 85.3188 53.6305 85.3154 53.6253L81.7412 48.3084C81.7354 48.2992 81.7329 48.2878 81.7342 48.2765C81.7355 48.2652 81.7405 48.2549 81.748 48.2478C81.7556 48.2407 81.7653 48.2374 81.7749 48.2385C81.7845 48.2396 81.7934 48.2451 81.7997 48.2537L85.3739 53.5705C85.3783 53.577 85.381 53.5848 85.3818 53.593C85.3826 53.6013 85.3813 53.6096 85.3783 53.6171C85.3752 53.6245 85.3704 53.6308 85.3645 53.6352C85.3585 53.6396 85.3516 53.6419 85.3446 53.6419Z" fill="white"/>
<path d="M85.0445 46.0156C85.0366 46.0155 85.0288 46.0124 85.0225 46.0068L80.4489 42.0747C80.4409 42.0678 80.4356 42.0575 80.434 42.0459C80.4325 42.0344 80.4349 42.0226 80.4408 42.0132C80.4466 42.0038 80.4554 41.9974 80.4652 41.9956C80.475 41.9938 80.485 41.9967 80.4931 42.0036L85.0667 45.936C85.0729 45.9416 85.0776 45.9493 85.0799 45.9581C85.0823 45.9669 85.0822 45.9764 85.0797 45.9852C85.0772 45.9939 85.0725 46.0015 85.0661 46.0069C85.0597 46.0124 85.0521 46.0153 85.0442 46.0153L85.0445 46.0156Z" fill="white"/>
<path d="M75.2962 51.0648C75.2929 51.0648 75.2897 51.0643 75.2866 51.0633C75.2818 51.0618 75.2774 51.0592 75.2735 51.0557C75.2696 51.0522 75.2663 51.0478 75.2638 51.0428C75.2614 51.0378 75.2598 51.0323 75.2591 51.0265C75.2585 51.0208 75.2588 51.015 75.26 51.0094L76.716 44.5861C76.7172 44.5804 76.7194 44.5751 76.7224 44.5704C76.7253 44.5657 76.7291 44.5618 76.7333 44.5588C76.7376 44.5559 76.7423 44.5539 76.7473 44.5531C76.7522 44.5523 76.7572 44.5527 76.762 44.5542C76.7668 44.5557 76.7712 44.5583 76.7752 44.5619C76.7791 44.5655 76.7824 44.57 76.7848 44.575C76.7873 44.5801 76.7888 44.5857 76.7894 44.5915C76.79 44.5973 76.7896 44.6032 76.7883 44.6088L75.3324 51.0321C75.3302 51.0415 75.3255 51.0498 75.319 51.0557C75.3124 51.0616 75.3044 51.0648 75.2962 51.0648Z" fill="white"/>
<path d="M24.1982 42.1847V59.7272H14.5292C14.0367 59.7274 13.549 59.6133 13.0939 59.3915C12.6389 59.1696 12.2254 58.8444 11.8772 58.4343C11.5289 58.0242 11.2527 57.5373 11.0643 57.0015C10.876 56.4657 10.7791 55.8914 10.7793 55.3114V44.4591H11.936C12.3051 44.4594 12.6672 44.3401 12.9825 44.1142C13.2979 43.8884 13.5543 43.5647 13.7238 43.1786C13.8604 42.871 13.9371 42.5314 13.9481 42.1846L24.1982 42.1847Z" fill="#F4F4F4"/>
<path opacity="0.03" d="M24.1982 42.1847V59.7272H14.5292C14.0367 59.7274 13.549 59.6133 13.0939 59.3915C12.6389 59.1696 12.2254 58.8444 11.8772 58.4343C11.5289 58.0242 11.2527 57.5373 11.0643 57.0015C10.876 56.4657 10.7791 55.8914 10.7793 55.3114V44.4591H11.936C12.3051 44.4594 12.6672 44.3401 12.9825 44.1142C13.2979 43.8884 13.5543 43.5647 13.7238 43.1786C13.8604 42.871 13.9371 42.5314 13.9481 42.1846L24.1982 42.1847Z" fill="#292A2E"/>
<path d="M27.4448 42.1847V59.7272H14.5292C14.0367 59.7274 13.549 59.6133 13.0939 59.3915C12.6389 59.1696 12.2254 58.8444 11.8772 58.4343C11.5289 58.0242 11.2527 57.5373 11.0643 57.0015C10.876 56.4657 10.7791 55.8914 10.7793 55.3114V44.4591H11.936C12.3051 44.4594 12.6672 44.3401 12.9825 44.1142C13.2979 43.8884 13.5543 43.5647 13.7238 43.1786C13.8604 42.871 13.9371 42.5314 13.9481 42.1846L27.4448 42.1847Z" fill="#F4F4F4"/>
<path opacity="0.7" d="M26.7875 43.1787V47.2562H10.7793V44.4592H11.936C12.3051 44.4595 12.6672 44.3402 12.9825 44.1143C13.2979 43.8885 13.5543 43.5648 13.7238 43.1787H26.7875Z" fill="white"/>
<path opacity="0.7" d="M26.7876 48.2539H10.7793V52.3313H26.7876V48.2539Z" fill="white"/>
<path opacity="0.7" d="M26.7875 53.3294V57.4065H11.2279C10.9324 56.763 10.7782 56.0426 10.7793 55.311V53.3291L26.7875 53.3294Z" fill="white"/>
<path opacity="0.05" d="M18.6852 45.7885C18.9528 45.7885 19.1697 45.5331 19.1697 45.218C19.1697 44.9029 18.9528 44.6475 18.6852 44.6475C18.4176 44.6475 18.2007 44.9029 18.2007 45.218C18.2007 45.5331 18.4176 45.7885 18.6852 45.7885Z" fill="#292A2E"/>
<path opacity="0.05" d="M18.6852 50.8637C18.9528 50.8637 19.1697 50.6083 19.1697 50.2932C19.1697 49.9781 18.9528 49.7227 18.6852 49.7227C18.4176 49.7227 18.2007 49.9781 18.2007 50.2932C18.2007 50.6083 18.4176 50.8637 18.6852 50.8637Z" fill="#292A2E"/>
<path opacity="0.05" d="M18.6852 55.9389C18.9528 55.9389 19.1697 55.6835 19.1697 55.3684C19.1697 55.0533 18.9528 54.7979 18.6852 54.7979C18.4176 54.7979 18.2007 55.0533 18.2007 55.3684C18.2007 55.6835 18.4176 55.9389 18.6852 55.9389Z" fill="#292A2E"/>
<path opacity="0.7" d="M26.7876 58.5195V59.7275H14.5293C13.5707 59.7287 12.6483 59.2963 11.9526 58.5195H26.7876Z" fill="white"/>
<path d="M69.516 8.00488H57.769V18.1311H69.516V8.00488Z" fill="#F4F4F4"/>
<path d="M69.8975 8.00488H69.5161V18.1311H69.8975V8.00488Z" fill="#F4F4F4"/>
<path opacity="0.05" d="M69.8975 8.00488H69.5161V18.1311H69.8975V8.00488Z" fill="#292A2E"/>
<path opacity="0.05" d="M67.3761 8.00488H59.9092V14.8514H67.3761V8.00488Z" fill="#292A2E"/>
<path opacity="0.03" d="M67.3756 8.00488H66.9868V14.8514H67.3756V8.00488Z" fill="#292A2E"/>
<path d="M75.0927 22.5586H69.5161V33.9747H75.0927V22.5586Z" fill="#F4F4F4"/>
<path opacity="0.05" d="M75.0928 24.6387H71.2666V31.8955H75.0928V24.6387Z" fill="#292A2E"/>
<path d="M33.7572 8.00488V37.4759H13.9497V25.6433C13.9496 25.0145 13.7374 24.4116 13.3597 23.9671C12.9821 23.5226 12.47 23.273 11.936 23.273H10.7793V12.4204C10.7795 11.2494 11.1746 10.1264 11.8778 9.2984C12.581 8.47037 13.5347 8.00509 14.5292 8.00488H33.7572Z" fill="#F4F4F4"/>
<path opacity="0.05" d="M31.5177 31.8019V37.4756H13.9497V25.643C13.9496 25.0143 13.7374 24.4114 13.3597 23.9669C12.9821 23.5224 12.47 23.2727 11.936 23.2728H10.7793V16.0195H16.4621V21.7153H27.0276V31.8019H31.5177Z" fill="#292A2E"/>
<path opacity="0.34" d="M15.5865 17.084H10.7793V18.1485H15.5865V17.084Z" fill="#FFFFFA"/>
<path opacity="0.34" d="M15.5865 19.29H10.7793V20.3545H15.5865V19.29Z" fill="#FFFFFA"/>
<path opacity="0.34" d="M15.5865 21.4961H10.7793V22.5606H15.5865V21.4961Z" fill="#FFFFFA"/>
<path d="M33.7572 18.5282V19.1516H26.6918V37.4759H26.1625V19.1516H10.7793V18.5282H26.1625V8.00488H26.6918V18.5282H33.7572Z" fill="white"/>
<path d="M35.0254 37.4307H13.9497V38.6774H35.0254V37.4307Z" fill="#F4F4F4"/>
<path opacity="0.1" d="M35.0254 37.4307H13.9497V38.6774H35.0254V37.4307Z" fill="#292A2E"/>
<path d="M50.2965 23.536L51.3141 24.4963L51.2302 24.3106C51.2041 24.25 51.1986 24.18 51.2146 24.1148C51.2307 24.0495 51.2672 23.9939 51.3168 23.9591C51.3429 23.9423 51.3716 23.9318 51.4013 23.9285C51.431 23.9251 51.4609 23.9289 51.4893 23.9396C51.5176 23.9503 51.5439 23.9677 51.5663 23.9908C51.5888 24.0138 51.607 24.042 51.62 24.0736L52.2757 25.6633C52.3585 25.864 52.3714 26.0948 52.3117 26.3065C52.252 26.5183 52.1244 26.6941 51.9561 26.7966C51.7607 26.9156 51.5396 26.9632 51.3211 26.9332C51.1026 26.9033 50.8967 26.7972 50.7298 26.6286L49.9746 25.8632C49.9346 25.8243 49.9073 25.7704 49.8973 25.7105C49.8873 25.6507 49.8952 25.5886 49.9196 25.5348C49.9425 25.4868 49.9778 25.4487 50.0204 25.426C50.063 25.4033 50.1107 25.3972 50.1564 25.4087C50.1566 25.4056 50.1572 25.4027 50.1584 25.3999C50.1595 25.3972 50.1612 25.3948 50.1631 25.3929C50.1651 25.3909 50.1674 25.3894 50.1699 25.3886C50.1723 25.3877 50.1749 25.3874 50.1775 25.3878L50.0378 25.2469C49.9953 25.2059 49.9668 25.1482 49.9577 25.0844C49.9486 25.0206 49.9594 24.9551 49.9881 24.8999C50.018 24.8464 50.0637 24.8079 50.1163 24.7919C50.1689 24.7758 50.2248 24.7834 50.2729 24.8131C50.2728 24.8104 50.2731 24.8076 50.2737 24.805L50.2165 24.7471C50.1786 24.7071 50.1527 24.6538 50.1426 24.5951C50.1325 24.5365 50.1387 24.4755 50.1602 24.4213C50.1878 24.362 50.2339 24.3177 50.2888 24.298C50.3437 24.2782 50.403 24.2846 50.4539 24.3156L50.4563 24.3115L50.0288 23.9081C50.0069 23.8874 49.9888 23.8617 49.9756 23.8325C49.9624 23.8033 49.9544 23.7712 49.9521 23.7383C49.9498 23.7053 49.9531 23.6722 49.9621 23.6408C49.971 23.6095 49.9852 23.5806 50.0039 23.5559C50.0414 23.5095 50.0925 23.4817 50.1469 23.478C50.2012 23.4743 50.2547 23.495 50.2965 23.536Z" fill="#E98862"/>
<path opacity="0.2" d="M50.4498 24.3442C50.4511 24.3466 50.4527 24.3487 50.4546 24.3504L50.8738 24.7366C50.8781 24.7406 50.8835 24.7424 50.8889 24.7416C50.8944 24.7408 50.8993 24.7375 50.9027 24.7324C50.906 24.7274 50.9075 24.7209 50.9069 24.7146C50.9062 24.7082 50.9034 24.7024 50.8991 24.6984L50.48 24.3122C50.4762 24.309 50.4715 24.3073 50.4668 24.3077C50.462 24.308 50.4575 24.3102 50.454 24.3139C50.4505 24.3177 50.4482 24.3227 50.4475 24.3282C50.4468 24.3337 50.4477 24.3394 50.4501 24.3442H50.4498Z" fill="#0C0C0C"/>
<path opacity="0.2" d="M50.2755 24.8231C50.2767 24.8255 50.2783 24.8275 50.2801 24.8293L50.6076 25.1359C50.6119 25.1399 50.6174 25.1417 50.6228 25.141C50.6282 25.1402 50.6332 25.137 50.6366 25.132C50.64 25.1269 50.6415 25.1205 50.6409 25.1141C50.6403 25.1077 50.6376 25.1019 50.6333 25.0979L50.3059 24.7913C50.302 24.7878 50.2973 24.786 50.2925 24.7861C50.2876 24.7863 50.283 24.7885 50.2794 24.7923C50.2758 24.7961 50.2734 24.8012 50.2727 24.8069C50.272 24.8125 50.273 24.8182 50.2755 24.8231Z" fill="#0C0C0C"/>
<path opacity="0.2" d="M50.1589 25.4239C50.1603 25.4264 50.162 25.4286 50.164 25.4304L50.3215 25.5713C50.3259 25.5747 50.3312 25.576 50.3364 25.575C50.3416 25.574 50.3462 25.5707 50.3494 25.5657C50.3526 25.5608 50.354 25.5546 50.3535 25.5485C50.3529 25.5423 50.3504 25.5366 50.3464 25.5326L50.1889 25.3917C50.185 25.3883 50.1803 25.3865 50.1755 25.3867C50.1706 25.387 50.166 25.3892 50.1625 25.393C50.1589 25.3969 50.1566 25.4021 50.1559 25.4077C50.1553 25.4133 50.1564 25.4191 50.1589 25.4239Z" fill="#0C0C0C"/>
<path d="M62.0803 30.4468L56.729 32.8521C56.4743 32.9685 56.1968 32.9976 55.9286 32.936C55.6604 32.8744 55.4126 32.7245 55.2137 32.5038L50.4624 27.2299L52.4464 24.752L56.5333 29.2886L61.0335 27.2724L62.0803 30.4468Z" fill="#00D084"/>
<path d="M67.5119 65.0693C67.5119 65.0693 67.2702 66.5452 66.0966 66.6278C64.923 66.7104 65.1776 67.8108 65.1776 67.8108H69.6621V65.1723L67.5119 65.0693Z" fill="#00D084"/>
<path d="M68.8952 38.1467C68.8952 38.1467 68.8811 37.7031 68.8841 38.7094C68.8952 42.4633 68.9505 46.751 69.0859 49.2601C69.3032 53.2937 69.8602 66.0103 69.8602 66.0103L66.9135 65.9812L64.0571 37.9941L68.8952 38.1467Z" fill="#262626"/>
<path d="M65.5675 42.5742C65.5675 42.5742 65.4454 45.2983 65.4228 45.9376C65.3704 47.4168 65.3522 48.948 65.3522 50.6842L64.8877 46.1326C64.8877 46.1326 65.2276 44.7064 65.5675 42.5742Z" fill="#0A0A0A"/>
<path d="M62.2658 65.0693C62.2658 65.0693 62.024 66.5452 60.8505 66.6278C59.677 66.7104 59.9315 67.8108 59.9315 67.8108H64.416V65.1723L62.2658 65.0693Z" fill="#00D084"/>
<path d="M61.2266 38.6706C61.2266 38.6706 60.9656 51.5004 61.0038 52.1274L62.0997 66.1457L64.9979 66.2087L64.7154 51.6205C64.7154 51.6205 64.9146 47.5963 65.7404 43.8596C66.1628 41.9418 66.417 39.978 66.4991 37.999L61.2266 38.6706Z" fill="#262626"/>
<path d="M68.9272 38.1466L68.9369 38.1472C68.9369 38.1472 68.9299 37.9284 68.9272 38.1466Z" fill="#333333"/>
<path d="M60.4242 31.3174C60.485 32.1581 60.7806 37.4032 60.8391 38.4387H68.8922C68.9377 37.5048 69.142 33.4208 69.3145 31.5944C69.479 29.8516 69.8023 28.9794 69.5654 28.4638C69.1784 27.6217 68.121 27.1351 67.3999 27.0199C66.9597 26.9494 66.2975 26.8994 66.2975 26.8994C66.2975 26.8994 66.2414 28.235 64.9044 28.3093C63.0844 28.4105 63.206 26.8994 63.1969 26.8994C62.9021 26.8994 61.1855 27.0627 60.8056 27.4067C60.1415 28.0089 60.2952 29.5357 60.4242 31.3174Z" fill="#00D084"/>
<path d="M60.4316 31.1842C60.4247 31.1842 60.4182 31.1811 60.4132 31.1756C60.4082 31.17 60.4052 31.1625 60.4049 31.1544L60.3399 29.8195C60.3397 29.8153 60.3402 29.8112 60.3413 29.8073C60.3425 29.8034 60.3443 29.7998 60.3466 29.7967C60.349 29.7936 60.3518 29.7911 60.355 29.7893C60.3581 29.7875 60.3616 29.7864 60.3651 29.7862C60.3686 29.7859 60.3721 29.7865 60.3754 29.7879C60.3788 29.7893 60.3818 29.7914 60.3844 29.7941C60.3871 29.7969 60.3892 29.8002 60.3907 29.8039C60.3923 29.8077 60.3932 29.8117 60.3934 29.8159L60.4583 31.1508C60.4585 31.155 60.458 31.1591 60.4569 31.163C60.4557 31.1669 60.4539 31.1705 60.4516 31.1736C60.4492 31.1767 60.4464 31.1792 60.4432 31.181C60.4401 31.1828 60.4366 31.1839 60.4331 31.1841L60.4316 31.1842Z" fill="#0C0C0C"/>
<path d="M70.6329 38.3842C70.8698 38.3842 71.1031 38.3168 71.3131 38.1878C71.5231 38.0587 71.7035 37.8718 71.8389 37.643C71.9743 37.4142 72.0608 37.1502 72.091 36.8736C72.1211 36.597 72.0941 36.3159 72.0121 36.0542C71.929 35.7885 69.9783 29.707 69.6073 28.5801L66.8579 29.892C67.0667 30.5259 67.8231 32.9271 68.4308 34.8618L67.4213 34.7325L67.1035 38.1746L70.4739 38.3743C70.5267 38.381 70.5798 38.3843 70.6329 38.3842Z" fill="#00D084"/>
<path d="M62.4585 26.9483C62.4669 26.947 62.6993 27.9767 64.5127 27.8165C65.7681 27.7057 66.0742 26.6995 66.103 26.6995C65.9676 26.6656 65.7479 26.6305 65.6877 26.5926C65.5839 26.5363 65.4924 26.4525 65.4206 26.3477C65.3488 26.2429 65.2984 26.1201 65.2736 25.9886C65.2169 25.7333 65.188 24.7494 65.188 24.2559L63.2561 24.7672C63.283 25.324 63.4715 26.6146 62.811 26.843C62.7011 26.8804 62.5827 26.9156 62.4585 26.9483Z" fill="#E98862"/>
<path d="M63.3229 25.8617C64.0845 25.9321 65.0627 25.5535 65.2485 24.3574L65.4162 23.2779C65.6021 22.0815 65.2191 20.9967 64.2624 20.7906C63.3058 20.5846 62.4401 21.4005 62.2543 22.5969L62.18 23.0748C62.1086 23.5339 61.9641 25.7359 63.3229 25.8617Z" fill="#E98862"/>
<path d="M62.6169 24.7629C62.7536 23.9541 62.8162 23.4146 62.809 22.8453C62.6164 22.4476 62.6669 21.9912 62.7108 21.7939C62.5782 21.8931 62.4223 21.9402 62.2656 21.9284C62.2656 21.9284 62.584 20.4236 63.6663 20.0187C63.8653 19.9275 64.3734 19.8123 65.0481 19.9213C65.622 20.0139 67.0365 20.5192 67.2386 22.3944V22.3955C67.2453 22.4576 67.3807 24.1854 67.6519 25.0144C68.0159 26.1288 68.5268 26.475 68.514 27.7608C68.4973 29.4146 65.9152 29.6347 64.3578 29.511C62.8003 29.3873 61.9309 28.7843 61.9197 27.5924C61.9072 26.257 62.3434 26.3811 62.6169 24.7629Z" fill="#0A0A0A"/>
<path d="M69.0641 31.6304L68.8662 38.4385L68.9197 38.4406L69.1176 31.6325L69.0641 31.6304Z" fill="#0C0C0C"/>
<path d="M0.0747736 68.0003H85.9252C85.9451 68.0003 85.9641 67.991 85.9781 67.9745C85.9921 67.958 86 67.9356 86 67.9123C86 67.8889 85.9921 67.8665 85.9781 67.85C85.9641 67.8335 85.9451 67.8242 85.9252 67.8242H0.0747736C0.0549424 67.8242 0.0359234 67.8335 0.0219007 67.85C0.00787791 67.8665 0 67.8889 0 67.9123C0 67.9356 0.00787791 67.958 0.0219007 67.9745C0.0359234 67.991 0.0549424 68.0003 0.0747736 68.0003Z" fill="#262626"/>
</g>
<defs>
<clipPath id="clip0_456_438">
<rect width="86" height="68" fill="white"/>
</clipPath>
</defs>
</svg>
