<svg width="122" height="48" viewBox="0 0 122 48" fill="none" xmlns="http://www.w3.org/2000/svg">
<path d="M20 2C20.7956 2 21.5587 2.31607 22.1213 2.87868C22.6839 3.44129 23 4.20435 23 5V7H21V19C21 19.7956 20.6839 20.5587 20.1213 21.1213C19.5587 21.6839 18.7956 22 18 22H4C3.20435 22 2.44129 21.6839 1.87868 21.1213C1.31607 20.5587 1 19.7956 1 19V17H17V19C17 19.2449 17.09 19.4813 17.2527 19.6644C17.4155 19.8474 17.6397 19.9643 17.883 19.993L18 20C18.2449 20 18.4813 19.91 18.6644 19.7473C18.8474 19.5845 18.9643 19.3603 18.993 19.117L19 19V15H3V5C3 4.20435 3.31607 3.44129 3.87868 2.87868C4.44129 2.31607 5.20435 2 6 2H20Z" fill="#FAFAFA"/>
<g clip-path="url(#clip0_273_1503)">
<path d="M113.857 11L93.6667 29.3611M101.238 47.6514L93.6667 29.3611L76 22.5086L113.857 11.08L101.238 47.6514Z" stroke="#00D084" stroke-linecap="round" stroke-linejoin="round"/>
<line x1="68.8244" y1="41.4475" x2="81.933" y2="36.5318" stroke="#00D084"/>
</g>
<line y1="41.5" x2="14" y2="41.5" stroke="#00D084"/>
<path d="M22.9934 42.2013L36.5001 38.5177" stroke="#00D084"/>
<line x1="46.1374" y1="37.5192" x2="59.5987" y2="41.3653" stroke="#00D084"/>
<defs>
<clipPath id="clip0_273_1503">
<rect width="53" height="48" fill="white" transform="translate(69)"/>
</clipPath>
</defs>
</svg>
