<svg width="1026" height="812" viewBox="0 0 1026 812" fill="none" xmlns="http://www.w3.org/2000/svg">
<ellipse cx="286.8" cy="715.423" rx="7.31351" ry="8.68114" fill="#00D084"/>
<ellipse cx="308.252" cy="715.423" rx="7.31351" ry="8.68114" fill="#EBEBEB"/>
<ellipse cx="329.706" cy="715.423" rx="7.31351" ry="8.68114" fill="#EBEBEB"/>
<g filter="url(#filter0_d_162_1458)">
<path d="M191.539 719.814C222.382 685.492 222.382 629.844 191.539 595.522C160.696 561.199 110.69 561.199 79.847 595.522C49.0039 629.844 49.0039 685.492 79.8469 719.814C110.69 754.137 160.696 754.137 191.539 719.814Z" stroke="#00D084" stroke-width="0.5" stroke-miterlimit="10"/>
<path d="M351.586 343.994C406.724 343.994 451.422 294.254 451.422 232.895C451.422 171.537 406.724 121.796 351.586 121.796C296.448 121.796 251.749 171.537 251.749 232.895C251.749 294.254 296.448 343.994 351.586 343.994Z" stroke="#00D084" stroke-width="0.5" stroke-miterlimit="10"/>
<path d="M389.502 448.404H245.292C244.066 448.404 243.073 449.509 243.073 450.873V552.437C243.073 553.801 244.066 554.907 245.292 554.907H389.502C390.728 554.907 391.721 553.801 391.721 552.437V450.873C391.721 449.509 390.728 448.404 389.502 448.404Z" stroke="#00D084" stroke-width="2" stroke-linecap="round" stroke-linejoin="round"/>
<path d="M243.073 462.567H391.728" stroke="#00D084" stroke-width="2" stroke-linecap="round" stroke-linejoin="round"/>
<path d="M254.335 455.389C254.335 457.18 253.035 458.626 251.426 458.626C249.817 458.626 248.517 457.172 248.517 455.389C248.517 453.607 249.817 452.152 251.426 452.152C253.035 452.152 254.335 453.607 254.335 455.389Z" fill="#00D084" stroke="#00D084" stroke-miterlimit="10"/>
<path d="M261.323 458.626C262.93 458.626 264.232 457.177 264.232 455.389C264.232 453.602 262.93 452.152 261.323 452.152C259.717 452.152 258.415 453.602 258.415 455.389C258.415 457.177 259.717 458.626 261.323 458.626Z" fill="#00D084" stroke="#00D084" stroke-miterlimit="10"/>
<path d="M271.221 458.626C272.827 458.626 274.13 457.177 274.13 455.389C274.13 453.602 272.827 452.152 271.221 452.152C269.614 452.152 268.312 453.602 268.312 455.389C268.312 457.177 269.614 458.626 271.221 458.626Z" fill="#00D084" stroke="#00D084" stroke-miterlimit="10"/>
<path d="M719.429 140.339H575.219C573.994 140.339 573 141.445 573 142.809V244.373C573 245.737 573.994 246.843 575.219 246.843H719.429C720.655 246.843 721.649 245.737 721.649 244.373V142.809C721.649 141.445 720.655 140.339 719.429 140.339Z" stroke="#00F299" stroke-width="2" stroke-miterlimit="10"/>
<path d="M573 154.51H721.649" stroke="#00F299" stroke-width="2" stroke-miterlimit="10"/>
<path d="M581.346 150.57C582.952 150.57 584.255 149.121 584.255 147.333C584.255 145.545 582.952 144.096 581.346 144.096C579.739 144.096 578.437 145.545 578.437 147.333C578.437 149.121 579.739 150.57 581.346 150.57Z" fill="#00D084"/>
<path d="M591.243 150.57C592.85 150.57 594.152 149.121 594.152 147.333C594.152 145.545 592.85 144.096 591.243 144.096C589.637 144.096 588.334 145.545 588.334 147.333C588.334 149.121 589.637 150.57 591.243 150.57Z" fill="#00D084"/>
<path d="M604.057 147.333C604.057 149.123 602.757 150.57 601.148 150.57C599.539 150.57 598.239 149.115 598.239 147.333C598.239 145.551 599.539 144.096 601.148 144.096C602.757 144.096 604.057 145.551 604.057 147.333Z" fill="#00D084"/>
<path d="M360.2 55.6954L294.135 104.466L302.826 119.046L368.891 70.275L360.2 55.6954Z" fill="#00D084"/>
<path d="M304.549 88.9221L297.96 87.4382L288.864 137.458L295.453 138.942L304.549 88.9221Z" fill="white"/>
<path d="M322.654 75.5524L316.065 74.0686L306.969 124.088L313.558 125.572L322.654 75.5524Z" fill="white"/>
<path d="M340.773 62.1842L334.184 60.7003L325.088 110.72L331.677 112.204L340.773 62.1842Z" fill="white"/>
<path d="M358.879 48.8063L352.289 47.3225L343.193 97.3423L349.783 98.8261L358.879 48.8063Z" fill="white"/>
<path d="M376.998 35.4381L370.409 33.9542L361.313 83.974L367.902 85.4578L376.998 35.4381Z" fill="white"/>
<path d="M303.674 117.741L376.539 91.5984L392.694 147.359C393.441 149.938 392.168 152.704 389.85 153.535L325.387 176.664C323.07 177.495 320.584 176.078 319.836 173.499L303.681 117.739L303.674 117.741Z" fill="#0C0C0C"/>
<path d="M377.844 91.1322L302.389 118.204L307.214 134.856L382.669 107.784L377.844 91.1322Z" fill="#00D084"/>
<path d="M316.19 106.374L310.207 102.962L289.294 148.381L295.277 151.792L316.19 106.374Z" fill="white"/>
<path d="M336.874 98.9445L330.891 95.533L309.978 140.952L315.961 144.363L336.874 98.9445Z" fill="white"/>
<path d="M357.561 91.5305L351.578 88.119L330.665 133.538L336.649 136.949L357.561 91.5305Z" fill="white"/>
<path d="M378.245 84.1094L372.262 80.6979L351.349 126.117L357.332 129.528L378.245 84.1094Z" fill="white"/>
<path d="M398.933 76.6874L392.95 73.2759L372.037 118.695L378.02 122.106L398.933 76.6874Z" fill="white"/>
<path d="M360.039 135.759C361.584 136.127 362.187 138.221 361.131 139.524L355.242 146.765L349.352 154.007C348.296 155.31 346.364 154.846 345.883 153.176L343.189 143.88L340.496 134.584C340.015 132.914 341.336 131.283 342.881 131.651L351.464 133.705L360.047 135.759H360.039Z" fill="#EDEDED"/>
<path d="M149.054 636.201H214.58V446.198H149.054V636.201ZM152.509 458.482V451.329H158.937V458.482H152.509ZM152.509 474.292V467.138H158.937V474.292H152.509ZM152.509 490.102V482.948H158.937V490.102H152.509ZM152.509 505.911V498.758H158.937V505.911H152.509ZM152.509 521.721V514.567H158.937V521.721H152.509ZM152.509 537.531V530.377H158.937V537.531H152.509ZM152.509 553.34V546.187H158.937V553.34H152.509ZM152.509 569.15V561.996H158.937V569.15H152.509ZM152.509 584.96V577.806H158.937V584.96H152.509ZM152.509 600.769V593.616H158.937V600.769H152.509ZM152.509 616.579V609.425H158.937V616.579H152.509ZM152.509 632.388V625.235H158.937V632.388H152.509ZM210.292 625.235V632.388H203.863V625.235H210.292ZM210.292 609.425V616.579H203.863V609.425H210.292ZM210.292 593.616V600.769H203.863V593.616H210.292ZM196.085 591.17C197.823 591.17 199.231 592.736 199.231 594.671V629.903C199.231 631.837 197.823 633.404 196.085 633.404H167.542C165.803 633.404 164.396 631.837 164.396 629.903V594.671C164.396 592.736 165.803 591.17 167.542 591.17H196.085ZM210.292 577.806V584.96H203.863V577.806H210.292ZM210.292 561.996V569.15H203.863V561.996H210.292ZM210.292 546.187V553.34H203.863V546.187H210.292ZM196.085 543.773C197.823 543.773 199.231 545.339 199.231 547.274V582.506C199.231 584.44 197.823 586.007 196.085 586.007H167.542C165.803 586.007 164.396 584.44 164.396 582.506V547.274C164.396 545.339 165.803 543.773 167.542 543.773H196.085ZM210.292 530.377V537.531H203.863V530.377H210.292ZM210.292 514.567V521.721H203.863V514.567H210.292ZM210.292 498.758V505.911H203.863V498.758H210.292ZM196.085 496.376C197.823 496.376 199.231 497.943 199.231 499.877V535.109C199.231 537.043 197.823 538.61 196.085 538.61H167.542C165.803 538.61 164.396 537.043 164.396 535.109V499.877C164.396 497.943 165.803 496.376 167.542 496.376H196.085ZM210.292 482.948V490.102H203.863V482.948H210.292ZM210.292 467.138V474.292H203.863V467.138H210.292ZM210.292 451.329V458.482H203.863V451.329H210.292ZM196.085 448.971C197.823 448.971 199.231 450.538 199.231 452.472V487.704C199.231 489.638 197.823 491.205 196.085 491.205H167.542C165.803 491.205 164.396 489.638 164.396 487.704V452.472C164.396 450.538 165.803 448.971 167.542 448.971H196.085Z" fill="#00D084"/>
<path d="M752.052 345.05H817.578V155.046H752.052V345.05ZM755.507 167.331V160.177H761.935V167.331H755.507ZM755.507 183.141V175.987H761.935V183.141H755.507ZM755.507 198.95V191.797H761.935V198.95H755.507ZM755.507 214.76V207.606H761.935V214.76H755.507ZM755.507 230.569V223.416H761.935V230.569H755.507ZM755.507 246.379V239.226H761.935V246.379H755.507ZM755.507 262.189V255.035H761.935V262.189H755.507ZM755.507 277.998V270.845H761.935V277.998H755.507ZM755.507 293.808V286.655H761.935V293.808H755.507ZM755.507 309.618V302.464H761.935V309.618H755.507ZM755.507 325.427V318.274H761.935V325.427H755.507ZM755.507 341.237V334.083H761.935V341.237H755.507ZM813.29 334.083V341.237H806.861V334.083H813.29ZM813.29 318.274V325.427H806.861V318.274H813.29ZM813.29 302.464V309.618H806.861V302.464H813.29ZM799.083 300.018C800.821 300.018 802.229 301.585 802.229 303.519V338.751C802.229 340.685 800.821 342.252 799.083 342.252H770.539C768.801 342.252 767.394 340.685 767.394 338.751V303.519C767.394 301.585 768.801 300.018 770.539 300.018H799.083ZM813.29 286.655V293.808H806.861V286.655H813.29ZM813.29 270.845V277.998H806.861V270.845H813.29ZM813.29 255.035V262.189H806.861V255.035H813.29ZM799.083 252.621C800.821 252.621 802.229 254.188 802.229 256.122V291.354C802.229 293.288 800.821 294.855 799.083 294.855H770.539C768.801 294.855 767.394 293.288 767.394 291.354V256.122C767.394 254.188 768.801 252.621 770.539 252.621H799.083ZM813.29 239.226V246.379H806.861V239.226H813.29ZM813.29 223.416V230.569H806.861V223.416H813.29ZM813.29 207.606V214.76H806.861V207.606H813.29ZM799.083 205.224C800.821 205.224 802.229 206.791 802.229 208.725V243.957C802.229 245.892 800.821 247.458 799.083 247.458H770.539C768.801 247.458 767.394 245.892 767.394 243.957V208.725C767.394 206.791 768.801 205.224 770.539 205.224H799.083ZM813.29 191.797V198.95H806.861V191.797H813.29ZM813.29 175.987V183.141H806.861V175.987H813.29ZM813.29 160.177V167.331H806.861V160.177H813.29ZM799.083 157.82C800.821 157.82 802.229 159.386 802.229 161.32V196.552C802.229 198.487 800.821 200.053 799.083 200.053H770.539C768.801 200.053 767.394 198.487 767.394 196.552V161.32C767.394 159.386 768.801 157.82 770.539 157.82H799.083Z" fill="#00D084"/>
<path d="M588.011 510.731H513.191V559.007H588.011V510.731Z" fill="#DCDBDB"/>
<path d="M723.128 268.927H368.888C365.417 268.927 362.604 272.058 362.604 275.92V506.743C362.604 510.605 365.417 513.736 368.888 513.736H723.128C726.599 513.736 729.413 510.605 729.413 506.743V275.92C729.413 272.058 726.599 268.927 723.128 268.927Z" fill="#DCDBDB"/>
<path d="M709.323 268.927H355.083C351.613 268.927 348.799 272.058 348.799 275.92V506.743C348.799 510.605 351.613 513.736 355.083 513.736H709.323C712.794 513.736 715.608 510.605 715.608 506.743V275.92C715.608 272.058 712.794 268.927 709.323 268.927Z" fill="#F4F4F5"/>
<path d="M705.409 500.164V282.49C705.409 280.34 703.843 278.598 701.911 278.598H362.489C360.557 278.598 358.991 280.34 358.991 282.49V500.164C358.991 502.314 360.557 504.057 362.489 504.057H701.911C703.843 504.057 705.409 502.314 705.409 500.164Z" fill="#00D084"/>
<path d="M705.409 500.164V282.49C705.409 280.34 703.843 278.598 701.911 278.598H362.489C360.557 278.598 358.991 280.34 358.991 282.49V500.164C358.991 502.314 360.557 504.057 362.489 504.057H701.911C703.843 504.057 705.409 502.314 705.409 500.164Z" stroke="#00D084" stroke-width="1.51" stroke-miterlimit="10"/>
<path d="M569.61 510.731H494.79V559.007H569.61V510.731Z" fill="#F2F2F3"/>
<path d="M617.179 581.994H489.841V559.007H596.522C607.928 559.007 617.179 569.302 617.179 581.994Z" fill="#DCDBDB"/>
<path d="M547.466 581.994H420.128C420.128 569.302 429.379 559.007 440.785 559.007H526.809C538.215 559.007 547.466 569.302 547.466 581.994Z" fill="#F4F4F5"/>
<path d="M589.62 211.515H309.022C301.835 211.515 296.008 217.999 296.008 225.997V399.784C296.008 407.782 301.835 414.267 309.022 414.267H589.62C596.808 414.267 602.635 407.782 602.635 399.784V225.997C602.635 217.999 596.808 211.515 589.62 211.515Z" fill="#00F299"/>
<path d="M609.81 242.511V409.447C609.81 417.136 604.215 423.362 597.305 423.362H327.769C320.859 423.362 315.264 417.136 315.264 409.447V242.511C315.264 234.822 320.859 228.595 327.769 228.595H597.313C604.222 228.595 609.817 234.822 609.817 242.511C609.817 242.511 609.817 234.822 609.817 242.511H609.81Z" stroke="#00D084" stroke-width="0.75" stroke-miterlimit="10"/>
<path d="M602.635 225.997V254.276H296.008V225.997C296.008 217.997 301.833 211.515 309.022 211.515H589.62C596.81 211.515 602.635 217.997 602.635 225.997Z" fill="#00D084"/>
<path d="M602.635 361.435H296.008V393.485H602.635V361.435Z" fill="#E0E4F0"/>
<path d="M602.635 323.253H296.008V355.304H602.635V323.253Z" fill="#E0E4F0"/>
<path d="M602.635 285.072H296.008V317.123H602.635V285.072Z" fill="#00F299"/>
<path d="M602.635 270.981H296.008V278.949H602.635V270.981Z" fill="#00D084"/>
<path d="M309.611 262.684H306.07V274.314H309.611V262.684Z" fill="#00D084"/>
<path d="M356.771 262.684H353.23V274.314H356.771V262.684Z" fill="#00D084"/>
<path d="M403.932 262.684H400.391V274.314H403.932V262.684Z" fill="#00D084"/>
<path d="M451.092 262.684H447.551V274.314H451.092V262.684Z" fill="#00D084"/>
<path d="M498.252 262.684H494.711V274.314H498.252V262.684Z" fill="#00D084"/>
<path d="M545.419 262.684H541.878V274.314H545.419V262.684Z" fill="#00D084"/>
<path d="M592.579 262.684H589.038V274.314H592.579V262.684Z" fill="#00D084"/>
<path d="M536.692 329.536H526.982L536.692 340.334V329.536Z" fill="#0C0C0C"/>
<path d="M546.396 329.536H536.692V340.334L546.396 329.536Z" fill="#00D084"/>
<path d="M536.692 349.03H526.982L536.692 338.232V349.03Z" fill="#0C0C0C"/>
<path d="M546.396 349.03H536.692V338.232L546.396 349.03Z" fill="#00D084"/>
<path d="M399.572 367.717H389.868L399.572 378.515V367.717Z" fill="#0C0C0C"/>
<path d="M409.282 367.717H399.572V378.515L409.282 367.717Z" fill="#00D084"/>
<path d="M399.572 387.211H389.868L399.572 376.413V387.211Z" fill="#0C0C0C"/>
<path d="M409.282 387.211H399.572V376.413L409.282 387.211Z" fill="#00D084"/>
<path d="M342.708 339.279L353.152 350.908V327.657L342.708 339.279Z" fill="#0C0C0C"/>
<path d="M353.152 327.657V350.908L363.602 339.279L353.152 327.657Z" fill="#00D084"/>
<path d="M430.306 339.279L440.749 350.908V327.657L430.306 339.279Z" fill="#0C0C0C"/>
<path d="M440.749 327.657V350.908L451.2 339.279L440.749 327.657Z" fill="#00D084"/>
<path d="M310.042 377.46L320.486 389.089V365.839L310.042 377.46Z" fill="#0C0C0C" stroke="#00D084" stroke-miterlimit="10"/>
<path d="M320.485 365.839V389.089L330.936 377.46L320.485 365.839Z" fill="#00D084" stroke="#00D084" stroke-miterlimit="10"/>
<path d="M475.519 377.46L485.963 389.089V365.839L475.519 377.46Z" fill="#0C0C0C"/>
<path d="M485.963 365.839V389.089L496.406 377.46L485.963 365.839Z" fill="#00D084"/>
<path d="M566.392 377.46L576.835 389.089V365.839L566.392 377.46Z" fill="#0C0C0C"/>
<path d="M576.835 365.839V389.089L587.279 377.46L576.835 365.839Z" fill="#00D084"/>
<path d="M602.635 290.963H296.008V311.232H602.635V290.963Z" fill="#E0E4F0"/>
<path d="M430.306 290.963H296.008V311.232H430.306V290.963Z" fill="#00D084"/>
<path d="M433.811 284.952C433.811 282.794 432.238 281.052 430.306 281.052C428.374 281.052 426.801 282.802 426.801 284.952C426.801 286.846 428.022 288.429 429.63 288.781V311.232H430.981V288.781C432.597 288.429 433.811 286.854 433.811 284.952Z" fill="white"/>
<path d="M657.916 227.046C671.207 221.947 678.267 205.825 673.685 191.035C669.104 176.245 654.615 168.388 641.325 173.486C628.034 178.585 620.974 194.708 625.555 209.498C630.137 224.288 644.625 232.144 657.916 227.046Z" stroke="#00F299" stroke-miterlimit="10"/>
<path d="M645.026 225.926C659.084 225.926 670.481 213.243 670.481 197.599C670.481 181.955 659.084 169.273 645.026 169.273C630.968 169.273 619.571 181.955 619.571 197.599C619.571 213.243 630.968 225.926 645.026 225.926Z" fill="#00D084"/>
<path d="M657.674 195.082C659.413 196.201 659.413 198.99 657.674 200.109L648.007 206.319L638.339 212.53C636.601 213.649 634.425 212.25 634.425 210.02V185.179C634.425 182.949 636.601 181.55 638.339 182.669L648.007 188.879L657.674 195.09V195.082Z" fill="white"/>
<path d="M324.693 518.725C328.127 502.423 319.034 486.111 304.385 482.291C289.736 478.47 275.078 488.588 271.645 504.89C268.211 521.191 277.304 537.504 291.953 541.324C306.602 545.145 321.26 535.027 324.693 518.725Z" stroke="#00F299" stroke-width="2" stroke-miterlimit="10"/>
<path d="M320.339 514.626C323.818 498.337 314.772 481.993 300.134 478.121C285.496 474.249 270.809 484.316 267.33 500.606C263.85 516.895 272.897 533.239 287.535 537.111C302.173 540.982 316.86 530.916 320.339 514.626Z" fill="#00F299"/>
<path d="M285.241 489.798C287.331 489.798 289.033 491.684 289.033 494.018V521.281C289.033 523.607 287.338 525.502 285.241 525.502C283.151 525.502 281.449 523.615 281.449 521.281V494.018C281.449 491.692 283.144 489.798 285.241 489.798Z" fill="white" stroke="#00D084" stroke-miterlimit="10"/>
<path d="M302.443 489.798C304.533 489.798 306.236 491.684 306.236 494.018V521.281C306.236 523.607 304.541 525.502 302.443 525.502C300.353 525.502 298.651 523.615 298.651 521.281V494.018C298.651 491.692 300.346 489.798 302.443 489.798Z" fill="white" stroke="#00D084" stroke-miterlimit="10"/>
<path d="M287.072 581.994H263.808V668.683H287.072V581.994Z" fill="#00D084"/>
<path d="M904.227 581.994H658.945V607.083H904.227V581.994Z" fill="#00D084"/>
<path d="M738.57 581.994H249.436V607.083H738.57V581.994Z" fill="#00F299"/>
<path d="M272.7 581.994H249.436V668.683H272.7V581.994Z" fill="#00F299"/>
<path d="M752.052 581.994H728.788V668.683H752.052V581.994Z" fill="#00D084"/>
<path d="M737.68 581.994H714.416V668.683H737.68V581.994Z" fill="#00F299"/>
<path d="M662.357 562.868H651.404C641.909 562.868 636.953 571.428 636.953 581.994H679.545C679.545 571.428 671.852 562.868 662.357 562.868Z" fill="#B7BBC4"/>
<path d="M650.089 562.868H646.505C637.01 562.868 629.318 571.428 629.318 581.994H667.277C667.277 571.428 659.585 562.868 650.089 562.868Z" fill="#E0E4F0"/>
<path d="M648.761 562.868H647.827V581.994H648.761V562.868Z" fill="#8A8D94"/>
<path d="M806.438 436.638H670.703C667.744 436.638 665.345 439.308 665.345 442.601V538.618C665.345 541.911 667.744 544.58 670.703 544.58H806.438C809.397 544.58 811.796 541.911 811.796 538.618V442.601C811.796 439.308 809.397 436.638 806.438 436.638Z" fill="#0C0C0C"/>
<path d="M786.52 456.452H680.687C678.151 456.452 676.097 454.166 676.097 451.345C676.097 448.523 678.151 446.238 680.687 446.238H786.52C789.056 446.238 791.11 448.523 791.11 451.345C791.11 454.166 789.056 456.452 786.52 456.452Z" fill="white"/>
<path d="M745.516 475.922H680.687C678.151 475.922 676.097 473.637 676.097 470.815C676.097 467.994 678.151 465.708 680.687 465.708H745.516C748.051 465.708 750.105 467.994 750.105 470.815C750.105 473.637 748.051 475.922 745.516 475.922Z" fill="white"/>
<path d="M767.882 495.385H680.687C678.151 495.385 676.097 493.099 676.097 490.278C676.097 487.456 678.151 485.17 680.687 485.17H767.882C770.417 485.17 772.471 487.456 772.471 490.278C772.471 493.099 770.417 495.385 767.882 495.385Z" fill="white"/>
<path d="M709.826 514.847H680.687C678.151 514.847 676.097 512.561 676.097 509.74C676.097 506.919 678.151 504.633 680.687 504.633H709.826C712.361 504.633 714.415 506.919 714.415 509.74C714.415 512.561 712.361 514.847 709.826 514.847Z" fill="white"/>
<path d="M741.788 534.31H680.687C678.151 534.31 676.097 532.024 676.097 529.202C676.097 526.381 678.151 524.095 680.687 524.095H741.788C744.323 524.095 746.377 526.381 746.377 529.202C746.377 532.024 744.323 534.31 741.788 534.31Z" fill="white"/>
<path d="M652.007 403.612L649.953 395.084L647.389 384.43C647.015 382.887 648.287 381.472 649.673 381.888L659.247 384.741L666.911 387.027C668.606 387.531 668.793 390.12 667.198 390.928L661.962 393.573L668.319 400.647C669.446 401.902 669.446 403.932 668.319 405.187C667.191 406.442 665.367 406.442 664.239 405.187L657.882 398.113L655.505 403.94C654.78 405.714 652.452 405.499 652 403.62L652.007 403.612Z" fill="white"/>
<path d="M516.38 141.506H447.795C439.406 141.506 432.604 149.075 432.604 158.411C432.604 161.576 433.401 164.525 434.759 167.051L430.758 180.846C429.846 183.996 432.941 186.713 435.477 184.987L449.727 175.316H516.38C524.769 175.316 531.571 167.746 531.571 158.411C531.571 149.075 524.769 141.506 516.38 141.506Z" fill="#00F299"/>
<path d="M449.813 165.844C453.609 165.844 456.687 162.42 456.687 158.195C456.687 153.971 453.609 150.546 449.813 150.546C446.017 150.546 442.939 153.971 442.939 158.195C442.939 162.42 446.017 165.844 449.813 165.844Z" fill="white"/>
<path d="M471.08 165.844C474.877 165.844 477.954 162.42 477.954 158.195C477.954 153.971 474.877 150.546 471.08 150.546C467.284 150.546 464.207 153.971 464.207 158.195C464.207 162.42 467.284 165.844 471.08 165.844Z" fill="white"/>
<path d="M499.221 158.195C499.221 162.415 496.147 165.844 492.348 165.844C488.548 165.844 485.474 162.423 485.474 158.195C485.474 153.967 488.548 150.546 492.348 150.546C496.147 150.546 499.221 153.967 499.221 158.195Z" fill="white"/>
<path d="M513.615 165.844C517.411 165.844 520.489 162.42 520.489 158.195C520.489 153.971 517.411 150.546 513.615 150.546C509.819 150.546 506.741 153.971 506.741 158.195C506.741 162.42 509.819 165.844 513.615 165.844Z" fill="white"/>
<path d="M190.648 371.481H259.233C267.623 371.481 274.424 379.051 274.424 388.386C274.424 391.551 273.627 394.501 272.27 397.026L276.27 410.822C277.182 413.971 274.087 416.688 271.551 414.962L257.301 405.291H190.648C182.259 405.291 175.457 397.722 175.457 388.386C175.457 379.051 182.259 371.481 190.648 371.481Z" fill="#00F299"/>
<path d="M250.342 388.17C250.342 392.39 253.416 395.819 257.215 395.819C261.015 395.819 264.089 392.398 264.089 388.17C264.089 383.942 261.015 380.521 257.215 380.521C253.416 380.521 250.342 383.942 250.342 388.17Z" fill="white"/>
<path d="M229.074 388.17C229.074 392.39 232.148 395.819 235.948 395.819C239.747 395.819 242.821 392.398 242.821 388.17C242.821 383.942 239.747 380.521 235.948 380.521C232.148 380.521 229.074 383.942 229.074 388.17Z" fill="white"/>
<path d="M207.807 388.17C207.807 392.39 210.881 395.819 214.681 395.819C218.48 395.819 221.554 392.398 221.554 388.17C221.554 383.942 218.48 380.521 214.681 380.521C210.881 380.521 207.807 383.942 207.807 388.17Z" fill="white"/>
<path d="M186.54 388.17C186.54 392.39 189.614 395.819 193.413 395.819C197.213 395.819 200.287 392.398 200.287 388.17C200.287 383.942 197.213 380.521 193.413 380.521C189.614 380.521 186.54 383.942 186.54 388.17Z" fill="white"/>
</g>
<path fill-rule="evenodd" clip-rule="evenodd" d="M521.458 127.812L526.121 131.798L530.673 135.784L535.117 139.763L539.454 143.729L543.687 147.676L547.82 151.6L551.855 155.496L555.796 159.36L559.647 163.189L563.41 166.98L567.09 170.73L570.691 174.437L574.215 178.099L577.666 181.715L581.048 185.286L584.365 188.809L587.618 192.286L590.812 195.716L593.95 199.101L597.034 202.439L600.068 205.732L603.054 208.98L605.996 212.183L608.898 215.341L611.763 218.454L614.595 221.522L617.398 224.542L620.178 227.513L622.941 230.434L625.693 233.302L628.44 236.114L631.191 238.869L633.952 241.564L636.73 244.199L639.533 246.772L642.368 249.284L645.241 251.734L648.16 254.123L651.132 256.451L654.163 258.72L657.26 260.931L660.429 263.087L663.676 265.19L667.007 267.242L670.427 269.248L673.941 271.21L677.553 273.133L681.268 275.02L685.089 276.876L689.019 278.707L693.061 280.516L697.216 282.309L701.486 284.092L705.873 285.87L710.375 287.649L714.992 289.435L719.724 291.234L724.569 293.051L729.525 294.894L734.588 296.767L739.756 298.676L745.024 300.628L750.387 302.628L755.841 304.682L761.379 306.795L766.996 308.973L772.684 311.22L778.437 313.54L784.247 315.94L790.106 318.422L796.005 320.991L801.936 323.649L807.891 326.402L813.86 329.25L819.833 332.196L825.802 335.244L831.758 338.393L837.69 341.646L843.59 345.004L849.448 348.467L855.255 352.035L861.001 355.709L866.678 359.487L872.277 363.369L877.788 367.353L883.205 371.439L888.518 375.624L893.722 379.907L898.81 384.284L903.776 388.753L908.615 393.312L913.321 397.958L917.891 402.687L922.319 407.496L926.601 412.383L930.733 417.343L934.708 422.373L938.524 427.47L942.173 432.629L945.65 437.848L948.949 443.12L952.063 448.443L954.983 453.81L957.7 459.218L960.205 464.66L962.488 470.13L964.539 475.622L966.349 481.129L967.91 486.645L969.215 492.161L970.257 497.672L971.032 503.169L971.535 508.646L971.764 514.095L971.715 519.509L971.388 524.88L970.783 530.202L969.902 535.468L968.748 540.673L967.325 545.809L965.637 550.872L963.691 555.856L961.494 560.758L959.055 565.572L956.382 570.297L953.487 574.928L950.38 579.465L947.074 583.906L943.58 588.25L939.913 592.498L936.086 596.65L932.113 600.708L928.008 604.675L923.786 608.553L919.462 612.346L915.05 616.058L910.564 619.695L906.019 623.261L901.427 626.762L896.802 630.205L892.156 633.596L887.501 636.942L882.847 640.249L878.205 643.526L873.582 646.779L868.988 650.014L864.428 653.24L859.908 656.462L855.432 659.687L851.003 662.92L846.623 666.168L842.293 669.433L838.012 672.722L833.778 676.036L829.587 679.379L825.437 682.752L821.321 686.156L817.234 689.59L813.168 693.053L809.116 696.544L805.069 700.058L801.017 703.591L796.949 707.136L792.853 710.684L788.714 714.224L784.52 717.745L780.257 721.232L775.911 724.671L771.47 728.047L766.919 731.342L762.249 734.54L757.448 737.623L752.507 740.572L747.419 743.372L742.177 746.003L736.778 748.45L731.218 750.697L725.498 752.73L719.619 754.535L713.585 756.101L707.401 757.42L701.074 758.481L694.612 759.279L688.023 759.807L681.317 760.059L674.506 760.033L667.6 759.727L660.612 759.138L653.556 758.269L646.445 757.12L639.292 755.696L632.112 754.002L624.919 752.044L617.729 749.83L610.555 747.37L603.411 744.674L596.313 741.754L589.273 738.624L582.304 735.298L575.418 731.792L568.628 728.122L561.944 724.304L555.375 720.359L548.931 716.303L542.618 712.156L536.444 707.938L530.413 703.669L524.53 699.368L518.796 695.056L513.214 690.751L507.783 686.474L502.502 682.244L497.369 678.078L492.379 673.995L487.528 670.012L482.809 666.144L478.215 662.407L473.738 658.814L469.368 655.378L465.095 652.11L460.909 649.019L456.798 646.114L452.75 643.403L448.753 640.889L444.794 638.576L440.861 636.468L436.94 634.563L433.02 632.861L429.088 631.359L425.133 630.053L421.142 628.936L417.105 628.002L413.013 627.241L408.856 626.644L404.626 626.199L400.315 625.895L395.919 625.718L391.431 625.655L386.846 625.695L382.16 625.826L377.371 626.034L372.475 626.308L367.471 626.637L362.358 627.007L357.134 627.408L351.801 627.829L346.359 628.258L340.809 628.684L335.154 629.098L329.396 629.489L323.538 629.847L317.583 630.165L311.535 630.435L305.396 630.648L299.171 630.798L292.863 630.881L286.474 630.89L280.009 630.82L273.473 630.666L266.869 630.422L260.204 630.084L253.484 629.647L246.714 629.104L239.902 628.453L233.054 627.687L226.178 626.803L219.283 625.796L212.376 624.662L205.467 623.399L198.564 622.001L191.677 620.467L184.815 618.793L177.988 616.978L171.207 615.019L164.481 612.916L157.821 610.666L151.236 608.27L144.738 605.727L138.336 603.037L132.04 600.202L125.861 597.222L119.808 594.098L113.891 590.834L108.119 587.431L102.501 583.893L97.0464 580.222L91.7624 576.422L86.6573 572.498L81.7385 568.454L77.0127 564.295L72.4863 560.025L68.1653 555.65L64.055 551.176L60.16 546.609L56.4845 541.953L53.0321 537.217L49.8057 532.405L46.8076 527.525L44.0396 522.583L41.5027 517.585L39.1973 512.539L37.1233 507.45L35.2798 502.326L33.6657 497.173L32.2788 491.996L31.1166 486.804L30.1761 481.601L29.4536 476.394L28.945 471.189L28.6456 465.991L28.5503 460.807L28.6536 455.64L28.9503 450.495L29.4351 445.379L30.103 440.294L30.9489 435.244L31.9681 430.235L33.1557 425.269L34.507 420.349L36.0172 415.48L37.6817 410.663L39.4956 405.902L41.4542 401.2L43.5524 396.558L45.7852 391.979L48.1474 387.466L50.6336 383.02L53.2381 378.642L55.955 374.334L58.7784 370.098L61.7018 365.934L64.7187 361.843L67.8228 357.826L71.0073 353.882L74.2657 350.012L77.5912 346.216L80.9773 342.492L84.417 338.841L87.9035 335.261L91.4299 331.751L94.9892 328.31L98.5744 324.935L102.178 321.625L105.794 318.378L109.415 315.19L113.032 312.059L116.641 308.982L120.232 305.955L123.801 302.974L127.338 300.036L130.839 297.136L134.295 294.269L137.702 291.432L141.052 288.618L144.339 285.823L147.559 283.041L150.704 280.266L153.772 277.493L156.757 274.716L159.654 271.929L162.461 269.126L165.174 266.301L167.791 263.447L170.31 260.558L172.729 257.63L175.048 254.655L177.267 251.627L179.386 248.543L181.407 245.395L183.331 242.18L185.162 238.892L186.903 235.527L188.559 232.082L190.134 228.553L191.634 224.937L193.065 221.232L194.436 217.437L195.752 213.55L197.024 209.57L198.26 205.499L199.469 201.337L200.662 197.086L201.848 192.749L203.04 188.329L204.248 183.831L205.483 179.259L206.758 174.618L208.084 169.917L209.473 165.163L210.938 160.363L212.49 155.528L214.142 150.667L215.905 145.791L217.79 140.912L219.807 136.041L221.967 131.191L224.279 126.375L226.752 121.605L229.394 116.896L232.21 112.259L235.209 107.71L238.393 103.261L241.767 98.9255L245.334 94.7165L249.095 90.6466L253.052 86.7278L257.203 82.9717L261.546 79.3894L266.08 75.991L270.8 72.7867L275.702 69.7855L280.781 66.9958L286.03 64.4254L291.443 62.0812L297.011 59.9692L302.726 58.0947L308.58 56.462L314.562 55.0746L320.663 53.9349L326.871 53.0448L333.177 52.4049L339.568 52.015L346.033 51.8742L352.562 51.9805L359.142 52.3311L365.761 52.9225L372.409 53.7503L379.073 54.8093L385.743 56.0939L392.407 57.5973L399.055 59.3127L405.678 61.2321L412.263 63.3473L418.804 65.6497L425.29 68.1301L431.713 70.779L438.065 73.5864L444.34 76.5425L450.53 79.6369L456.63 82.8591L462.634 86.199L468.537 89.6459L474.336 93.1895L480.027 96.8195L485.607 100.526L491.075 104.299L496.428 108.128L501.665 112.005L506.786 115.92L511.792 119.865L516.682 123.832L521.458 127.812Z" fill="#00D084" fill-opacity="0.3"/>
<defs>
<filter id="filter0_d_162_1458" x="52.4783" y="33.9542" width="855.748" height="719.865" filterUnits="userSpaceOnUse" color-interpolation-filters="sRGB">
<feFlood flood-opacity="0" result="BackgroundImageFix"/>
<feColorMatrix in="SourceAlpha" type="matrix" values="0 0 0 0 0 0 0 0 0 0 0 0 0 0 0 0 0 0 127 0" result="hardAlpha"/>
<feOffset dy="4"/>
<feGaussianBlur stdDeviation="2"/>
<feComposite in2="hardAlpha" operator="out"/>
<feColorMatrix type="matrix" values="0 0 0 0 0 0 0 0 0 0 0 0 0 0 0 0 0 0 0.25 0"/>
<feBlend mode="normal" in2="BackgroundImageFix" result="effect1_dropShadow_162_1458"/>
<feBlend mode="normal" in="SourceGraphic" in2="effect1_dropShadow_162_1458" result="shape"/>
</filter>
</defs>
</svg>
