<svg width="500" height="480" viewBox="0 0 500 480" fill="none" xmlns="http://www.w3.org/2000/svg">
<path d="M257.52 240.077H39.1045V11.4961H257.52V240.077ZM43.6622 235.465H252.962V16.1078H43.6622V235.465Z" fill="#EBEBEB"/>
<path d="M148.819 17.3066H144.262V237.759H148.819V17.3066Z" fill="#EBEBEB"/>
<path d="M261.656 20.8223H34.9688V27.2441H261.656V20.8223Z" fill="#EBEBEB"/>
<path d="M261.656 28.0391H34.9688V34.4609H261.656V28.0391Z" fill="#EBEBEB"/>
<path d="M261.656 35.2695H34.9688V41.6914H261.656V35.2695Z" fill="#EBEBEB"/>
<path d="M261.656 42.4863H34.9688V48.9082H261.656V42.4863Z" fill="#EBEBEB"/>
<path d="M261.656 49.7148H34.9688V56.1367H261.656V49.7148Z" fill="#EBEBEB"/>
<path d="M261.656 56.9434H34.9688V63.3652H261.656V56.9434Z" fill="#EBEBEB"/>
<path d="M261.656 64.1602H34.9688V70.582H261.656V64.1602Z" fill="#EBEBEB"/>
<path d="M261.656 71.3906H34.9688V77.8125H261.656V71.3906Z" fill="#EBEBEB"/>
<path d="M261.656 78.6191H34.9688V85.041H261.656V78.6191Z" fill="#EBEBEB"/>
<path d="M248.12 19.5195H246.98V167.545H248.12V19.5195Z" fill="#263238"/>
<path d="M249.578 172.905H245.533L246.547 167.025H248.564L249.578 172.905Z" fill="#263238"/>
<path d="M252.233 19.5195H251.094V233.654H252.233V19.5195Z" fill="#263238"/>
<path d="M253.68 237.978H249.635L250.649 232.098H252.666L253.68 237.978Z" fill="#263238"/>
<path d="M268.732 10.5957H27.9043V24.0274H268.732V10.5957Z" fill="#DBDBDB"/>
<path d="M390.137 41.9103C390.137 40.9418 390.262 38.3823 390.262 37.2986C390.262 32.6061 388.621 30.4847 384.303 30.381C382.263 30.2542 381.056 29.032 381.056 27.2911C381.056 25.5502 382.263 24.3396 384.303 24.2128C388.621 24.0168 390.262 21.9069 390.262 17.2029C390.262 16.05 390.137 13.5366 390.137 12.5912C390.137 6.35384 392.746 2.36469 402.591 0.185643C403.266 0.00944806 403.982 0.0999201 404.594 0.438692C405.206 0.777464 405.668 1.33914 405.885 2.00971C406.103 2.68027 406.06 3.40947 405.766 4.04925C405.471 4.68904 404.947 5.19147 404.3 5.45455C398.147 7.37995 397.258 9.37452 397.258 13.7441C397.258 15.0354 397.384 17.2029 397.384 18.5058C397.384 23.5095 394.968 25.9537 390.775 27.3026C395.036 28.7208 397.384 31.0958 397.384 36.1111C397.384 37.46 397.258 39.5699 397.258 40.8611C397.258 45.2308 398.147 47.2253 404.3 49.1507C404.981 49.3888 405.542 49.8883 405.863 50.5414C406.183 51.1945 406.237 51.9489 406.013 52.6419C405.789 53.3348 405.304 53.9108 404.664 54.2456C404.024 54.5803 403.279 54.647 402.591 54.4312C392.746 52.1945 390.137 48.2053 390.137 41.9103Z" fill="#EBEBEB"/>
<path d="M427.362 12.5443C427.362 13.5012 427.236 16.0723 427.236 17.156C427.236 21.9176 428.945 23.9699 433.264 24.1659C433.68 24.1401 434.096 24.2008 434.488 24.3441C434.88 24.4875 435.239 24.7105 435.543 24.9994C435.846 25.2883 436.088 25.637 436.253 26.0241C436.419 26.4111 436.504 26.8283 436.504 27.25C436.504 27.6716 436.419 28.0888 436.253 28.4759C436.088 28.8629 435.846 29.2116 435.543 29.5005C435.239 29.7895 434.88 30.0124 434.488 30.1558C434.096 30.2991 433.68 30.3598 433.264 30.3341C428.945 30.4609 427.236 32.5823 427.236 37.2517C427.236 38.4046 427.362 40.9065 427.362 41.8634C427.362 48.1584 424.752 52.1476 414.908 54.3381C414.216 54.5598 413.465 54.4943 412.821 54.1559C412.176 53.8175 411.691 53.234 411.472 52.5338C411.253 51.8336 411.318 51.074 411.652 50.4221C411.987 49.7702 412.564 49.2794 413.256 49.0577C419.351 47.1323 420.24 45.1377 420.24 40.7681C420.24 39.4884 420.115 37.3093 420.115 36.018C420.115 31.0028 422.53 28.5585 426.723 27.2096C422.462 25.803 420.115 23.4165 420.115 18.4127C420.115 17.0638 420.24 14.9539 420.24 13.6511C420.24 9.28149 419.351 7.28691 413.256 5.36152C412.597 5.11436 412.057 4.62009 411.749 3.98122C411.441 3.34234 411.387 2.6079 411.6 1.93022C411.812 1.25253 412.274 0.683618 412.89 0.341475C413.506 -0.000668819 414.229 -0.0897855 414.908 0.0926085C424.752 2.34083 427.362 6.30692 427.362 12.5443Z" fill="#EBEBEB"/>
<path d="M426.097 236.928C426.46 237.308 426.706 237.787 426.805 238.306C426.903 238.825 426.85 239.362 426.652 239.851C426.454 240.341 426.119 240.761 425.688 241.061C425.258 241.36 424.75 241.527 424.228 241.539C423.498 241.546 422.792 241.27 422.257 240.767L410.27 228.454C410.145 228.454 410.099 228.327 410.054 228.2C410.018 228.162 409.975 228.131 409.928 228.108C409.87 227.999 409.828 227.883 409.803 227.762C409.769 227.746 409.74 227.722 409.718 227.692C409.696 227.662 409.682 227.626 409.678 227.589C409.678 227.508 409.678 227.381 409.587 227.335C409.495 227.289 409.507 227.162 409.507 227.116V226.816C409.507 226.736 409.507 226.69 409.507 226.563C409.507 226.436 409.507 226.39 409.507 226.344V226.044C409.507 225.952 409.587 225.906 409.587 225.871C409.587 225.836 409.587 225.652 409.678 225.525C409.769 225.398 409.678 225.525 409.678 225.433C409.736 225.301 409.805 225.174 409.883 225.052C409.883 225.028 409.892 225.004 409.91 224.987C409.927 224.97 409.95 224.96 409.974 224.96C410.029 224.839 410.116 224.736 410.225 224.66L422.211 212.359C422.729 211.859 423.416 211.58 424.131 211.58C424.846 211.58 425.534 211.859 426.051 212.359C426.305 212.613 426.507 212.915 426.644 213.249C426.782 213.582 426.853 213.94 426.853 214.301C426.853 214.663 426.782 215.02 426.644 215.354C426.507 215.687 426.305 215.99 426.051 216.244L415.945 226.62L426.097 236.928Z" fill="#EBEBEB"/>
<path d="M436.978 238.301L447.438 213.132C447.561 212.843 447.739 212.581 447.962 212.362C448.185 212.143 448.448 211.971 448.737 211.855C449.027 211.739 449.335 211.682 449.646 211.688C449.957 211.693 450.264 211.761 450.549 211.887C450.828 212.006 451.082 212.18 451.294 212.4C451.506 212.62 451.673 212.88 451.784 213.166C451.896 213.451 451.95 213.757 451.943 214.064C451.936 214.371 451.869 214.673 451.745 214.954L441.285 240.157C441.101 240.585 440.797 240.949 440.41 241.204C440.023 241.458 439.57 241.591 439.109 241.586C438.819 241.59 438.531 241.531 438.266 241.413C437.972 241.304 437.704 241.134 437.478 240.915C437.252 240.696 437.073 240.432 436.953 240.14C436.832 239.848 436.772 239.534 436.776 239.218C436.781 238.901 436.849 238.589 436.978 238.301Z" fill="#EBEBEB"/>
<path d="M500 124.932C500 127.226 499.143 129.436 497.6 131.116C496.057 132.797 493.943 133.825 491.682 133.994H440.841C438.128 133.994 435.519 132.937 433.556 131.041C431.593 129.145 430.428 126.557 430.301 123.814C430.175 121.072 431.098 118.385 432.879 116.313C434.659 114.241 437.16 112.943 439.861 112.688C439.997 108.519 441.56 104.526 444.285 101.395C447.009 98.2635 450.724 96.1877 454.794 95.5229C458.864 94.858 463.036 95.6455 466.596 97.7506C470.155 99.8556 472.881 103.147 474.306 107.062C475.767 106.307 477.383 105.912 479.023 105.909C481.71 105.909 484.295 106.946 486.253 108.807C488.211 110.668 489.395 113.215 489.563 115.928C490.045 115.848 490.533 115.809 491.021 115.813C492.204 115.811 493.375 116.046 494.467 116.504C495.559 116.963 496.551 117.635 497.386 118.482C498.22 119.33 498.881 120.336 499.329 121.443C499.778 122.55 500.006 123.736 500 124.932Z" fill="#DBDBDB"/>
<path d="M40.666 425.192L92.8742 424.903L145.082 424.811L249.487 424.615L353.892 424.811L406.101 424.903L458.309 425.192L406.101 425.468L353.892 425.572L249.487 425.768L145.082 425.572L92.8742 425.468L40.666 425.192Z" fill="#263238"/>
<path d="M62.7137 479.678C90.5784 479.678 113.167 475.29 113.167 469.878C113.167 464.466 90.5784 460.078 62.7137 460.078C34.8491 460.078 12.2603 464.466 12.2603 469.878C12.2603 475.29 34.8491 479.678 62.7137 479.678Z" fill="#EBEBEB"/>
<path d="M265.405 475.321C375.165 475.321 464.143 465.56 464.143 453.519C464.143 441.478 375.165 431.717 265.405 431.717C155.645 431.717 66.6675 441.478 66.6675 453.519C66.6675 465.56 155.645 475.321 265.405 475.321Z" fill="#EBEBEB"/>
<path d="M374.356 11.0918H284.217V69.2804H374.356V11.0918Z" fill="white"/>
<path d="M374.926 69.8571H283.67V10.5156H374.949L374.926 69.8571ZM284.787 68.7042H373.787V11.6686H284.809L284.787 68.7042Z" fill="#EBEBEB"/>
<path d="M374.356 11.0918H284.217V22.0908H374.356V11.0918Z" fill="#E35454"/>
<path d="M374.926 22.6791H283.67V10.5156H374.949L374.926 22.6791ZM284.787 21.5261H373.787V11.6686H284.809L284.787 21.5261Z" fill="#EBEBEB"/>
<path d="M294.414 16.6729C294.408 17.2172 294.242 17.7474 293.939 18.1971C293.636 18.6468 293.209 18.996 292.71 19.2012C292.212 19.4063 291.665 19.4582 291.138 19.3503C290.611 19.2424 290.127 18.9796 289.746 18.5947C289.366 18.2098 289.106 17.72 289 17.1865C288.893 16.653 288.944 16.0995 289.147 15.5953C289.35 15.0912 289.695 14.6587 290.139 14.352C290.584 14.0454 291.108 13.8782 291.646 13.8713C292.01 13.8667 292.372 13.936 292.71 14.0751C293.048 14.2143 293.356 14.4205 293.614 14.6815C293.872 14.9426 294.075 15.2533 294.213 15.5953C294.35 15.9373 294.419 16.3037 294.414 16.6729Z" fill="#A6A6A6"/>
<path d="M305.592 16.6733C305.592 17.2206 305.432 17.7555 305.131 18.2106C304.831 18.6656 304.404 19.0203 303.904 19.2297C303.404 19.4391 302.855 19.4939 302.324 19.3872C301.794 19.2804 301.306 19.0169 300.924 18.6299C300.542 18.2429 300.281 17.7499 300.176 17.2131C300.07 16.6764 300.124 16.12 300.331 15.6144C300.538 15.1088 300.889 14.6766 301.338 14.3726C301.788 14.0685 302.317 13.9062 302.858 13.9062C303.583 13.9063 304.278 14.1978 304.791 14.7167C305.304 15.2356 305.592 15.9394 305.592 16.6733Z" fill="#EBEBEB"/>
<path d="M316.77 16.6733C316.77 17.2206 316.61 17.7555 316.309 18.2106C316.009 18.6656 315.582 19.0203 315.082 19.2297C314.582 19.4391 314.032 19.4939 313.502 19.3872C312.971 19.2804 312.484 19.0169 312.102 18.6299C311.719 18.2429 311.459 17.7499 311.353 17.2131C311.248 16.6764 311.302 16.12 311.509 15.6144C311.716 15.1088 312.066 14.6766 312.516 14.3726C312.966 14.0685 313.495 13.9062 314.035 13.9062C314.761 13.9063 315.456 14.1978 315.969 14.7167C316.482 15.2356 316.77 15.9394 316.77 16.6733Z" fill="white"/>
<path d="M299.77 43.8461C299.823 40.9009 301.017 38.0947 303.095 36.0312C305.173 33.9678 307.968 32.812 310.879 32.8125C313.402 32.8087 315.854 33.6522 317.852 35.2106C318.198 35.5071 318.421 35.9246 318.475 36.3798C318.53 36.835 318.414 37.2945 318.148 37.6664C317.865 38.0256 317.457 38.2607 317.007 38.323C316.557 38.3852 316.101 38.2698 315.733 38.0007C314.349 36.8761 312.619 36.2802 310.845 36.3174C308.819 36.3249 306.871 37.1122 305.398 38.5195C304.004 39.9334 303.222 41.849 303.222 43.8461C303.221 44.8383 303.415 45.8207 303.795 46.7354C304.175 47.6502 304.731 48.4789 305.432 49.1726C306.904 50.5842 308.851 51.3757 310.879 51.3863C312.653 51.4134 314.382 50.8141 315.767 49.6915C316.142 49.4394 316.594 49.3354 317.04 49.3992C317.485 49.463 317.892 49.6901 318.183 50.0373C318.446 50.4124 318.559 50.8752 318.498 51.3314C318.436 51.7876 318.206 52.2031 317.852 52.4931C315.847 54.0635 313.38 54.908 310.845 54.8912C307.936 54.8885 305.144 53.729 303.072 51.6628C301.001 49.5966 299.814 46.7892 299.77 43.8461Z" fill="#EBEBEB"/>
<path d="M323.39 49.6124C323.658 49.2915 324.04 49.09 324.453 49.0511C324.867 49.0123 325.279 49.1393 325.6 49.4048C327.235 50.7827 329.264 51.5912 331.389 51.7107C332.737 51.7287 334.057 51.3261 335.171 50.5578C335.55 50.3237 335.866 49.9997 336.092 49.6139C336.318 49.2281 336.448 48.7922 336.47 48.3441C336.48 47.9985 336.389 47.6578 336.208 47.3641C335.977 46.9944 335.665 46.683 335.297 46.4533C334.015 45.7132 332.609 45.2206 331.149 45.0006H331.081C329.736 44.7826 328.423 44.3952 327.173 43.8477C326.029 43.3399 325.052 42.5118 324.358 41.4611C323.896 40.7067 323.655 39.8352 323.663 38.9477C323.691 38.0613 323.925 37.194 324.347 36.4166C324.769 35.6392 325.366 34.9737 326.09 34.4743C327.625 33.3886 329.459 32.8198 331.332 32.8487C333.724 32.9728 336.023 33.8247 337.929 35.2929C338.268 35.527 338.503 35.8869 338.582 36.2948C338.661 36.7027 338.578 37.1257 338.35 37.472C338.243 37.6481 338.101 37.8004 337.934 37.9196C337.766 38.0388 337.577 38.1225 337.377 38.1656C337.177 38.2087 336.97 38.2103 336.769 38.1704C336.568 38.1304 336.377 38.0497 336.208 37.9331C334.816 36.7955 333.116 36.1121 331.332 35.9732C330.113 35.9469 328.917 36.31 327.913 37.0108C327.584 37.2181 327.309 37.5022 327.111 37.8392C326.913 38.1762 326.797 38.5563 326.774 38.9477C326.754 39.2482 326.83 39.5473 326.99 39.8009C327.204 40.1188 327.479 40.3895 327.799 40.5964C328.964 41.2951 330.253 41.7535 331.594 41.9454H331.651C333.091 42.2023 334.495 42.6359 335.832 43.2366C337.059 43.7759 338.107 44.6603 338.852 45.7846C339.329 46.5635 339.582 47.4621 339.581 48.3787C339.546 49.3118 339.293 50.2231 338.844 51.0386C338.394 51.8541 337.76 52.5505 336.995 53.0712C335.353 54.2321 333.391 54.8411 331.389 54.8121C328.541 54.672 325.817 53.5951 323.629 51.7453C323.342 51.4785 323.16 51.1159 323.116 50.724C323.072 50.3322 323.169 49.9374 323.39 49.6124Z" fill="#EBEBEB"/>
<path d="M343.295 49.6124C343.563 49.2915 343.945 49.09 344.358 49.0511C344.772 49.0123 345.184 49.1393 345.506 49.4048C347.136 50.7825 349.162 51.5912 351.282 51.7107C352.634 51.7288 353.959 51.3263 355.077 50.5578C355.453 50.3215 355.768 49.9969 355.994 49.6116C356.22 49.2263 356.351 48.7915 356.376 48.3441C356.382 47.9974 356.287 47.6565 356.102 47.3641C355.871 46.9944 355.559 46.683 355.191 46.4533C353.909 45.7132 352.503 45.2206 351.043 45.0006H350.986C349.641 44.7826 348.328 44.3952 347.078 43.8477C345.932 43.3432 344.955 42.5145 344.264 41.4611C343.798 40.7076 343.553 39.8362 343.557 38.9477C343.587 38.0619 343.823 37.1956 344.244 36.4186C344.666 35.6416 345.262 34.9757 345.984 34.4743C347.519 33.3886 349.353 32.8198 351.226 32.8487C353.618 32.9728 355.917 33.8247 357.823 35.2929C358.164 35.5252 358.401 35.8843 358.482 36.2924C358.563 36.7004 358.482 37.1243 358.256 37.472C358.147 37.6485 358.004 37.801 357.836 37.9203C357.668 38.0397 357.477 38.1234 357.276 38.1664C357.075 38.2095 356.867 38.211 356.666 38.1709C356.464 38.1309 356.272 38.05 356.102 37.9331C354.71 36.7955 353.01 36.1121 351.226 35.9732C350.007 35.9469 348.811 36.31 347.807 37.0108C347.478 37.2181 347.203 37.5022 347.005 37.8392C346.807 38.1762 346.691 38.5563 346.668 38.9477C346.653 39.2477 346.729 39.5451 346.884 39.8009C347.099 40.1215 347.379 40.3926 347.705 40.5964C348.866 41.2936 350.151 41.752 351.488 41.9454H351.545C352.986 42.199 354.391 42.6327 355.726 43.2366C356.956 43.7757 358.008 44.6599 358.757 45.7846C359.235 46.5635 359.487 47.4621 359.486 48.3787C359.449 49.3126 359.194 50.2243 358.743 51.0397C358.291 51.855 357.656 52.5511 356.888 53.0712C355.248 54.2342 353.286 54.8435 351.282 54.8121C348.438 54.6745 345.716 53.5972 343.534 51.7453C343.243 51.4813 343.058 51.1181 343.014 50.7249C342.969 50.3317 343.07 49.9357 343.295 49.6124Z" fill="#EBEBEB"/>
<path d="M436.568 64.3926H313.454V152.604H436.568V64.3926Z" fill="white"/>
<path d="M437.149 153.18H312.884V63.8164H437.149V153.18ZM314.024 152.027H436.01V64.9693H314.024V152.027Z" fill="#EBEBEB"/>
<path d="M436.568 64.3926H313.454V75.3916H436.568V64.3926Z" fill="#E35454"/>
<path d="M437.149 75.9799H312.884V63.8164H437.149V75.9799ZM314.024 74.8269H436.01V64.9693H314.024V74.8269Z" fill="#EBEBEB"/>
<path d="M323.664 69.9721C323.664 70.5194 323.503 71.0544 323.203 71.5094C322.902 71.9644 322.475 72.3191 321.975 72.5285C321.476 72.738 320.926 72.7928 320.395 72.686C319.865 72.5792 319.378 72.3157 318.995 71.9287C318.613 71.5417 318.352 71.0487 318.247 70.5119C318.141 69.9752 318.196 69.4188 318.402 68.9132C318.609 68.4076 318.96 67.9755 319.41 67.6714C319.859 67.3674 320.388 67.2051 320.929 67.2051C321.288 67.2051 321.644 67.2766 321.975 67.4157C322.307 67.5548 322.609 67.7586 322.863 68.0155C323.117 68.2725 323.318 68.5775 323.455 68.9132C323.593 69.2489 323.664 69.6087 323.664 69.9721Z" fill="#A6A6A6"/>
<path d="M334.841 69.9721C334.843 70.5227 334.684 71.0615 334.383 71.5202C334.082 71.9788 333.653 72.3368 333.151 72.5485C332.649 72.7602 332.096 72.8162 331.562 72.7094C331.028 72.6025 330.538 72.3377 330.153 71.9484C329.769 71.5591 329.507 71.063 329.401 70.5229C329.296 69.9828 329.351 69.4232 329.56 68.915C329.77 68.4068 330.123 67.973 330.577 67.6686C331.03 67.3641 331.562 67.2028 332.107 67.2051C332.466 67.2051 332.821 67.2767 333.153 67.4157C333.485 67.5548 333.786 67.7586 334.04 68.0155C334.294 68.2725 334.496 68.5775 334.633 68.9132C334.77 69.249 334.841 69.6088 334.841 69.9721Z" fill="#EBEBEB"/>
<path d="M346.019 69.9721C346.021 70.5222 345.862 71.0605 345.562 71.519C345.261 71.9774 344.833 72.3353 344.332 72.5474C343.83 72.7595 343.278 72.8162 342.744 72.7102C342.211 72.6043 341.72 72.3406 341.335 71.9525C340.95 71.5644 340.687 71.0693 340.58 70.53C340.474 69.9907 340.527 69.4314 340.735 68.923C340.942 68.4147 341.294 67.98 341.746 67.6742C342.198 67.3684 342.729 67.2051 343.273 67.2051C343.633 67.2036 343.99 67.274 344.323 67.4124C344.656 67.5508 344.959 67.7544 345.214 68.0115C345.469 68.2686 345.671 68.5741 345.81 68.9106C345.948 69.247 346.019 69.6078 346.019 69.9721Z" fill="white"/>
<path d="M330.933 97.2852H325.122V99.4296H330.933V97.2852Z" fill="#EBEBEB"/>
<path d="M374.652 97.2852H335.171V99.4296H374.652V97.2852Z" fill="#EBEBEB"/>
<path d="M389.26 97.2852H378.219V99.4296H389.26V97.2852Z" fill="#E35454"/>
<path d="M414.52 126.039H403.479V128.184H414.52V126.039Z" fill="#EBEBEB"/>
<path d="M410.749 97.2852H391.664V99.4296H410.749V97.2852Z" fill="#A6A6A6"/>
<path d="M336.744 103.039H330.933V105.184H336.744V103.039Z" fill="#EBEBEB"/>
<path d="M366.471 103.039H340.846V105.184H366.471V103.039Z" fill="#A6A6A6"/>
<path d="M400.859 126.039H375.233V128.184H400.859V126.039Z" fill="#A6A6A6"/>
<path d="M358.837 120.287H335.171V122.432H358.837V120.287Z" fill="#A6A6A6"/>
<path d="M352.035 108.791H340.846V110.935H352.035V108.791Z" fill="#E35454"/>
<path d="M396.803 114.545H385.614V116.689H396.803V114.545Z" fill="#A6A6A6"/>
<path d="M393.043 108.791H355.282V110.935H393.043V108.791Z" fill="#A6A6A6"/>
<path d="M372.932 126.039H335.171V128.184H372.932V126.039Z" fill="#E35454"/>
<path d="M420.731 103.039H390.434V105.184H420.731V103.039Z" fill="#E35454"/>
<path d="M388.041 103.039H369.217V105.184H388.041V103.039Z" fill="#EBEBEB"/>
<path d="M414.065 108.791H395.242V110.935H414.065V108.791Z" fill="#EBEBEB"/>
<path d="M336.744 108.791H330.933V110.935H336.744V108.791Z" fill="#EBEBEB"/>
<path d="M330.933 114.545H325.122V116.689H330.933V114.545Z" fill="#A6A6A6"/>
<path d="M351.385 114.545H335.171V116.689H351.385V114.545Z" fill="#EBEBEB"/>
<path d="M357.06 131.793H340.846V133.937H357.06V131.793Z" fill="#EBEBEB"/>
<path d="M403.821 137.547H377.694V139.691H403.821V137.547Z" fill="#E35454"/>
<path d="M385.237 131.793H359.851V133.937H385.237V131.793Z" fill="#E35454"/>
<path d="M374.686 137.547H353.767V139.691H374.686V137.547Z" fill="#EBEBEB"/>
<path d="M420.73 131.793H388.211V133.937H420.73V131.793Z" fill="#A6A6A6"/>
<path d="M350.793 137.547H340.846V139.691H350.793V137.547Z" fill="#A6A6A6"/>
<path d="M389.259 120.287H361.195V122.432H389.259V120.287Z" fill="#EBEBEB"/>
<path d="M415.295 120.287H391.664V122.432H415.295V120.287Z" fill="#E35454"/>
<path d="M382.902 114.545H354.883V116.689H382.902V114.545Z" fill="#E35454"/>
<path d="M330.933 120.287H325.122V122.432H330.933V120.287Z" fill="#EBEBEB"/>
<path d="M330.933 126.039H325.122V128.184H330.933V126.039Z" fill="#EBEBEB"/>
<path d="M336.744 131.793H330.933V133.937H336.744V131.793Z" fill="#A6A6A6"/>
<path d="M336.744 137.547H330.933V139.691H336.744V137.547Z" fill="#EBEBEB"/>
<path d="M330.75 91.8892L332.699 87.1737C332.748 87.0677 332.836 86.9848 332.944 86.942C333.052 86.8991 333.172 86.8996 333.28 86.9432C333.384 86.9912 333.465 87.0779 333.508 87.1852C333.55 87.2926 333.55 87.4123 333.507 87.5196L331.525 92.2697C331.49 92.3477 331.434 92.4141 331.364 92.4611C331.293 92.508 331.211 92.5336 331.126 92.5349C331.074 92.5468 331.019 92.5468 330.967 92.5349C330.905 92.5142 330.848 92.4792 330.802 92.4327C330.755 92.3862 330.72 92.3293 330.699 92.2667C330.678 92.2041 330.672 92.1374 330.681 92.0719C330.689 92.0064 330.713 91.9439 330.75 91.8892Z" fill="#E35454"/>
<path d="M337.371 89.9643L337.314 90.0219L335.035 92.3278C334.989 92.376 334.934 92.4143 334.874 92.44C334.813 92.4658 334.748 92.4786 334.682 92.4777C334.614 92.4789 334.547 92.4662 334.484 92.4404C334.421 92.4147 334.365 92.3764 334.317 92.3278C334.223 92.2308 334.17 92.1004 334.17 91.9646C334.17 91.8288 334.223 91.6984 334.317 91.6014L336.208 89.676L334.317 87.7391C334.223 87.6421 334.17 87.5117 334.17 87.3759C334.17 87.2401 334.223 87.1097 334.317 87.0128C334.415 86.9228 334.543 86.873 334.676 86.873C334.809 86.873 334.936 86.9228 335.035 87.0128L337.314 89.3186H337.371V89.3993V89.4685V89.676C337.372 89.7029 337.372 89.7299 337.371 89.7568C337.35 89.7874 337.339 89.8235 337.339 89.8605C337.339 89.8975 337.35 89.9337 337.371 89.9643Z" fill="#E35454"/>
<path d="M493.46 144.891H403.32V203.079H493.46V144.891Z" fill="white"/>
<path d="M494.029 203.644H402.75V144.314H494.029V203.644ZM403.89 202.491H492.89V145.467H403.89V202.491Z" fill="#EBEBEB"/>
<path d="M493.46 144.891H403.32V155.89H493.46V144.891Z" fill="#E35454"/>
<path d="M494.029 156.466H402.75V144.314H494.029V156.466ZM403.89 155.313H492.89V145.467H403.89V155.313Z" fill="#EBEBEB"/>
<path d="M413.564 150.47C413.566 151.02 413.407 151.559 413.107 152.017C412.806 152.475 412.378 152.833 411.877 153.045C411.375 153.258 410.823 153.314 410.289 153.208C409.756 153.102 409.265 152.839 408.88 152.451C408.495 152.062 408.232 151.567 408.125 151.028C408.018 150.489 408.072 149.929 408.28 149.421C408.487 148.913 408.839 148.478 409.291 148.172C409.743 147.866 410.274 147.703 410.818 147.703C411.178 147.702 411.535 147.772 411.868 147.91C412.201 148.049 412.504 148.252 412.759 148.51C413.014 148.767 413.216 149.072 413.355 149.409C413.493 149.745 413.564 150.106 413.564 150.47Z" fill="#A6A6A6"/>
<path d="M424.696 150.47C424.696 151.017 424.535 151.552 424.235 152.007C423.934 152.463 423.507 152.817 423.008 153.027C422.508 153.236 421.958 153.291 421.428 153.184C420.897 153.077 420.41 152.814 420.028 152.427C419.645 152.04 419.385 151.547 419.279 151.01C419.174 150.473 419.228 149.917 419.435 149.411C419.642 148.906 419.992 148.474 420.442 148.169C420.892 147.865 421.42 147.703 421.961 147.703C422.321 147.702 422.677 147.772 423.009 147.911C423.342 148.049 423.644 148.253 423.898 148.51C424.152 148.767 424.354 149.073 424.491 149.409C424.628 149.746 424.697 150.106 424.696 150.47Z" fill="#EBEBEB"/>
<path d="M435.873 150.47C435.873 151.017 435.713 151.552 435.412 152.007C435.112 152.463 434.685 152.817 434.185 153.027C433.685 153.236 433.135 153.291 432.605 153.184C432.074 153.077 431.587 152.814 431.205 152.427C430.822 152.04 430.562 151.547 430.456 151.01C430.351 150.473 430.405 149.917 430.612 149.411C430.819 148.906 431.169 148.474 431.619 148.169C432.069 147.865 432.598 147.703 433.138 147.703C433.498 147.702 433.854 147.772 434.187 147.911C434.519 148.049 434.821 148.253 435.075 148.51C435.33 148.767 435.531 149.073 435.668 149.409C435.805 149.746 435.875 150.106 435.873 150.47Z" fill="white"/>
<path d="M420.149 177.645C420.206 174.701 421.401 171.896 423.478 169.834C425.555 167.771 428.348 166.614 431.259 166.612C433.791 166.593 436.255 167.438 438.255 169.01C438.584 169.306 438.791 169.718 438.832 170.162C438.874 170.606 438.747 171.049 438.479 171.403C438.21 171.757 437.819 171.994 437.384 172.068C436.949 172.142 436.503 172.046 436.135 171.8C434.758 170.672 433.031 170.072 431.259 170.105C429.231 170.116 427.284 170.907 425.812 172.319C425.116 173.016 424.562 173.845 424.183 174.759C423.804 175.673 423.606 176.654 423.602 177.645C423.6 178.639 423.794 179.624 424.174 180.54C424.553 181.457 425.11 182.288 425.812 182.983C427.286 184.391 429.233 185.178 431.259 185.185C433.029 185.219 434.755 184.623 436.135 183.502C436.51 183.248 436.964 183.142 437.412 183.203C437.859 183.265 438.268 183.49 438.562 183.836C438.829 184.209 438.945 184.67 438.888 185.126C438.831 185.582 438.605 185.999 438.255 186.292C436.252 187.856 433.789 188.696 431.259 188.679C428.345 188.688 425.545 187.535 423.465 185.47C421.386 183.405 420.194 180.593 420.149 177.645Z" fill="#EBEBEB"/>
<path d="M449.193 179.582H444.886C444.445 179.582 444.022 179.405 443.71 179.089C443.398 178.773 443.223 178.345 443.223 177.899C443.226 177.452 443.401 177.025 443.712 176.708C444.023 176.391 444.445 176.21 444.886 176.204H449.193V171.95C449.19 171.72 449.233 171.491 449.318 171.278C449.403 171.065 449.529 170.871 449.69 170.708C449.85 170.545 450.041 170.415 450.251 170.328C450.461 170.24 450.686 170.196 450.914 170.197C451.373 170.197 451.814 170.382 452.138 170.711C452.463 171.039 452.646 171.485 452.646 171.95V176.204H456.941C457.383 176.21 457.804 176.391 458.115 176.708C458.426 177.025 458.602 177.452 458.605 177.899C458.605 178.345 458.43 178.773 458.118 179.089C457.806 179.405 457.382 179.582 456.941 179.582H452.646V183.837C452.646 184.301 452.463 184.747 452.138 185.076C451.814 185.404 451.373 185.589 450.914 185.589C450.686 185.591 450.461 185.546 450.251 185.459C450.041 185.371 449.85 185.242 449.69 185.078C449.529 184.915 449.403 184.721 449.318 184.508C449.233 184.295 449.19 184.067 449.193 183.837V179.582Z" fill="#EBEBEB"/>
<path d="M467.971 179.582H463.698C463.257 179.582 462.834 179.405 462.522 179.089C462.21 178.773 462.035 178.345 462.035 177.899C462.038 177.452 462.213 177.025 462.524 176.708C462.835 176.391 463.257 176.21 463.698 176.204H468.005V171.95C468.002 171.72 468.045 171.491 468.13 171.278C468.215 171.065 468.341 170.871 468.502 170.708C468.662 170.545 468.853 170.415 469.063 170.328C469.273 170.24 469.498 170.196 469.726 170.197C470.184 170.2 470.623 170.386 470.947 170.714C471.271 171.042 471.455 171.486 471.458 171.95V176.204H475.753C476.195 176.21 476.616 176.391 476.927 176.708C477.238 177.025 477.414 177.452 477.417 177.899C477.417 178.345 477.242 178.773 476.93 179.089C476.618 179.405 476.194 179.582 475.753 179.582H471.458V183.837C471.455 184.3 471.271 184.744 470.947 185.072C470.623 185.4 470.184 185.586 469.726 185.589C469.498 185.591 469.273 185.546 469.063 185.459C468.853 185.371 468.662 185.242 468.502 185.078C468.341 184.915 468.215 184.721 468.13 184.508C468.045 184.295 468.002 184.067 468.005 183.837L467.971 179.582Z" fill="#EBEBEB"/>
<path d="M479.08 48.2168H417.677V71.2178H479.08V48.2168Z" fill="#455A64"/>
<path d="M426.542 64.4964V54.2929C426.54 54.1668 426.563 54.0417 426.61 53.9249C426.657 53.8081 426.727 53.702 426.815 53.6128C426.903 53.5237 427.008 53.4532 427.124 53.4057C427.239 53.3581 427.363 53.3345 427.487 53.336C427.612 53.3345 427.737 53.3581 427.853 53.4055C427.969 53.4529 428.074 53.5232 428.163 53.6122C428.252 53.7012 428.323 53.8072 428.371 53.9241C428.42 54.0409 428.444 54.1663 428.444 54.2929V58.4435H432.865V54.2929C432.864 54.1668 432.887 54.0417 432.934 53.9249C432.981 53.8081 433.051 53.702 433.139 53.6128C433.227 53.5237 433.332 53.4532 433.447 53.4057C433.563 53.3581 433.686 53.3345 433.811 53.336C433.936 53.3345 434.06 53.3581 434.176 53.4055C434.293 53.4529 434.398 53.5232 434.487 53.6122C434.576 53.7012 434.647 53.8072 434.695 53.9241C434.743 54.0409 434.768 54.1663 434.768 54.2929V64.4964C434.767 64.6221 434.741 64.7462 434.692 64.8617C434.643 64.9773 434.572 65.0819 434.483 65.1697C434.394 65.2575 434.289 65.3267 434.174 65.3734C434.059 65.4201 433.935 65.4433 433.811 65.4418C433.687 65.4449 433.564 65.4227 433.448 65.3764C433.333 65.3302 433.228 65.2608 433.14 65.1726C433.051 65.0843 432.981 64.9789 432.934 64.8628C432.887 64.7466 432.864 64.622 432.865 64.4964V60.3458H428.444V64.4964C428.443 64.6221 428.417 64.7462 428.368 64.8617C428.319 64.9773 428.248 65.0819 428.159 65.1697C428.07 65.2575 427.965 65.3267 427.85 65.3734C427.735 65.4201 427.611 65.4433 427.487 65.4418C427.363 65.4449 427.24 65.4227 427.124 65.3764C427.009 65.3302 426.904 65.2608 426.816 65.1726C426.727 65.0843 426.658 64.9789 426.611 64.8628C426.563 64.7466 426.54 64.622 426.542 64.4964Z" fill="white"/>
<path d="M445.98 55.2614H443.257V64.4849C443.258 64.6095 443.235 64.7331 443.189 64.8485C443.143 64.9639 443.074 65.0687 442.987 65.1568C442.9 65.2449 442.796 65.3145 442.682 65.3615C442.568 65.4084 442.446 65.4318 442.323 65.4303C442.074 65.4303 441.835 65.3311 441.658 65.1541C441.481 64.9771 441.38 64.7367 441.377 64.4849V55.2614H438.631C438.507 55.2599 438.384 55.2337 438.27 55.1842C438.156 55.1347 438.052 55.0629 437.966 54.973C437.879 54.8831 437.81 54.7767 437.764 54.66C437.718 54.5433 437.695 54.4186 437.697 54.2929C437.693 54.1674 437.715 54.0425 437.761 53.9258C437.807 53.809 437.875 53.7028 437.963 53.6135C438.05 53.5241 438.154 53.4535 438.269 53.4058C438.384 53.3582 438.507 53.3344 438.631 53.336H445.935C446.058 53.336 446.181 53.3608 446.295 53.4091C446.409 53.4573 446.512 53.528 446.599 53.617C446.686 53.706 446.755 53.8116 446.801 53.9276C446.847 54.0436 446.87 54.1678 446.869 54.2929C446.87 54.5382 446.778 54.7747 446.613 54.9544C446.448 55.1342 446.222 55.2439 445.98 55.2614Z" fill="white"/>
<path d="M460.029 54.2929V64.4964C460.023 64.7492 459.919 64.9897 459.74 65.1663C459.562 65.343 459.322 65.4419 459.072 65.4418C458.948 65.4433 458.825 65.42 458.711 65.3732C458.596 65.3263 458.492 65.2569 458.404 65.169C458.316 65.0811 458.246 64.9763 458.198 64.8609C458.15 64.7454 458.126 64.6215 458.126 64.4964V57.2098L455.665 60.6686C455.58 60.7944 455.466 60.897 455.333 60.9674C455.2 61.0378 455.052 61.0738 454.901 61.0722C454.748 61.0746 454.596 61.0391 454.459 60.9688C454.322 60.8985 454.204 60.7954 454.115 60.6686L451.665 57.2098V64.4964C451.665 64.7502 451.566 64.9936 451.388 65.173C451.211 65.3525 450.97 65.4533 450.72 65.4533C450.469 65.4533 450.228 65.3525 450.051 65.173C449.874 64.9936 449.774 64.7502 449.774 64.4964V54.2929C449.774 54.0411 449.872 53.7994 450.047 53.6203C450.222 53.4412 450.459 53.339 450.708 53.336H450.765C450.914 53.3363 451.06 53.3731 451.191 53.4435C451.322 53.5138 451.434 53.6154 451.517 53.7395L454.935 58.5127L458.354 53.7395C458.438 53.6138 458.552 53.5112 458.685 53.4408C458.819 53.3704 458.967 53.3344 459.117 53.336C459.359 53.353 459.586 53.4603 459.755 53.637C459.923 53.8138 460.021 54.0475 460.029 54.2929Z" fill="white"/>
<path d="M464.166 64.4963V54.2929C464.166 54.0411 464.264 53.7994 464.438 53.6203C464.613 53.4411 464.851 53.339 465.1 53.3359C465.352 53.3359 465.593 53.4364 465.773 53.6155C465.952 53.7946 466.054 54.038 466.057 54.2929V63.5163H470.694C470.945 63.5163 471.186 63.6172 471.363 63.7966C471.54 63.9761 471.64 64.2195 471.64 64.4733C471.64 64.7271 471.54 64.9705 471.363 65.1499C471.186 65.3294 470.945 65.4302 470.694 65.4302H465.1C464.854 65.4302 464.618 65.3322 464.443 65.1574C464.268 64.9826 464.169 64.7451 464.166 64.4963Z" fill="white"/>
<path d="M323.652 122.742H273.05V145.743H323.652V122.742Z" fill="#455A64"/>
<path d="M288.102 135.275H286.005V139.022C285.98 139.259 285.868 139.478 285.693 139.638C285.517 139.797 285.29 139.885 285.054 139.885C284.818 139.885 284.591 139.797 284.415 139.638C284.24 139.478 284.128 139.259 284.103 139.022V128.818C284.106 128.567 284.207 128.326 284.384 128.149C284.561 127.972 284.799 127.873 285.048 127.873H288.102C288.582 127.873 289.058 127.969 289.502 128.155C289.945 128.341 290.349 128.613 290.688 128.957C291.028 129.301 291.297 129.709 291.481 130.158C291.665 130.607 291.759 131.088 291.759 131.574C291.759 132.06 291.665 132.541 291.481 132.99C291.297 133.439 291.028 133.847 290.688 134.191C290.349 134.535 289.945 134.807 289.502 134.993C289.058 135.179 288.582 135.275 288.102 135.275ZM286.005 133.349H288.102C288.345 133.369 288.589 133.338 288.82 133.257C289.051 133.177 289.262 133.049 289.441 132.882C289.621 132.714 289.764 132.511 289.861 132.285C289.959 132.059 290.01 131.815 290.01 131.568C290.01 131.321 289.959 131.077 289.861 130.851C289.764 130.625 289.621 130.422 289.441 130.255C289.262 130.087 289.051 129.96 288.82 129.879C288.589 129.798 288.345 129.767 288.102 129.787H286.005V133.349Z" fill="white"/>
<path d="M294.072 139.022V128.818C294.072 128.564 294.172 128.321 294.349 128.142C294.527 127.962 294.767 127.861 295.018 127.861C295.269 127.861 295.509 127.962 295.687 128.142C295.864 128.321 295.964 128.564 295.964 128.818V132.969H300.396V128.818C300.394 128.693 300.418 128.568 300.465 128.452C300.512 128.336 300.582 128.23 300.67 128.142C300.759 128.054 300.864 127.985 300.979 127.938C301.094 127.892 301.218 127.87 301.342 127.873C301.466 127.871 301.589 127.895 301.705 127.941C301.82 127.988 301.925 128.057 302.014 128.145C302.103 128.233 302.174 128.337 302.223 128.453C302.271 128.568 302.297 128.693 302.299 128.818V139.022C302.299 139.148 302.274 139.274 302.226 139.391C302.178 139.507 302.107 139.613 302.018 139.702C301.929 139.792 301.823 139.862 301.707 139.909C301.591 139.957 301.467 139.98 301.342 139.979C301.217 139.98 301.093 139.957 300.978 139.909C300.863 139.861 300.758 139.791 300.67 139.702C300.581 139.613 300.512 139.507 300.465 139.39C300.418 139.273 300.394 139.148 300.396 139.022V134.929H295.964V139.079C295.964 139.333 295.864 139.577 295.687 139.756C295.509 139.936 295.269 140.036 295.018 140.036C294.767 140.036 294.527 139.936 294.349 139.756C294.172 139.577 294.072 139.333 294.072 139.079V139.022Z" fill="white"/>
<path d="M310.195 135.275H308.087V139.022C308.084 139.277 307.982 139.52 307.803 139.699C307.624 139.878 307.382 139.979 307.13 139.979C306.881 139.976 306.644 139.874 306.469 139.695C306.294 139.515 306.196 139.274 306.196 139.022V128.818C306.196 128.568 306.294 128.327 306.469 128.15C306.645 127.973 306.882 127.873 307.13 127.873H310.195C310.675 127.873 311.151 127.969 311.595 128.155C312.039 128.341 312.442 128.613 312.781 128.957C313.121 129.301 313.391 129.709 313.574 130.158C313.758 130.607 313.853 131.088 313.853 131.574C313.853 132.06 313.758 132.541 313.574 132.99C313.391 133.439 313.121 133.847 312.781 134.191C312.442 134.535 312.039 134.807 311.595 134.993C311.151 135.179 310.675 135.275 310.195 135.275ZM308.087 133.349H310.195C310.438 133.369 310.683 133.338 310.913 133.257C311.144 133.177 311.355 133.049 311.535 132.882C311.714 132.714 311.857 132.511 311.955 132.285C312.053 132.059 312.103 131.815 312.103 131.568C312.103 131.321 312.053 131.077 311.955 130.851C311.857 130.625 311.714 130.422 311.535 130.255C311.355 130.087 311.144 129.96 310.913 129.879C310.683 129.798 310.438 129.767 310.195 129.787H308.087V133.349Z" fill="white"/>
<path d="M258.033 314.129L260.973 332.011L280.936 441.09H284.16L269.644 332.011L267.49 314.129H258.033Z" fill="#A6A6A6"/>
<path d="M267.49 314.129H258.033L260.973 332.011H269.644L267.49 314.129Z" fill="#263238"/>
<path d="M195.342 441.09H198.566L218.518 332.011L221.469 314.129H212L209.858 332.011L195.342 441.09Z" fill="#A6A6A6"/>
<path d="M212.001 314.129L209.858 332.011H218.518L221.469 314.129H212.001Z" fill="#263238"/>
<path d="M135.477 441.09H138.69L158.653 332.011L161.593 314.129H152.135L149.993 332.011L135.477 441.09Z" fill="#A6A6A6"/>
<path d="M149.993 332.011H158.653L161.592 314.129H152.135L149.993 332.011Z" fill="#263238"/>
<path d="M140.57 322.534H286.849V306.935H232.088L213.687 175.535H146.153L140.57 322.534Z" fill="#A6A6A6"/>
<path d="M140.57 322.534H148.546L153.742 175.535H146.153L140.57 322.534Z" fill="#DBDBDB"/>
<path d="M236.509 185.899L233.683 185.599C233.763 181.921 232.043 176.099 232.339 178.97C232.486 181.13 232.39 183.299 232.054 185.438L188.916 180.964C188.916 175.407 192.254 166.622 192.254 166.622C189.029 170.888 187.309 177.217 186.557 180.722L181.999 180.249C181.874 176.917 183.583 171.429 183.583 171.429C182.125 173.516 180.962 177.575 180.359 180.088L175.22 179.546C175.951 172.658 178.733 166.157 183.196 160.903C187.195 156.003 188.893 151.749 189.576 140.369C190.351 126.707 199.763 122.914 201.221 121.404C214.108 108.018 235.335 121.53 233.216 138.502C231.621 151.276 230.14 152.66 234.789 164.754C238.298 173.839 236.509 185.899 236.509 185.899Z" fill="#263238"/>
<path d="M208.252 180.226C214.781 204.299 220.227 222.953 227.041 227.496C232.544 231.151 240.27 233.722 248.211 235.566C256.707 237.368 265.308 238.612 273.962 239.29C276.628 239.509 278.85 239.648 280.423 239.763C284.319 240.017 290.677 213.983 287.943 210.813C287.305 210.087 284.741 209.522 281.106 209.06C268.983 207.527 245.101 207.158 243.676 205.786C242.252 204.414 234.561 194.049 224.078 180.502C216.877 171.14 210.975 168.385 208.56 170.979C207.238 172.397 206.999 175.579 208.252 180.226Z" fill="#EB9481"/>
<path d="M272.606 237.077C276.371 238.773 280.242 240.218 284.194 241.4C287.35 242.196 296.477 244.248 297.685 240.824C298.516 238.518 293.286 236.639 289.618 235.255C287.692 234.529 285.265 232.592 285.789 231.335C286.689 229.133 291.669 231.128 294.961 232.903C301.319 236.362 309.865 242.611 313.557 239.279C314.947 238.011 313.192 235.878 310.674 233.802C314.73 236.177 319.037 238.08 320.633 236.742C321.048 236.399 321.317 235.907 321.384 235.369C321.452 234.831 321.314 234.287 320.997 233.849C321.505 234.069 322.067 234.129 322.609 234.022C323.152 233.915 323.65 233.646 324.039 233.249C325.281 231.842 324.575 229.848 323.094 227.83C323.334 227.795 323.563 227.703 323.761 227.561C323.96 227.418 324.121 227.23 324.233 227.012C326.808 222.7 312.702 211.113 307.939 210.167C293.913 207.343 279.169 209.107 279.169 209.107C273.871 213.73 272.595 237.065 272.606 237.077Z" fill="#EB9481"/>
<path d="M292.58 223.195C295.914 223.57 299.125 224.688 301.981 226.47C305.308 228.603 307.997 231.589 311.096 234.021C311.187 234.091 311.096 234.217 310.993 234.148C309.535 232.88 307.94 231.762 306.436 230.551C304.932 229.34 303.519 228.141 301.969 227.092C299.166 225.117 295.955 223.812 292.58 223.276C292.58 223.276 292.535 223.195 292.58 223.195Z" fill="#263238"/>
<path d="M294.95 217.131C298.695 217.883 302.356 219.015 305.877 220.509C309.66 222.284 312.714 225.305 315.642 228.199C317.419 229.936 319.163 231.715 320.872 233.537C320.94 233.606 320.872 233.733 320.758 233.664C317.719 230.666 314.62 227.765 311.46 224.959C308.525 222.338 305.105 220.332 301.399 219.056C299.28 218.318 297.104 217.765 294.939 217.2C294.893 217.189 294.904 217.131 294.95 217.131Z" fill="#263238"/>
<path d="M298.665 211.771C302.242 212.371 305.364 212.924 308.578 214.7C312.187 216.945 315.509 219.632 318.468 222.701C320.086 224.327 321.647 226.01 323.185 227.705C323.253 227.774 323.128 227.89 323.071 227.82C319.554 224.096 315.801 220.607 311.836 217.375C309.977 215.801 307.886 214.533 305.638 213.616C303.366 212.807 301.029 212.198 298.653 211.795C298.653 211.795 298.642 211.771 298.665 211.771Z" fill="#263238"/>
<path d="M208.252 180.225C214.781 204.299 220.227 222.953 227.041 227.496C232.544 231.151 240.269 233.722 248.211 235.566L208.594 171.002C207.238 172.397 206.998 175.579 208.252 180.225Z" fill="#263238"/>
<path d="M206.189 176.168C206.873 183.5 211.624 196.114 211.624 196.114L236.771 193.958C236.771 193.958 227.052 179.546 216.934 171.348C215.986 170.571 214.94 169.923 213.824 169.423C209.414 167.509 205.551 169.296 206.189 176.168Z" fill="#E35454"/>
<path d="M206.19 176.168C206.19 176.549 206.27 176.952 206.338 177.321C206.406 177.69 206.452 177.955 206.52 178.29C207.756 184.346 209.463 190.294 211.625 196.079L212.627 195.999L213.607 195.918L221.515 195.238L222.654 195.134L230.528 194.454L231.542 194.373L234.436 194.119L213.824 169.423C209.414 167.51 205.495 169.308 206.19 176.168Z" fill="#263238"/>
<path d="M388.758 441.032C386.047 441.943 306.435 441.274 303.496 439.349C303.142 439.141 303.051 431.855 303.085 421.882V421.686C302.999 414.645 302.543 407.613 301.718 400.622L301.581 399.469C299.485 380.872 295.884 362.794 295.884 362.794L345.711 362.609L352.548 399.503L352.673 400.656L354.074 414.399C354.074 414.399 364.808 419.011 374.151 423.542C379.916 426.332 384.918 428.88 386.069 429.814C389.112 432.247 391.47 440.144 388.758 441.032Z" fill="#EB9481"/>
<path d="M388.759 441.032C386.047 441.943 306.435 441.274 303.496 439.349C303.143 439.141 303.051 431.855 303.086 421.882V421.686C303 414.645 302.543 407.614 301.718 400.622L301.582 399.469H352.582L352.707 400.622L354.109 414.365C354.109 414.365 364.842 418.976 374.185 423.507C379.951 426.297 384.953 428.845 386.104 429.779C389.112 432.247 391.47 440.144 388.759 441.032Z" fill="#EBEBEB"/>
<path d="M389.089 441.342C386.298 442.253 306.584 441.342 303.565 439.405C302.425 438.667 301.354 426.216 302.585 412.473L353.972 413.095C353.972 413.095 383.358 427.242 386.446 429.767C389.534 432.292 391.915 440.454 389.089 441.342Z" fill="#E35454"/>
<path d="M387.984 438.149C374.618 437.665 320.701 436.996 307.461 437.572C307.347 437.572 307.347 437.653 307.461 437.653C320.69 438.426 374.618 438.633 387.972 438.368C388.257 438.31 388.257 438.149 387.984 438.149Z" fill="#263238"/>
<path d="M381.341 426.805C379.864 426.756 378.393 427.016 377.021 427.57C375.648 428.123 374.404 428.958 373.365 430.021C371.463 431.929 370.365 434.507 370.3 437.216C370.3 437.296 370.448 437.296 370.459 437.216C370.941 434.543 372.266 432.1 374.236 430.253C376.206 428.407 378.715 427.258 381.386 426.978C381.404 426.968 381.418 426.952 381.426 426.933C381.434 426.914 381.436 426.893 381.43 426.873C381.425 426.853 381.413 426.836 381.397 426.823C381.381 426.811 381.361 426.804 381.341 426.805Z" fill="#263238"/>
<path d="M358.154 414.49C352.81 414.364 346.589 416.208 343.216 420.589C343.091 420.762 343.33 420.947 343.49 420.866C348.191 418.434 353.138 416.52 358.245 415.159C358.318 415.132 358.379 415.08 358.419 415.012C358.459 414.945 358.475 414.866 358.464 414.788C358.454 414.71 358.417 414.638 358.361 414.584C358.304 414.53 358.231 414.497 358.154 414.49Z" fill="#263238"/>
<path d="M362.29 416.173C356.946 416.035 350.725 417.88 347.352 422.272C347.215 422.434 347.466 422.618 347.625 422.537C352.326 420.112 357.269 418.199 362.369 416.83C362.446 416.809 362.513 416.761 362.558 416.694C362.602 416.628 362.621 416.547 362.612 416.467C362.602 416.387 362.564 416.313 362.505 416.259C362.446 416.205 362.369 416.175 362.29 416.173Z" fill="#263238"/>
<path d="M366.38 417.845C361.025 417.707 354.804 419.551 351.442 423.944C351.306 424.106 351.545 424.302 351.705 424.221C356.424 421.783 361.39 419.87 366.517 418.514C366.593 418.485 366.656 418.429 366.695 418.357C366.734 418.285 366.746 418.201 366.73 418.121C366.713 418.04 366.669 417.968 366.605 417.918C366.541 417.867 366.461 417.842 366.38 417.845Z" fill="#263238"/>
<path d="M370.494 419.517C365.138 419.379 358.917 421.223 355.556 425.616C355.419 425.789 355.658 425.973 355.818 425.893C360.519 423.459 365.466 421.545 370.573 420.186C370.646 420.159 370.707 420.108 370.747 420.042C370.788 419.975 370.805 419.897 370.795 419.819C370.786 419.742 370.751 419.67 370.697 419.615C370.642 419.56 370.57 419.526 370.494 419.517Z" fill="#263238"/>
<path d="M311.016 424.717C305.023 424.717 304.931 434.113 310.948 434.159C316.964 434.205 317.009 424.774 311.016 424.717Z" fill="#263238"/>
<path d="M364.09 400.102C361.401 397.796 357.971 399.986 356.274 402.327C353.429 406.411 351.703 411.184 351.272 416.162C351.27 416.183 351.272 416.205 351.28 416.225C351.287 416.245 351.299 416.262 351.315 416.277C351.33 416.291 351.349 416.302 351.369 416.308C351.389 416.314 351.41 416.316 351.431 416.312C351.45 416.414 351.494 416.511 351.557 416.593C351.62 416.675 351.702 416.741 351.796 416.785C351.889 416.829 351.992 416.85 352.095 416.846C352.198 416.842 352.298 416.813 352.388 416.762C356.228 414.144 360.649 411.815 363.577 408.08C365.287 405.866 366.631 402.292 364.09 400.102ZM357.402 411.539C355.544 412.876 353.642 414.11 351.83 415.516C352.821 412.83 353.676 410.109 354.929 407.527C355.513 406.272 356.179 405.059 356.923 403.895C358.063 402.119 363.407 397.657 363.874 403.549C364.136 406.812 359.612 409.959 357.402 411.55V411.539Z" fill="#263238"/>
<path d="M337.963 417.985C342.612 418.758 347.432 417.478 352.012 416.832C352.113 416.807 352.206 416.759 352.284 416.691C352.363 416.623 352.424 416.537 352.464 416.441C352.504 416.345 352.521 416.24 352.514 416.136C352.507 416.032 352.475 415.93 352.423 415.841C352.439 415.828 352.452 415.811 352.462 415.792C352.471 415.773 352.476 415.752 352.476 415.731C352.476 415.71 352.471 415.689 352.462 415.67C352.452 415.651 352.439 415.635 352.423 415.622C348.793 412.252 344.354 409.907 339.547 408.819C336.744 408.243 332.711 408.958 332.289 412.497C331.879 415.806 335.251 417.535 337.963 417.985ZM334.762 414.872C331.195 410.191 338.089 409.892 340.14 410.399C341.462 410.758 342.76 411.205 344.025 411.736C346.668 412.797 349.107 414.215 351.625 415.529C349.346 415.725 347.124 416.106 344.857 416.383C342.156 416.705 336.733 417.455 334.762 414.872Z" fill="#263238"/>
<path d="M356.718 395.491L298.938 395.238C298.938 395.238 278.918 317.276 274.224 311.823C265.53 301.723 196.424 306.612 177.658 285.663C159.427 265.371 177.658 228.639 177.658 228.639H228.83C229.441 235.26 230.415 241.842 231.746 248.354C231.746 248.354 296.135 258.73 315.254 278.78C329.85 294.033 356.718 395.491 356.718 395.491Z" fill="#37474F"/>
<path d="M352.741 386.268C349.175 385.98 345.631 385.611 342.065 385.461C338.499 385.311 334.909 385.242 331.332 385.184C324.222 385.069 317.116 385.069 310.013 385.184C306.002 385.265 302.037 385.438 297.97 385.461C297.867 385.461 297.89 385.645 297.97 385.645C305.182 385.645 312.417 385.934 319.618 386.118C326.82 386.302 333.736 386.533 340.8 386.648C344.777 386.706 348.776 386.591 352.707 386.556C352.912 386.602 352.912 386.268 352.741 386.268Z" fill="#263238"/>
<path d="M290.917 336.91C288.638 329.408 286.158 321.968 283.476 314.589C282.337 311.442 281.402 307.845 279.169 305.274C276.936 302.703 273.689 301.93 270.601 301.25C255.788 297.941 240.657 296.638 225.742 294.021C218.352 292.794 211.057 291.042 203.911 288.775C200.406 287.698 197.016 286.269 193.792 284.509C190.88 282.84 188.278 280.671 186.101 278.099C182.026 273.082 179.393 267.027 178.49 260.598C177.519 252.989 178.199 245.257 180.484 237.942C181.008 236.155 181.623 234.38 182.273 232.639C182.273 232.535 182.148 232.489 182.102 232.639C177.111 245.771 175.06 260.932 182.102 273.729C183.612 276.493 185.533 279.005 187.799 281.177C190.295 283.514 193.15 285.422 196.254 286.827C202.919 289.974 210.257 291.842 217.424 293.41C232.236 296.638 247.448 297.918 262.397 300.604C266.041 301.188 269.654 301.957 273.221 302.91C274.911 303.318 276.489 304.106 277.836 305.216C279.092 306.44 280.061 307.933 280.673 309.586C282.132 313.102 283.294 316.768 284.536 320.377C285.778 323.986 287.088 327.848 288.296 331.595C293.127 346.622 297.381 361.817 301.057 377.182L302.391 382.797C302.391 382.981 302.698 382.901 302.664 382.716C299.522 367.255 295.601 351.966 290.917 336.91Z" fill="#263238"/>
<path d="M301.786 454.637C298.983 455.225 220.022 445.01 217.321 442.75C217.002 442.496 217.845 435.268 218.962 425.352C219.611 419.588 220.91 412.359 222.38 405.003C226.448 385.461 232.213 364.65 232.213 364.65L283.977 373.39L273.506 410.606L269.917 423.289C269.917 423.289 280.559 429.803 289.287 435.441C294.676 438.899 299.359 442.035 300.385 443.096C303.176 445.955 304.589 454.072 301.786 454.637Z" fill="#EB9481"/>
<path d="M301.786 454.636C298.983 455.224 220.022 445.009 217.321 442.749C217.002 442.495 217.845 435.266 218.962 425.351C219.611 419.587 220.91 412.358 222.38 405.002L273.506 410.594L269.917 423.276C269.917 423.276 280.559 429.79 289.287 435.428C294.676 438.887 299.359 442.023 300.385 443.083C303.176 445.954 304.589 454.071 301.786 454.636Z" fill="#EBEBEB"/>
<path d="M302.117 454.913C299.234 455.501 220.147 445.389 217.367 443.072C216.318 442.196 217.492 429.802 220.272 416.301L270.122 422.792C270.122 422.792 298.015 440.247 300.761 443.106C303.507 445.966 304.988 454.29 302.117 454.913Z" fill="#E35454"/>
<path d="M301.377 451.57C288.159 449.54 234.664 442.646 221.446 441.654C221.344 441.654 221.333 441.723 221.446 441.747C234.493 444.052 288.046 450.497 301.354 451.789C301.627 451.812 301.662 451.616 301.377 451.57Z" fill="#263238"/>
<path d="M296.066 439.579C294.594 439.355 293.092 439.445 291.656 439.842C290.22 440.239 288.881 440.935 287.726 441.885C285.629 443.562 284.247 445.988 283.863 448.664C283.863 448.745 284.011 448.768 284.034 448.664C284.814 446.065 286.406 443.792 288.572 442.187C290.737 440.582 293.359 439.732 296.044 439.764C296.068 439.767 296.092 439.76 296.111 439.745C296.131 439.73 296.143 439.708 296.146 439.683C296.149 439.659 296.143 439.634 296.128 439.615C296.113 439.595 296.091 439.582 296.066 439.579Z" fill="#263238"/>
<path d="M274.429 424.661C269.131 423.911 262.739 425.018 258.899 428.984C258.739 429.146 258.967 429.353 259.127 429.295C264.074 427.429 269.204 426.099 274.429 425.329C274.517 425.329 274.601 425.294 274.663 425.231C274.725 425.169 274.76 425.084 274.76 424.995C274.76 424.906 274.725 424.821 274.663 424.759C274.601 424.696 274.517 424.661 274.429 424.661Z" fill="#263238"/>
<path d="M278.314 426.804C273.028 426.043 266.635 427.161 262.784 431.127C262.636 431.277 262.853 431.496 263.023 431.427C267.97 429.559 273.1 428.233 278.326 427.472C278.414 427.471 278.497 427.434 278.558 427.37C278.619 427.307 278.652 427.221 278.651 427.132C278.649 427.044 278.613 426.959 278.55 426.898C278.487 426.836 278.402 426.802 278.314 426.804Z" fill="#263238"/>
<path d="M282.211 428.926C276.913 428.177 270.532 429.284 266.681 433.25C266.533 433.411 266.749 433.619 266.92 433.561C271.866 431.691 276.996 430.365 282.222 429.607C282.301 429.591 282.371 429.547 282.421 429.484C282.471 429.421 282.498 429.342 282.497 429.262C282.495 429.181 282.466 429.103 282.414 429.042C282.362 428.98 282.29 428.94 282.211 428.926Z" fill="#263238"/>
<path d="M286.108 431.081C280.81 430.32 274.429 431.438 270.578 435.405C270.43 435.554 270.647 435.773 270.817 435.704C275.763 433.835 280.894 432.509 286.12 431.75C286.207 431.748 286.291 431.712 286.352 431.648C286.413 431.584 286.446 431.498 286.445 431.41C286.443 431.321 286.407 431.237 286.344 431.175C286.281 431.113 286.196 431.08 286.108 431.081Z" fill="#263238"/>
<path d="M226.414 429.351C220.466 428.602 219.315 437.964 225.274 438.713C231.233 439.462 232.396 430.078 226.414 429.351Z" fill="#263238"/>
<path d="M281.949 411.067C279.545 408.473 275.888 410.237 273.974 412.37C270.686 416.077 268.418 420.594 267.399 425.467C267.393 425.489 267.393 425.512 267.398 425.534C267.403 425.556 267.413 425.576 267.428 425.593C267.443 425.61 267.461 425.623 267.482 425.632C267.503 425.64 267.525 425.643 267.547 425.64C267.556 425.744 267.589 425.844 267.643 425.933C267.696 426.021 267.77 426.096 267.857 426.151C267.945 426.206 268.044 426.239 268.146 426.249C268.248 426.258 268.352 426.243 268.447 426.205C272.561 424.037 277.21 422.239 280.548 418.872C282.531 416.912 284.228 413.523 281.949 411.067ZM273.974 421.651C271.968 422.804 269.94 423.761 267.98 424.948C269.268 422.4 270.43 419.806 271.968 417.373C272.685 416.195 273.485 415.07 274.361 414.007C275.728 412.381 281.494 408.554 281.3 414.468C281.232 417.719 276.389 420.313 274.019 421.651H273.974Z" fill="#263238"/>
<path d="M253.966 425.79C258.523 427.093 263.434 426.378 268.06 426.24C268.162 426.229 268.26 426.194 268.346 426.137C268.432 426.081 268.504 426.004 268.555 425.914C268.606 425.824 268.635 425.723 268.64 425.619C268.646 425.516 268.626 425.412 268.584 425.318C268.601 425.304 268.615 425.286 268.624 425.266C268.633 425.246 268.638 425.224 268.638 425.202C268.638 425.18 268.633 425.159 268.624 425.139C268.615 425.119 268.601 425.101 268.584 425.087C265.365 421.321 261.223 418.478 256.575 416.844C253.852 415.944 249.807 416.198 248.952 419.645C248.098 423.093 251.322 425.018 253.966 425.79ZM251.151 422.332C248.132 417.27 255.014 417.72 256.996 418.515C258.269 419.023 259.506 419.616 260.7 420.291C263.149 421.705 265.526 423.245 267.821 424.903C265.542 424.822 263.263 424.903 260.984 424.903C258.284 425.006 252.815 425.11 251.151 422.32V422.332Z" fill="#263238"/>
<path d="M286.404 408.38L223.395 400.621C223.395 400.621 245.351 312.86 244.36 311.545C240.885 307.003 187.719 308.836 169.591 290.597C150.392 271.285 168.816 228.592 168.816 228.592L216.672 228.776C216.672 228.776 216.991 247.915 219.144 249.714C220.569 250.866 286.678 262.2 297.434 276.404C313.83 298.102 286.404 408.38 286.404 408.38Z" fill="#37474F"/>
<path d="M301.9 284.233C301.003 281.808 299.717 279.548 298.095 277.546C296.272 275.402 294.131 273.559 291.748 272.081C286.715 268.999 281.405 266.409 275.887 264.345C270.26 262.087 264.516 260.135 258.682 258.499C252.769 256.816 246.775 255.398 240.771 254.095C234.766 252.792 228.761 251.789 222.745 250.636L219.908 250.106C223.007 248.861 226.083 247.546 229.183 246.255C229.213 246.237 229.237 246.208 229.25 246.174C229.263 246.141 229.264 246.104 229.253 246.069C229.243 246.034 229.221 246.004 229.192 245.984C229.162 245.963 229.127 245.953 229.091 245.955C222.829 247.162 216.853 249.573 211.487 253.057C211.408 253.057 211.487 253.253 211.556 253.219C214.245 252.331 216.888 251.317 219.532 250.267C224.99 251.42 230.413 252.654 235.848 253.876C241.728 255.202 247.584 256.608 253.372 258.269C264.858 261.566 276.275 265.44 286.894 271.02C291.703 273.545 296.249 276.704 298.949 281.593C301.456 286.124 302.208 291.427 302.368 296.581C302.371 302.359 302.048 308.133 301.399 313.875C300.822 320.377 300.146 326.868 299.371 333.348C298.585 339.827 294.084 373.793 293.571 375.245C293.503 375.441 293.833 375.58 293.924 375.384C294.585 374 302.368 324.931 302.949 318.337C303.484 312.261 304.088 306.15 304.156 300.051C304.407 294.681 303.641 289.312 301.9 284.233Z" fill="#263238"/>
<path d="M251.402 304.49C249.729 304.038 248.021 303.729 246.297 303.568L240.6 302.657L229.263 300.835C222.005 299.682 214.724 298.599 207.488 297.307C195.148 295.094 181.737 291.07 174.639 279.713C172.998 277.097 171.872 274.184 171.323 271.136C170.767 267.397 170.511 263.618 170.56 259.837C170.443 252.22 170.927 244.606 172.007 237.066C172.269 235.21 172.599 233.377 172.953 231.544C172.953 231.429 172.804 231.383 172.782 231.544C171.354 238.897 170.459 246.345 170.104 253.83C169.944 257.566 169.944 261.301 170.104 265.037C170.103 268.474 170.617 271.891 171.631 275.171C175.687 287.012 187.583 293.41 198.874 296.339C205.836 298.149 213.003 299.071 220.102 300.19L242.469 303.741L248.052 304.628C249.556 304.871 252.279 304.813 252.609 306.773C252.682 307.572 252.604 308.378 252.381 309.148C252.165 310.139 251.96 311.119 251.743 312.111L250.513 317.876C248.902 325.37 247.319 332.868 245.761 340.369C242.582 355.473 239.597 370.622 236.509 385.749L235.37 391.375C235.37 391.467 235.495 391.513 235.518 391.375C238.788 376.306 242.127 361.237 245.363 346.157C247.003 338.563 248.606 330.961 250.171 323.352C250.957 319.593 251.732 315.846 252.45 312.088C252.922 310.477 253.216 308.818 253.327 307.142C253.333 306.549 253.148 305.97 252.801 305.491C252.454 305.013 251.963 304.662 251.402 304.49Z" fill="#263238"/>
<path d="M285.06 400.54C281.38 399.756 277.711 398.892 273.996 398.235C270.282 397.577 266.544 397.001 262.807 396.448C255.393 395.333 247.953 394.345 240.486 393.485C236.281 392.989 232.054 392.597 227.85 392.066C227.736 392.066 227.736 392.228 227.85 392.239C235.404 393.208 242.924 394.545 250.444 395.756C257.964 396.966 265.166 398.154 272.549 399.215C276.697 399.837 280.855 400.275 285.014 400.806C285.197 400.886 285.231 400.587 285.06 400.54Z" fill="#263238"/>
<path d="M231.929 239.232C228.611 239.897 225.26 240.378 221.89 240.674C216.592 241.204 209.197 241.688 199.649 241.677H198.874H195.171C186.34 241.527 175.892 240.985 163.803 239.751C163.803 239.751 177.795 187.581 192.083 170.575C192.402 170.183 192.733 169.814 193.063 169.422L193.257 169.215C194.364 168.021 195.653 167.013 197.074 166.229C197.324 166.09 197.575 165.964 197.837 165.848C203.341 163.289 209.152 165.41 213.345 169.042C214.678 170.195 229.741 190.025 231.074 197.589C232.213 204.264 227.77 211.424 227.77 211.424L231.929 239.232Z" fill="#E35454"/>
<path d="M199.649 241.678H198.874H195.171C186.34 241.528 175.892 240.986 163.803 239.753C163.803 239.753 177.795 187.582 192.083 170.577C192.402 170.185 192.733 169.816 193.063 169.424L193.257 169.216C194.364 168.022 195.653 167.014 197.074 166.23C197.324 166.092 197.575 165.965 197.837 165.85L199.649 241.678Z" fill="#263238"/>
<path d="M188.05 175.384C175.425 194.88 160.544 228.315 169.728 234.08C184.757 243.523 225.206 244.722 234.436 244.618C238.424 244.618 242.901 217.582 239.836 214.572C236.771 211.563 194.601 214.791 193.963 212.267C193.61 210.814 196.949 197.405 198.988 181.137C201.301 162.264 191.628 169.873 188.05 175.384Z" fill="#EB9481"/>
<path d="M232.669 213.327C232.669 213.327 244.667 211.632 252.575 210.894C256.984 210.491 264.607 210.468 267.98 211.655C273.027 213.454 293.047 224.199 290.54 229.168C288.261 233.653 272.31 222.251 272.31 222.251C272.31 222.251 289.469 232.362 285.789 237.239C282.109 242.116 265.724 226.782 265.724 226.782C265.724 226.782 283.134 237.562 278.554 242.012C275.135 245.367 259.468 232.304 259.468 232.304C259.468 232.304 274.361 241.678 270.954 245.286C267.182 249.287 252.017 238.138 252.017 238.138C241.762 245.84 233.786 245.286 228.203 244.214C226.824 243.914 232.669 213.327 232.669 213.327Z" fill="#EB9481"/>
<path d="M266.579 218.32C268.641 219.473 270.726 220.545 272.686 221.779C274.646 223.012 276.549 224.442 278.383 225.906C280.808 227.784 283.011 229.939 284.946 232.328C281.198 228.351 274.281 223.6 272.322 222.309C270.362 221.018 268.493 219.623 266.533 218.332C266.476 218.355 266.579 218.297 266.579 218.32Z" fill="#263238"/>
<path d="M261.827 225.374C264.402 226.908 267 228.338 269.507 229.986C272.014 231.635 275.409 234.056 277.779 235.866C277.961 236.005 277.836 236.327 277.654 236.201C275.215 234.483 271.615 232.177 269.154 230.494C266.693 228.81 264.3 227.035 261.793 225.432C261.748 225.409 261.793 225.351 261.827 225.374Z" fill="#263238"/>
<path d="M256.677 230.691C260.673 232.952 264.43 235.622 267.889 238.658C268.06 238.796 267.889 238.854 267.695 238.658C264.015 235.937 261.155 233.769 256.609 230.772C256.54 230.783 256.597 230.622 256.677 230.691Z" fill="#263238"/>
<path d="M232.59 213.166C238.059 212.394 252.507 210.203 258.022 209.892C262.638 209.464 267.283 210.304 271.467 212.325C278.005 215.496 283.968 219.76 289.105 224.938C290.108 226.091 291.6 227.855 290.655 229.376C289.515 231.233 284.228 230.276 278.269 226.114C278.053 225.964 278.155 225.837 278.372 225.964C286.655 231.106 289.549 229.999 290.187 228.846C290.609 228.097 289.971 226.99 289.401 226.148C288.5 224.946 287.451 223.865 286.279 222.932C282.362 219.664 278.129 216.806 273.643 214.4C268.8 211.662 263.288 210.37 257.748 210.676C252.051 210.953 238.253 213.178 232.59 213.374C232.476 213.385 232.464 213.178 232.59 213.166Z" fill="#263238"/>
<path d="M286.359 234.644C285.686 233.195 284.742 231.892 283.579 230.805C282.337 229.369 280.955 228.064 279.454 226.908C279.386 226.908 279.295 226.908 279.363 227.012C280.667 228.197 281.9 229.46 283.055 230.794C283.669 231.527 284.24 232.297 284.764 233.099C285.378 233.844 285.734 234.771 285.778 235.74C285.618 237.596 283.351 237.85 281.949 237.55C281.04 237.33 280.152 237.029 279.295 236.651C278.109 236.097 276.966 235.454 275.876 234.725C275.785 234.656 275.58 234.725 275.671 234.783C277.95 236.443 282.223 239.936 285.117 238.057C285.685 237.724 286.12 237.201 286.347 236.577C286.573 235.954 286.578 235.271 286.359 234.644Z" fill="#263238"/>
<path d="M170.753 196.668L197.382 196.379L200.082 176.353C201.313 167.129 200.618 161.307 189.918 171.464C182.501 178.509 170.753 196.668 170.753 196.668Z" fill="#E35454"/>
<path d="M202.19 164.742C196.971 166.253 197.495 172.19 199.444 176.364C201.392 180.538 205.221 185.368 208.012 185.23C210.804 185.092 211.328 177.99 211.328 177.99C211.328 177.99 215.305 182.394 217.39 180.861C219.475 179.327 215.293 171.222 212.319 168.709C208.012 165.054 204.947 163.935 202.19 164.742Z" fill="white"/>
<path d="M199.353 168.097C199.581 169.365 205.153 177.781 210.827 177.77C212.684 177.77 213.106 167.532 213.106 167.532L213.3 166.782L216.102 156.314L204.184 147.794L202.452 146.641C202.452 146.641 201.871 149.558 201.187 153.201L201.085 153.72C201.085 153.927 201.005 154.112 200.971 154.308C200.857 154.85 200.755 155.461 200.652 155.956C200.549 156.452 200.504 156.786 200.435 157.236C200.367 157.686 200.299 158.112 200.219 158.562C199.714 161.716 199.425 164.902 199.353 168.097Z" fill="#EB9481"/>
<path d="M201.153 153.212C202.077 156.229 203.639 159.005 205.73 161.349C207.822 163.693 210.393 165.547 213.265 166.782L216.068 156.314L204.15 147.794L202.418 146.641C202.418 146.641 201.837 149.569 201.153 153.212Z" fill="#263238"/>
<path d="M231.052 140.058C231.918 159.07 220.797 161.756 216.706 161.964C213.026 162.125 200.481 162.229 197.667 143.401C194.852 124.574 203.364 118.152 211.716 117.322C220.068 116.492 230.174 121.092 231.052 140.058Z" fill="#EB9481"/>
<path d="M228.248 136.9C227.819 136.843 227.393 136.762 226.972 136.658C226.509 136.636 226.065 136.462 225.708 136.162C225.619 136.042 225.571 135.897 225.571 135.747C225.571 135.597 225.619 135.452 225.708 135.332C225.916 135.123 226.176 134.973 226.46 134.898C226.744 134.823 227.043 134.826 227.326 134.905C227.928 134.981 228.483 135.276 228.887 135.736C228.971 135.848 229.022 135.983 229.032 136.124C229.043 136.265 229.012 136.406 228.944 136.529C228.876 136.653 228.775 136.754 228.651 136.82C228.527 136.885 228.388 136.913 228.248 136.9Z" fill="#263238"/>
<path d="M216.205 137.234C216.631 137.157 217.054 137.057 217.47 136.934C217.93 136.887 218.362 136.688 218.7 136.369C218.792 136.253 218.841 136.108 218.841 135.96C218.841 135.811 218.792 135.667 218.7 135.55C218.482 135.349 218.216 135.21 217.928 135.147C217.639 135.084 217.34 135.1 217.059 135.193C216.462 135.302 215.924 135.625 215.544 136.104C215.468 136.218 215.425 136.351 215.421 136.489C215.417 136.626 215.452 136.762 215.521 136.88C215.59 136.999 215.691 137.095 215.812 137.157C215.933 137.22 216.069 137.246 216.205 137.234Z" fill="#263238"/>
<path d="M218.563 141.775C218.563 141.718 218.461 141.833 218.472 141.891C218.574 143.182 218.472 144.681 217.333 145.165C217.333 145.165 217.333 145.246 217.333 145.234C218.723 144.969 218.859 142.998 218.563 141.775Z" fill="#263238"/>
<path d="M217.355 140.473C215.293 140.416 215.327 144.601 217.242 144.658C219.156 144.716 219.087 140.519 217.355 140.473Z" fill="#263238"/>
<path d="M216.547 140.692C216.182 140.934 215.84 141.349 215.407 141.395C214.974 141.441 214.518 141.015 214.188 140.6H214.12C214.12 141.407 214.427 142.225 215.259 142.341C216.091 142.456 216.581 141.729 216.774 140.922C216.82 140.83 216.683 140.611 216.547 140.692Z" fill="#263238"/>
<path d="M225.56 141.443C225.56 141.385 225.662 141.443 225.662 141.558C225.662 142.849 225.788 144.336 226.95 144.775V144.844C225.56 144.648 225.321 142.665 225.56 141.443Z" fill="#263238"/>
<path d="M226.699 140.081C228.761 139.919 228.921 144.104 227.018 144.254C225.115 144.404 224.978 140.219 226.699 140.081Z" fill="#263238"/>
<path d="M227.576 140.323C227.906 140.531 228.248 140.923 228.636 140.934C229.023 140.946 229.41 140.473 229.684 140.035C229.741 140.842 229.513 141.684 228.761 141.868C228.009 142.053 227.542 141.373 227.325 140.577C227.337 140.473 227.439 140.243 227.576 140.323Z" fill="#263238"/>
<path d="M223.645 147.61C223.645 147.61 223.942 149.535 223.964 150.446C223.964 150.538 220.694 151.287 219.213 149.074C219.202 149.056 219.198 149.035 219.2 149.015C219.203 148.994 219.212 148.975 219.226 148.96C219.241 148.946 219.26 148.937 219.28 148.934C219.3 148.932 219.321 148.936 219.338 148.947C220.507 149.717 221.889 150.085 223.281 149.996C223.338 149.743 222.654 146.71 222.791 146.699C223.495 146.743 224.189 146.886 224.853 147.125C224.341 143.09 223.19 139.159 222.734 135.135C222.735 135.108 222.744 135.083 222.76 135.061C222.776 135.04 222.798 135.025 222.823 135.017C222.848 135.009 222.875 135.01 222.9 135.019C222.925 135.027 222.947 135.044 222.962 135.066C224.332 139.232 225.283 143.527 225.799 147.886C225.879 148.417 224.01 147.771 223.645 147.61Z" fill="#263238"/>
<path d="M224.636 142.237C224.557 139.251 226.072 136.783 228.055 136.726C230.037 136.668 231.667 139.032 231.746 142.029C231.826 145.027 230.311 147.483 228.328 147.54C226.345 147.598 224.727 145.211 224.636 142.237ZM225.354 142.237C225.434 144.819 226.756 146.848 228.305 146.848C229.855 146.848 231.074 144.669 230.994 142.087C230.915 139.504 229.604 137.475 228.043 137.475C226.482 137.475 225.286 139.631 225.354 142.214V142.237Z" fill="#37474F"/>
<path d="M211.203 142.617C211.243 141.632 211.567 140.681 212.134 139.88C212.701 139.079 213.487 138.462 214.395 138.107C215.304 137.751 216.295 137.671 217.247 137.878C218.2 138.084 219.072 138.567 219.757 139.268C220.442 139.969 220.91 140.856 221.103 141.822C221.296 142.788 221.207 143.79 220.845 144.705C220.484 145.621 219.866 146.409 219.068 146.974C218.27 147.539 217.326 147.856 216.353 147.886C214.98 147.877 213.667 147.317 212.701 146.329C211.735 145.341 211.197 144.006 211.203 142.617ZM211.921 142.617C212.012 143.454 212.341 144.246 212.87 144.896C213.398 145.547 214.103 146.027 214.897 146.279C215.69 146.531 216.54 146.544 217.341 146.316C218.142 146.087 218.859 145.628 219.407 144.994C219.954 144.359 220.307 143.578 220.422 142.744C220.537 141.91 220.41 141.06 220.056 140.298C219.702 139.536 219.136 138.895 218.428 138.453C217.72 138.011 216.9 137.788 216.068 137.809C215.482 137.846 214.909 137.999 214.382 138.26C213.854 138.521 213.383 138.885 212.995 139.33C212.606 139.776 212.308 140.294 212.118 140.856C211.928 141.418 211.849 142.013 211.886 142.606L211.921 142.617Z" fill="#37474F"/>
<path d="M220.934 141.845C223.588 140.819 224.819 141.661 224.83 141.673L225.252 141.096C225.252 141.096 223.737 139.943 220.694 141.165L220.934 141.845Z" fill="#37474F"/>
<path d="M211.556 142.144L211.659 141.418C211.192 141.349 200.264 139.631 199.045 139.596C197.826 139.562 194.921 141.291 194.602 141.499L194.966 142.11C196.197 141.303 197.547 140.7 198.966 140.323H199.023C199.934 140.346 207.614 141.522 211.556 142.144Z" fill="#37474F"/>
<path d="M199.091 144.013C203.649 144.013 205.529 129.705 205.734 127.941C205.654 129.094 205.301 134.962 205.734 135.216C206.229 135.22 206.722 135.142 207.192 134.985C207.218 134.277 207.298 133.571 207.432 132.875C207.432 132.553 207.534 133.59 207.671 134.87L208.525 134.662C208.526 133.151 208.725 131.647 209.118 130.189C209.266 129.636 209.334 132.149 209.79 134.363C213.766 133.326 217.844 132.742 221.948 132.622C222.956 132.609 223.963 132.647 224.967 132.737C225.036 130.985 224.899 129.128 224.967 129.532C225.276 130.597 225.482 131.689 225.583 132.795L226.882 132.933C227.087 130.477 226.061 126.511 226.426 127.168C227.52 129.061 228.251 131.146 228.579 133.313C230.231 133.694 230.676 134.04 230.733 133.602C230.397 128.734 228.357 124.147 224.979 120.666C219.396 114.97 207.944 113.206 201.176 121.45C201.176 121.45 195.718 124.793 194.693 130.443C193.667 136.092 196.425 144.024 199.091 144.013Z" fill="#263238"/>
<path d="M200.72 143.276C200.72 143.276 196.858 137.177 194.134 138.549C191.411 139.921 194.134 148.648 197.234 149.951C197.617 150.147 198.036 150.261 198.464 150.288C198.893 150.316 199.323 150.255 199.727 150.109C200.132 149.964 200.503 149.737 200.819 149.442C201.134 149.147 201.388 148.791 201.563 148.395L200.72 143.276Z" fill="#EB9481"/>
<path d="M194.989 141.027C194.989 141.027 194.921 141.097 194.989 141.108C197.142 142.1 198.213 144.209 198.943 146.365C198.823 146.139 198.656 145.942 198.454 145.787C198.251 145.632 198.019 145.523 197.771 145.467C197.523 145.411 197.267 145.41 197.019 145.464C196.771 145.517 196.537 145.624 196.333 145.777C196.276 145.777 196.333 145.904 196.333 145.893C196.723 145.788 197.136 145.807 197.515 145.948C197.894 146.088 198.221 146.342 198.453 146.677C198.834 147.24 199.155 147.843 199.41 148.475C199.512 148.683 199.866 148.591 199.797 148.36V148.302C199.991 145.478 197.974 141.431 194.989 141.027Z" fill="#263238"/>
<path d="M237.888 237.262H171.528V240.271H237.888V237.262Z" fill="#455A64"/>
<path d="M237.888 237.262H204.491V240.271H237.888V237.262Z" fill="#263238"/>
<path d="M205.266 240.27H140.593L131.455 195.836H196.128L205.266 240.27Z" fill="#37474F"/>
<path d="M173.374 219.092C173.447 219.643 173.4 220.204 173.238 220.735C173.076 221.267 172.802 221.757 172.435 222.171C172.068 222.585 171.616 222.914 171.112 223.135C170.607 223.355 170.061 223.463 169.511 223.45C168.333 223.423 167.203 222.968 166.329 222.167C165.454 221.367 164.893 220.276 164.749 219.092C164.676 218.54 164.722 217.979 164.885 217.448C165.047 216.916 165.321 216.426 165.688 216.012C166.055 215.598 166.506 215.269 167.011 215.049C167.516 214.828 168.062 214.72 168.611 214.734C169.791 214.758 170.922 215.212 171.797 216.013C172.672 216.814 173.232 217.907 173.374 219.092Z" fill="white"/>
<path d="M331.343 240.282H277.448V236.039L331.343 234.275V240.282Z" fill="#37474F"/>
<path d="M386.593 221.709H292.204L307.21 150.596H401.611L386.593 221.709Z" fill="#455A64"/>
<path d="M390.092 221.709H295.691L310.708 150.596H405.109L390.092 221.709Z" fill="#37474F"/>
<path d="M339.171 196.207H336.96L340.322 180.25H342.544L339.171 196.207Z" fill="#263238"/>
<path d="M343.546 196.207H341.335L344.697 180.25H346.907L343.546 196.207Z" fill="#263238"/>
<path d="M347.91 196.207H345.7L349.061 180.25H351.271L347.91 196.207Z" fill="#263238"/>
<path d="M352.285 196.207H350.063L353.425 180.25H355.647L352.285 196.207Z" fill="#263238"/>
<path d="M356.649 196.207H354.439L357.8 180.25H360.011L356.649 196.207Z" fill="#263238"/>
<path d="M361.014 196.207H358.803L362.165 180.25H364.375L361.014 196.207Z" fill="#263238"/>
<path d="M365.389 196.207H363.167L366.54 180.25H368.75L365.389 196.207Z" fill="#263238"/>
<path d="M363.395 240.282H316.963V236.627L363.395 235.105V240.282Z" fill="#455A64"/>
<path d="M376.02 240.271H351.089L336.072 200.426H361.002L376.02 240.271Z" fill="#455A64"/>
<path d="M380.121 240.271H355.191L340.173 200.426H365.104L380.121 240.271Z" fill="#263238"/>
<path d="M104.633 221.709H133.768L118.75 150.596H89.6152L104.633 221.709Z" fill="#455A64"/>
<path d="M101.135 221.709H130.27L115.263 150.596H86.1284L101.135 221.709Z" fill="#37474F"/>
<path d="M105.111 196.207H105.521L102.16 180.25H101.75L105.111 196.207Z" fill="#263238"/>
<path d="M105.989 196.207H106.399L103.038 180.25H102.627L105.989 196.207Z" fill="#263238"/>
<path d="M106.866 196.207H107.288L103.926 180.25H103.516L106.866 196.207Z" fill="#263238"/>
<path d="M107.755 196.207H108.165L104.804 180.25H104.394L107.755 196.207Z" fill="#263238"/>
<path d="M108.632 196.207H109.053L105.692 180.25H105.271L108.632 196.207Z" fill="#263238"/>
<path d="M109.521 196.207H109.931L106.57 180.25H106.16L109.521 196.207Z" fill="#263238"/>
<path d="M110.398 196.207H110.809L107.447 180.25H107.037L110.398 196.207Z" fill="#263238"/>
<path d="M111.275 196.207H111.697L108.336 180.25H107.914L111.275 196.207Z" fill="#263238"/>
<path d="M100.577 240.282H135.431V236.627L100.577 235.105V240.282Z" fill="#455A64"/>
<path d="M87.9517 240.271H101.306L116.323 200.426H102.969L87.9517 240.271Z" fill="#455A64"/>
<path d="M87.9517 240.271H97.2037L112.21 200.426H102.969L87.9517 240.271Z" fill="#263238"/>
<path d="M272.276 240.317H236.726C233.683 240.317 238.082 231.566 249.157 228.223C260.232 224.879 275.694 237.031 272.276 240.317Z" fill="#37474F"/>
<path d="M258.283 240.316C258.19 239.302 258.275 238.279 258.534 237.295C258.78 236.308 259.163 235.36 259.673 234.482C260.201 233.606 260.871 232.826 261.656 232.176C262.434 231.52 263.344 231.044 264.322 230.781C263.597 231.417 262.912 232.099 262.271 232.822C261.665 233.54 261.124 234.312 260.653 235.128C259.71 236.781 258.917 238.518 258.283 240.316Z" fill="#263238"/>
<path d="M262.488 231.992C263.587 232.219 264.658 232.571 265.679 233.041C266.699 233.512 267.676 234.075 268.596 234.725C269.537 235.381 270.371 236.182 271.068 237.1C271.822 237.996 272.227 239.14 272.208 240.316C271.801 239.314 271.178 238.416 270.384 237.688C269.614 236.95 268.787 236.276 267.912 235.67C266.191 234.402 264.3 233.283 262.488 231.992Z" fill="#263238"/>
<path d="M105.031 382.463H74.8481V387.836H105.031V382.463Z" fill="#455A64"/>
<path d="M121.394 461.035H118.135L91.5522 335.469L90.0368 328.31L85.2626 305.77L83.4851 297.365L76.7968 265.82L74.4609 254.775H86.0716L87.9631 265.82L89.205 273.072L90.0368 277.903L94.7996 305.77L96.3378 314.739L121.394 461.035Z" fill="#455A64"/>
<path d="M86.0716 254.775L87.9631 265.82H76.7968L74.4609 254.775H86.0716Z" fill="#263238"/>
<path d="M96.3375 314.739L91.552 335.469L90.0365 328.309L85.2624 305.769L83.4849 297.365L89.2048 273.072L90.0365 277.903L94.7993 305.769L96.3375 314.739Z" fill="#263238"/>
<path d="M105.601 254.775L103.265 265.82L94.7993 305.77L90.0365 328.31L61.927 461.035H58.6797L85.2623 305.77L90.0365 277.903L92.0989 265.82L93.9903 254.775H105.601Z" fill="#455A64"/>
<path d="M105.601 254.775L103.265 265.82H92.0991L93.9906 254.775H105.601Z" fill="#263238"/>
<path d="M424.513 254.775L380.839 461.035H377.592L412.902 254.775H424.513Z" fill="#455A64"/>
<path d="M393.373 254.775L437.047 461.035H440.294L404.984 254.775H393.373Z" fill="#455A64"/>
<path d="M423.943 382.463H393.76V387.836H423.943V382.463Z" fill="#455A64"/>
<path d="M442.357 240.283H56.6177V254.776H442.357V240.283Z" fill="#455A64"/>
<path d="M53.8033 368.572C45.4627 351.278 30.8782 342.32 14.4249 347.243C-2.02828 352.166 -4.60337 375.374 7.71376 381.231C20.0309 387.088 32.2682 369.978 38.7515 366.462C45.2348 362.946 53.8033 368.572 53.8033 368.572Z" fill="#E35454"/>
<path d="M61.8818 414.747C61.8818 412.648 61.7564 410.562 61.6767 408.475C61.5399 404.301 61.3956 400.127 61.2437 395.954C60.9588 388.31 60.1043 380.816 57.0278 373.783C54.2662 367.402 49.6526 362.022 43.7992 358.357C41.6254 357.028 39.2834 356.004 36.8373 355.313C34.621 353.048 31.8029 351.482 28.7247 350.805C24.9155 350.027 21.0008 349.934 17.1595 350.528C17.0228 350.528 17.0228 350.759 17.1595 350.747C20.8248 350.274 24.5465 350.54 28.1094 351.531C29.635 351.955 31.1128 352.539 32.5189 353.272C33.4098 353.751 34.2631 354.298 35.0712 354.909C31.7532 354.214 28.3265 354.245 25.0215 355.002C23.831 355.292 22.6651 355.677 21.5349 356.155C20.634 355.953 19.7103 355.875 18.7889 355.924C17.5891 355.96 16.3969 356.13 15.2339 356.431C12.8517 357.109 10.5739 358.118 8.46578 359.429C8.34044 359.498 8.46578 359.683 8.57972 359.613C10.6525 358.469 12.873 357.623 15.177 357.1C16.301 356.838 17.4442 356.668 18.5952 356.593C19.2252 356.558 19.8566 356.558 20.4867 356.593C15.8031 358.785 12.0373 362.583 9.85587 367.315C9.7989 367.442 9.98121 367.557 10.0382 367.419C11.3362 364.673 13.2294 362.26 15.577 360.357C17.9246 358.455 20.6661 357.113 23.5973 356.431C23.9505 356.339 24.3265 356.293 24.7367 356.212C24.6114 356.754 24.6341 357.365 24.5658 357.896C24.4518 358.737 24.3151 359.579 24.1442 360.409C23.7816 362.139 23.3135 363.845 22.7427 365.516C22.1854 367.2 21.5193 368.844 20.7487 370.439C20.0032 372.124 19.0705 373.718 17.9685 375.19C17.866 375.305 18.0597 375.455 18.1394 375.316C19.1307 373.748 20.2816 372.307 21.1817 370.705C22.0415 369.149 22.7842 367.531 23.4036 365.862C24.0349 364.173 24.5265 362.434 24.8734 360.663C25.0557 359.729 25.2038 358.783 25.3064 357.838C25.4202 357.273 25.4547 356.695 25.4089 356.12C27.3434 355.818 29.3087 355.776 31.2542 355.993C30.5249 360.132 29.7387 364.444 27.4485 368.041C27.3687 368.157 27.5738 368.272 27.6422 368.145C28.7094 366.237 29.6533 364.262 30.468 362.231C31.2176 360.239 31.6856 358.151 31.8581 356.028C35.2542 356.492 38.5328 357.603 41.5203 359.302C47.1494 362.623 51.6386 367.608 54.3844 373.587C57.3014 379.982 58.9395 386.898 59.2041 393.936C59.751 402.802 59.865 411.714 60.7423 420.557C60.7423 421.134 61.6995 421.33 61.8134 420.673C62.0186 418.704 62.0415 416.72 61.8818 414.747Z" fill="#263238"/>
<path d="M42.6029 356.96C42.0575 356.285 41.4207 355.691 40.7115 355.196C40.0278 354.62 39.3328 354.043 38.5922 353.559C37.1455 352.556 35.5435 351.804 33.8522 351.334C33.7154 351.334 33.6699 351.518 33.8522 351.553C35.5515 351.983 37.1429 352.768 38.5238 353.859C39.2188 354.378 39.8911 354.931 40.5406 355.508C41.1219 356.118 41.7633 356.666 42.4548 357.145C42.5346 357.237 42.6941 357.087 42.6029 356.96Z" fill="#263238"/>
<path d="M15.9859 363.209C14.6074 364.836 13.3325 366.55 12.1689 368.34C11.0263 370.137 10.0716 372.05 9.32031 374.047C9.32031 374.105 9.38868 374.139 9.42286 374.047C11.3294 370.273 13.5801 366.687 16.1454 363.336C16.2366 363.29 16.0771 363.14 15.9859 363.209Z" fill="#263238"/>
<path d="M33.932 361.538C33.7522 362.62 33.4343 363.674 32.9863 364.674C32.532 365.641 32.0024 366.57 31.4025 367.452C31.3934 367.464 31.3895 367.48 31.3917 367.495C31.3938 367.51 31.4018 367.524 31.4139 367.533C31.426 367.542 31.4412 367.546 31.4561 367.544C31.4711 367.542 31.4846 367.534 31.4937 367.521C32.9339 365.849 33.8536 363.783 34.1371 361.584C34.1371 361.445 33.9548 361.388 33.932 361.538Z" fill="#263238"/>
<path d="M60.7192 368.974C60.7192 368.974 72.5236 353.986 95.312 359.278C116.961 364.339 126.965 404.531 105.077 409.338C83.1886 414.146 87.0512 376.952 79.0753 370.646C73.2187 366.034 64.8098 367.037 60.7192 368.974Z" fill="#E35454"/>
<path d="M112.916 381.253C111.432 379.936 109.864 378.719 108.222 377.61C106.672 376.541 104.985 375.692 103.209 375.085C102.316 373.738 101.317 372.466 100.223 371.28C98.2314 369.093 95.927 367.22 93.3868 365.723H94.0704C95.2774 365.66 96.4868 365.66 97.6938 365.723C100.124 365.874 102.506 366.471 104.724 367.487C104.75 367.499 104.779 367.501 104.806 367.491C104.833 367.481 104.854 367.461 104.866 367.435C104.878 367.409 104.88 367.38 104.87 367.352C104.861 367.325 104.841 367.303 104.815 367.291C102.564 366.308 100.209 365.589 97.7963 365.147C96.6193 364.934 95.4256 364.83 94.2299 364.835C93.5918 364.835 92.9538 364.893 92.3157 364.951H91.9511C89.8656 363.879 87.6628 363.058 85.388 362.507L86.0147 362.334C87.1427 362.08 88.284 361.892 89.433 361.769C91.7065 361.501 94.0049 361.536 96.2695 361.872C96.4062 361.872 96.4518 361.676 96.2695 361.653C94.0013 361.38 91.7155 361.287 89.433 361.377C87.514 361.434 85.6055 361.685 83.7359 362.126C82.3617 361.872 80.9723 361.71 79.577 361.642C71.6011 361.307 62.9643 364.317 58.0762 370.923C53.188 377.529 52.0942 386.338 51.2282 394.339C49.8943 405.458 49.6006 416.68 50.3509 427.855C50.3509 428.524 51.3194 428.397 51.3422 427.774C51.6384 418.297 51.9689 408.82 52.869 399.377C53.2792 394.996 53.735 390.615 54.4528 386.28C54.9752 382.547 56.0347 378.911 57.5976 375.489C59.2907 371.996 61.9665 369.088 65.2887 367.13C68.6289 365.191 72.3538 364.03 76.1929 363.729C79.6408 363.443 83.1115 363.771 86.4477 364.697C86.3451 365.373 86.3451 366.062 86.4477 366.738C86.5167 367.596 86.685 368.444 86.949 369.263C87.1955 370.036 87.5121 370.785 87.8948 371.499C88.3163 372.295 88.8519 372.998 89.319 373.805C89.3988 373.921 89.5811 373.805 89.5013 373.678C88.56 372.326 87.9542 370.764 87.7352 369.124C87.589 368.363 87.4976 367.593 87.4618 366.818C87.4618 366.219 87.4618 365.666 87.4618 365.031C91.0776 366.156 94.4519 367.959 97.4089 370.346C97.9672 370.796 98.5483 371.269 99.0269 371.753C98.2721 372.46 97.62 373.271 97.0899 374.163C96.3105 375.315 95.6318 376.534 95.0617 377.806C94.0096 380.39 93.3008 383.104 92.9538 385.876C92.9538 386.015 93.1589 386.061 93.1703 385.876C93.5574 383.19 94.4017 380.592 95.6656 378.198C96.2695 377.032 96.943 375.903 97.6824 374.82C98.0698 374.266 98.4686 373.667 98.8218 373.183C99.0497 372.906 99.289 372.606 99.5054 372.306C102.188 374.964 104.377 378.088 105.966 381.53C104.885 382.679 103.986 383.989 103.3 385.415C102.482 386.899 101.77 388.441 101.169 390.027C100.063 393.101 99.1536 396.243 98.4458 399.435C98.4458 399.573 98.6281 399.619 98.6623 399.435C99.3559 396.237 100.439 393.139 101.887 390.212C102.57 388.77 103.288 387.352 104.052 385.946C104.839 384.642 105.554 383.295 106.194 381.91C107.711 385.274 108.592 388.895 108.792 392.587C108.792 392.736 109.02 392.713 109.008 392.587C108.589 386.793 106.837 381.179 103.892 376.192C105.282 376.791 106.684 377.345 108.028 378.106C109.733 379.013 111.321 380.128 112.757 381.426C112.882 381.518 113.019 381.345 112.916 381.253Z" fill="#263238"/>
<path d="M96.2013 382.106C95.5176 384.411 94.6517 386.59 94.0364 388.896C93.408 391.101 93.0709 393.381 93.0337 395.676C93.0337 395.676 93.1362 395.745 93.1362 395.676C93.7563 391.072 94.8523 386.547 96.4064 382.175C96.4172 382.16 96.4244 382.143 96.4275 382.125C96.4306 382.107 96.4294 382.089 96.424 382.071C96.4186 382.054 96.4092 382.038 96.3965 382.025C96.3839 382.012 96.3684 382.002 96.3512 381.996C96.3341 381.99 96.3159 381.989 96.298 381.992C96.2802 381.994 96.2632 382.001 96.2486 382.012C96.2339 382.023 96.222 382.037 96.2138 382.053C96.2056 382.069 96.2013 382.087 96.2013 382.106Z" fill="#263238"/>
<path d="M110.638 376.457C109.741 375.587 108.724 374.853 107.618 374.278C106.491 373.759 105.32 373.342 104.12 373.033C103.995 373.033 103.949 373.218 104.12 373.241C105.316 373.554 106.465 374.027 107.538 374.647C108.616 375.213 109.651 375.857 110.638 376.573C110.615 376.63 110.706 376.527 110.638 376.457Z" fill="#263238"/>
<path d="M71.9316 348.948C71.9316 348.948 74.1193 321.97 93.9338 313.207C110.49 305.898 119.958 324.737 108.268 336.266C98.7991 345.582 83.6221 341.373 71.9316 348.948Z" fill="#E35454"/>
<path d="M104.599 318.453C101.58 319.684 98.635 321.093 95.7795 322.673C93.4064 324.062 91.1229 325.603 88.943 327.285C89.262 326.605 89.5583 325.89 89.8887 325.221C90.4014 324.172 90.9597 323.157 91.5636 322.166C92.7877 320.126 94.2574 318.247 95.939 316.574C96.0416 316.482 95.8706 316.32 95.7795 316.424C94.1194 318.104 92.5953 319.916 91.2218 321.843C90.5433 322.824 89.9158 323.84 89.3418 324.887C88.7587 325.858 88.3102 326.905 88.0086 328L87.7922 328.161C84.3285 330.951 81.1558 334.092 78.3236 337.534C78.3806 337.269 78.4375 337.004 78.5059 336.762C78.8705 335.436 79.2807 334.133 79.6453 332.842C80.4988 330.071 81.7053 327.423 83.2345 324.967C83.3028 324.852 83.1091 324.737 83.0408 324.864C81.4789 327.32 80.0929 329.886 78.8933 332.542C78.3411 333.832 77.8841 335.162 77.526 336.52C77.2378 337.404 77.0206 338.31 76.8765 339.229C76.0106 340.382 75.1674 341.454 74.3584 342.607C65.8583 354.863 61.5855 369.69 60.56 384.528C60.2665 388.945 60.1942 393.374 60.3435 397.798C60.3693 402.265 60.7504 406.722 61.483 411.126C61.483 411.403 61.9729 411.322 61.9615 411.057C61.8704 407.16 61.4716 403.275 61.3918 399.378C61.3121 395.481 61.4602 391.549 61.7678 387.664C62.3876 379.877 63.8354 372.181 66.0862 364.709C68.3926 357.057 71.7896 349.786 76.1701 343.126C77.0019 342.953 77.8336 342.734 78.654 342.515C79.4744 342.296 80.6366 341.996 81.6165 341.72C83.5227 341.227 85.3743 340.54 87.1427 339.667C87.268 339.667 87.1427 339.414 87.0287 339.483C85.2822 340.45 83.387 341.113 81.4228 341.443C79.8732 341.754 78.2666 341.962 76.7056 342.319C78.1395 340.196 79.6797 338.149 81.3203 336.185C85.0973 336.537 88.9059 336.249 92.5891 335.332C94.5516 334.857 96.4813 334.252 98.366 333.522C100.349 332.75 102.229 331.747 104.188 330.917C104.214 330.904 104.234 330.882 104.244 330.855C104.253 330.828 104.252 330.798 104.24 330.772C104.228 330.746 104.206 330.726 104.179 330.717C104.152 330.707 104.123 330.708 104.097 330.721C100.557 332.672 96.6966 333.957 92.7031 334.514C89.1674 335.08 85.5948 335.377 82.0153 335.401C83.4168 333.764 84.8752 332.173 86.4249 330.674C91.632 325.659 97.819 321.047 104.656 318.649C104.781 318.615 104.781 318.396 104.599 318.453Z" fill="#263238"/>
<path d="M88.4645 318.534C87.5756 319.676 86.7647 320.878 86.0376 322.131C85.2839 323.449 84.6909 324.854 84.2715 326.317C84.2715 326.317 84.2715 326.386 84.3512 326.317C85.0121 325.002 85.5704 323.63 86.2313 322.304C86.8926 321.009 87.687 319.788 88.6013 318.661C88.7152 318.58 88.5557 318.419 88.4645 318.534Z" fill="#263238"/>
<path d="M106.9 327.469C105.608 328.185 104.245 328.761 102.832 329.187C101.477 329.652 100.096 330.037 98.6964 330.34C98.628 330.34 98.6964 330.466 98.6964 330.455C100.155 330.302 101.592 329.985 102.981 329.509C104.377 328.994 105.739 328.39 107.06 327.699C107.139 327.642 107.06 327.469 106.9 327.469Z" fill="#263238"/>
<path d="M56.5265 344.094C56.4012 345.247 53.5299 334.294 36.769 324.563C21.6033 315.732 3.37262 292.754 18.3104 278.227C30.3541 266.513 62.0869 292.062 56.5265 344.094Z" fill="#E35454"/>
<path d="M68.0685 406.929C67.819 395.519 66.9289 384.133 65.4022 372.825C64.0801 362.435 61.7092 352.209 58.3265 342.307C57.0731 338.745 55.6488 335.228 54.1106 331.781C54.1964 330.436 54.1736 329.087 54.0422 327.746C53.9511 326.016 53.803 324.287 53.6434 322.569C53.4839 320.851 53.313 319.11 53.1079 317.415C52.9028 315.721 52.5496 313.957 52.4812 312.273C52.4868 312.256 52.4883 312.238 52.4856 312.22C52.4828 312.202 52.4758 312.184 52.4653 312.17C52.4547 312.155 52.4408 312.143 52.4248 312.135C52.4088 312.126 52.391 312.122 52.373 312.122C52.355 312.122 52.3372 312.126 52.3212 312.135C52.3051 312.143 52.2912 312.155 52.2807 312.17C52.2701 312.184 52.2632 312.202 52.2604 312.22C52.2576 312.238 52.2591 312.256 52.2647 312.273C52.6033 314.073 52.8052 315.896 52.8686 317.727C52.994 319.387 53.0851 321.059 53.1421 322.719C53.1991 324.379 53.1421 326.062 53.1421 327.734C53.1421 328.334 53.1421 328.968 53.1421 329.613C51.5697 326.247 49.872 322.926 48.0489 319.698C49.1883 312.665 47.7071 305.321 46.2942 298.438C46.2942 298.3 46.0549 298.369 46.0777 298.507C46.7878 302.096 47.1692 305.743 47.2171 309.402C47.2855 312.285 47.1487 315.167 47.1374 318.061C46.7386 317.369 46.3398 316.678 45.9296 315.997C43.7267 312.423 41.3909 308.945 38.9221 305.563C39.116 303.896 39.0584 302.209 38.7512 300.56C38.4877 298.688 38.0878 296.838 37.5548 295.025C37.0231 293.227 36.404 291.459 35.6976 289.722C34.9683 287.946 33.9998 286.263 33.3048 284.465C33.2988 284.452 33.2904 284.44 33.28 284.431C33.2696 284.421 33.2574 284.414 33.2442 284.409C33.231 284.404 33.2169 284.402 33.2029 284.402C33.1889 284.403 33.1751 284.407 33.1624 284.413C33.1497 284.419 33.1382 284.427 33.1288 284.438C33.1193 284.448 33.112 284.461 33.1072 284.474C33.1025 284.487 33.1004 284.502 33.101 284.516C33.1017 284.53 33.1051 284.544 33.1111 284.557C33.9994 286.246 34.7025 288.028 35.2076 289.872C35.7593 291.605 36.2157 293.368 36.5749 295.152C36.9282 296.939 37.2244 298.726 37.4637 300.525C37.6346 301.678 37.7371 302.958 37.9422 304.168C34.3532 299.286 30.4317 294.663 26.2062 290.333C26.1037 290.229 25.9669 290.391 26.0581 290.494C32.4428 297.76 38.1455 305.61 43.0924 313.945L43.6279 314.89C42.705 314.302 41.6454 313.841 40.7794 313.357C39.1614 312.45 37.532 311.543 35.8913 310.636C34.2505 309.729 32.6705 308.853 31.1513 308.007C30.3309 307.558 29.5333 307.074 28.7015 306.647C27.713 306.199 26.7639 305.667 25.8644 305.056C25.7391 304.964 25.6023 305.16 25.7391 305.229C27.3456 306.128 28.7813 307.466 30.2967 308.469C31.8122 309.472 33.4529 310.452 35.0823 311.374C38.0676 313.057 41.3035 314.268 44.1976 315.986C46.2372 319.583 48.1059 323.284 49.8947 327.042C48.1173 325.889 46.2942 324.737 44.4483 323.745C43.3089 323.076 42.0783 322.419 40.8705 321.773C39.6595 321.215 38.5132 320.523 37.4523 319.71C37.4303 319.693 37.4032 319.685 37.3758 319.687C37.3485 319.689 37.3227 319.701 37.3034 319.72C37.284 319.74 37.2722 319.766 37.2703 319.794C37.2683 319.821 37.2763 319.849 37.2928 319.871C39.2484 321.641 41.4103 323.163 43.7305 324.402C45.884 325.67 48.0603 326.904 50.3049 328.011C52.09 331.985 53.7042 336.031 55.1475 340.151C62.2119 360.362 64.7984 381.818 66.0403 403.124C66.4049 409.477 66.5986 415.807 66.6784 422.182C66.7582 428.558 66.4163 434.865 66.4391 441.24C66.4391 441.425 66.7354 441.471 66.7695 441.24C67.5216 435.603 67.6469 429.873 67.909 424.2C68.171 418.528 68.1938 412.694 68.0685 406.929Z" fill="#263238"/>
<path d="M37.6123 315.432C34.5528 314.064 31.5807 312.505 28.7134 310.762C25.7984 309.112 22.9759 307.299 20.259 305.332C20.259 305.332 20.1564 305.332 20.259 305.413C22.828 307.522 25.5388 309.448 28.3716 311.177C31.3402 312.846 34.4072 314.328 37.5553 315.616C37.6351 315.674 37.749 315.478 37.6123 315.432Z" fill="#263238"/>
<path d="M42.4774 292.58C42.2268 291.6 41.9191 290.632 41.5887 289.663C41.6 289.646 41.606 289.626 41.606 289.606C41.606 289.585 41.6 289.565 41.5887 289.548L40.9734 287.923C40.9558 287.854 40.929 287.788 40.8936 287.727C40.8936 287.623 40.8139 287.519 40.7683 287.415C40.7227 287.311 40.7683 287.415 40.7683 287.415C40.7683 287.415 40.8709 287.796 40.9278 287.98C40.9343 288.077 40.9495 288.174 40.9734 288.268C42.0749 292.046 42.905 295.899 43.4573 299.798C43.4573 299.913 43.6624 299.925 43.651 299.798C43.4818 297.36 43.0889 294.944 42.4774 292.58Z" fill="#263238"/>
<path d="M85.7753 411.021L84.5789 425.364L80.9214 469.106H41.7026L38.045 425.364L36.8486 411.021H85.7753Z" fill="#37474F"/>
<path d="M85.7753 411.021L84.5789 425.364H38.045L36.8486 411.021H85.7753Z" fill="#263238"/>
<path d="M89.6153 405.27H32.9976V419.024H89.6153V405.27Z" fill="#37474F"/>
</svg>
