<svg width="212" height="221" viewBox="0 0 212 221" fill="none" xmlns="http://www.w3.org/2000/svg">
<path d="M106.381 206.216C159.893 206.216 203.273 186.381 203.273 161.913C203.273 137.445 159.893 117.609 106.381 117.609C52.8683 117.609 9.48804 137.445 9.48804 161.913C9.48804 186.381 52.8683 206.216 106.381 206.216Z" fill="#FAFAFA"/>
<path d="M169.705 172.256C181.167 172.256 190.46 167.626 190.46 161.913C190.46 156.201 181.167 151.57 169.705 151.57C158.242 151.57 148.95 156.201 148.95 161.913C148.95 167.626 158.242 172.256 169.705 172.256Z" fill="#EBEBEB"/>
<path d="M40.7935 150.559C40.7935 150.559 41.2156 142.096 37.1837 136.124C33.1518 130.151 28.0898 130.027 26.059 130.879C24.0283 131.731 22.4789 134.561 25.6369 136.989C28.7948 139.417 35.5119 144.321 36.3605 148.206L40.7935 150.559Z" fill="#208A51"/>
<path opacity="0.15" d="M40.7935 150.559C40.7935 150.559 41.2156 142.096 37.1837 136.124C33.1518 130.151 28.0898 130.027 26.059 130.879C24.0283 131.731 22.4789 134.561 25.6369 136.989C28.7948 139.417 35.5119 144.321 36.3605 148.206L40.7935 150.559Z" fill="black"/>
<path d="M39.32 148.876C39.2713 148.876 39.2241 148.859 39.1864 148.827C39.1487 148.795 39.1228 148.75 39.1131 148.7C36.8755 137.156 30.3358 133.925 27.6295 133.068C27.5758 133.052 27.5305 133.014 27.5035 132.963C27.4766 132.911 27.4703 132.851 27.486 132.795C27.5034 132.739 27.541 132.693 27.5907 132.665C27.6404 132.638 27.6982 132.632 27.752 132.649C30.53 133.532 37.2428 136.834 39.5268 148.612C39.533 148.64 39.5336 148.67 39.5285 148.698C39.5235 148.727 39.513 148.754 39.4976 148.779C39.4822 148.803 39.4623 148.824 39.439 148.84C39.4158 148.856 39.3896 148.867 39.3622 148.872L39.32 148.876Z" fill="white"/>
<path d="M37.0274 145.677C36.1366 142.882 34.9629 141.554 31.2434 141.849C27.524 142.145 28.0686 142.096 23.6694 140.468C19.2702 138.839 15.9855 140.468 15.5 142.26C14.9723 144.193 18.5735 145.407 21.2038 146.948C23.834 148.489 25.5734 150.294 24.6953 152.81C23.9438 154.969 24.1338 156.872 27.3213 157.984C30.1584 158.973 33.4008 157.516 34.3423 160.527C34.8785 162.244 37.4285 164.301 40.0545 162.999C44.7535 158.88 44.0189 153.243 41.5702 149.345C40.4936 147.632 37.5636 147.358 37.0274 145.677Z" fill="#208A51"/>
<path d="M39.6408 158.161C39.5968 158.161 39.5538 158.147 39.5181 158.12C39.4824 158.093 39.4559 158.054 39.4424 158.011C36.6728 149.764 23.6314 142.609 18.8649 141.801C18.8099 141.79 18.761 141.757 18.7287 141.709C18.6964 141.662 18.6831 141.602 18.6918 141.545C18.6959 141.516 18.7054 141.489 18.7198 141.464C18.7342 141.439 18.7532 141.418 18.7756 141.401C18.798 141.384 18.8235 141.372 18.8504 141.366C18.8773 141.359 18.9052 141.359 18.9324 141.364C23.7707 142.189 37.019 149.469 39.8393 157.865C39.8583 157.92 39.8556 157.981 39.8319 158.034C39.8081 158.086 39.7652 158.127 39.7126 158.147L39.6408 158.161Z" fill="white"/>
<path d="M27.9461 153.675C27.9139 153.674 27.8821 153.667 27.8529 153.652C27.8238 153.638 27.7979 153.617 27.7772 153.591C27.7443 153.544 27.7298 153.486 27.7369 153.428C27.7439 153.371 27.772 153.318 27.8152 153.282C29.9263 151.75 32.4232 150.904 34.9925 150.85C35.0484 150.85 35.1021 150.873 35.1417 150.914C35.1813 150.956 35.2036 151.012 35.2036 151.07C35.2036 151.129 35.1813 151.185 35.1417 151.226C35.1021 151.268 35.0484 151.291 34.9925 151.291C32.5212 151.358 30.1205 152.167 28.077 153.622C28.0404 153.655 27.9942 153.673 27.9461 153.675Z" fill="white"/>
<path d="M121.047 31.4355V111.796L42.9719 158.925L44.7325 162.695L121.047 116.63L124.459 116.961V31.7799L121.047 31.4355Z" fill="#F0F0F0"/>
<path d="M105.355 75.6724L105.992 74.741L101.96 72.3042H101.931C101.634 72.1255 101.283 72.0716 100.95 72.1536C100.617 72.2357 100.326 72.4473 100.137 72.7456L89.0161 90.6462L77.4945 80.2149L77.9716 79.4644L73.9777 77.0541C73.6789 76.8663 73.322 76.8073 72.9824 76.8897C72.6428 76.9721 72.3472 77.1894 72.1581 77.4956L42.9763 123.278V156.064L46.9787 158.479L119.046 112.568V89.441L105.355 75.6724Z" fill="#F0F0F0"/>
<path d="M46.9785 158.478V125.696L76.156 79.9009C76.2617 79.7339 76.4003 79.5923 76.5625 79.4857C76.7247 79.3791 76.9068 79.31 77.0966 79.2828C77.2864 79.2556 77.4796 79.2711 77.6632 79.3282C77.8468 79.3854 78.0167 79.4828 78.1614 79.614L93.0183 93.0648L104.139 75.1642C104.247 74.99 104.391 74.8429 104.56 74.7335C104.73 74.6242 104.92 74.5552 105.117 74.5316C105.315 74.508 105.515 74.5303 105.704 74.5969C105.892 74.6635 106.064 74.7728 106.207 74.917L123.044 91.8597V111.177C123.044 111.598 122.939 112.012 122.738 112.377C122.537 112.741 122.248 113.045 121.9 113.256L46.9785 158.478Z" fill="#FAFAFA"/>
<path d="M93.0183 93.0655L99.0261 98.5041L93.7698 91.8604L93.0183 93.0655Z" fill="#F0F0F0"/>
<path d="M127.038 30.124C127.034 30.0776 127.026 30.0318 127.013 29.9872C126.954 29.6599 126.832 29.3485 126.655 29.0716C126.478 28.7947 126.25 28.5581 125.983 28.3759L124.113 27.2458C123.782 27.0695 123.416 26.9775 123.044 26.9775C122.673 26.9775 122.307 27.0695 121.976 27.2458L40.042 76.7097C39.7269 76.9182 39.4659 77.2048 39.2821 77.544C39.0923 77.8773 38.9863 78.2555 38.9739 78.6432V163.074C38.994 163.461 39.1012 163.838 39.2868 164.174C39.4724 164.51 39.7311 164.796 40.042 165.007L41.9081 166.137C42.1985 166.29 42.5158 166.379 42.8403 166.399C43.1649 166.419 43.4899 166.369 43.7953 166.252L43.8713 166.221C43.9317 166.2 43.9897 166.172 44.0444 166.137L67.7503 151.826L125.983 116.674C126.293 116.461 126.551 116.175 126.737 115.84C126.922 115.504 127.03 115.127 127.051 114.74V30.305C127.068 30.2432 127.043 30.1814 127.038 30.124ZM124.459 113.257C124.439 113.645 124.331 114.022 124.144 114.358C123.958 114.694 123.698 114.979 123.386 115.19L67.117 148.987L46.0456 161.891C45.4587 162.244 44.9774 161.957 44.9774 161.246V82.2674C44.99 81.8805 45.0976 81.5035 45.2898 81.1727C45.4648 80.8281 45.726 80.5398 46.0456 80.3383L123.386 33.6379C123.982 33.276 124.459 33.5629 124.459 34.278V113.257Z" fill="white"/>
<path d="M44.0444 166.137C43.9897 166.172 43.9317 166.2 43.8713 166.221L43.7953 166.252C43.4899 166.369 43.1649 166.419 42.8403 166.399C42.5158 166.379 42.1985 166.29 41.9081 166.137L40.042 165.007C39.7311 164.796 39.4724 164.51 39.2868 164.174C39.1012 163.838 38.994 163.461 38.9739 163.074V78.6431C38.9863 78.2554 39.0923 77.8773 39.2821 77.5439L43.2844 79.9586C43.9346 80.3515 44.6059 80.7532 45.2898 81.1726C45.0976 81.5035 44.99 81.8805 44.9774 82.2674V161.246C44.9774 161.957 45.4587 162.244 46.0456 161.891L44.0444 166.137Z" fill="#F0F0F0"/>
<path d="M127.038 30.1242C127.034 30.0778 127.026 30.032 127.013 29.9874C126.886 29.5195 126.473 29.365 125.983 29.6607L44.0443 79.1334C43.7308 79.3416 43.4698 79.6255 43.2832 79.9612C43.0965 80.297 42.9898 80.6746 42.9719 81.0625V165.493C42.9719 166.098 43.3223 166.398 43.791 166.252L43.867 166.222C43.9274 166.2 43.9854 166.172 44.0401 166.138L125.979 116.696C126.289 116.483 126.547 116.198 126.732 115.862C126.918 115.526 127.026 115.15 127.047 114.762V30.3052C127.068 30.2434 127.043 30.1816 127.038 30.1242ZM124.459 113.257C124.438 113.645 124.331 114.022 124.144 114.358C123.958 114.694 123.698 114.98 123.386 115.191L46.0455 161.891C45.4586 162.244 44.9773 161.957 44.9773 161.246V82.2676C44.9899 81.8807 45.0975 81.5037 45.2897 81.1729C45.4648 80.8283 45.726 80.54 46.0455 80.3385L123.386 33.6381C123.982 33.2762 124.459 33.5631 124.459 34.2782V113.257Z" fill="#FAFAFA"/>
<path d="M112.743 55.2686L114.765 51.6752L111.303 49.5651C110.286 48.9559 108.884 49.0442 107.339 49.9801C104.24 51.8518 101.724 56.4031 101.724 60.1333C101.724 61.9785 102.34 63.2808 103.328 63.9032H103.358L106.693 65.9294L108.627 62.5038C110.69 60.6025 112.13 58.0717 112.743 55.2686Z" fill="#F0F0F0"/>
<path d="M114.698 61.2147C116.89 57.2453 116.891 52.9552 114.7 51.6326C112.509 50.31 108.956 52.4556 106.764 56.425C104.572 60.3945 104.572 64.6845 106.762 66.0071C108.953 67.3298 112.506 65.1841 114.698 61.2147Z" fill="#FAFAFA"/>
<path d="M130.758 37.1748V117.535L52.6824 164.664L54.4429 168.434L130.758 122.369L134.169 122.7V37.5191L130.758 37.1748Z" fill="#EBEBEB"/>
<path d="M115.065 81.4117L115.703 80.4802L111.671 78.0434H111.641C111.345 77.8647 110.994 77.8109 110.661 77.8929C110.327 77.9749 110.036 78.1866 109.847 78.4849L98.7265 96.3854L87.205 85.9541L87.6821 85.2037L83.6881 82.7934C83.3894 82.6055 83.0325 82.5466 82.6929 82.629C82.3533 82.7113 82.0576 82.9286 81.8685 83.2348L52.6868 129.017V161.803L56.6891 164.218L128.757 118.308V95.1803L115.065 81.4117Z" fill="#EBEBEB"/>
<path d="M56.689 164.217V131.436L85.8665 85.6402C85.9722 85.4731 86.1108 85.3316 86.273 85.225C86.4352 85.1184 86.6173 85.0492 86.8071 85.0221C86.9969 84.9949 87.19 85.0104 87.3737 85.0675C87.5573 85.1246 87.7271 85.222 87.8719 85.3533L102.729 98.8041L113.849 80.9035C113.958 80.7292 114.102 80.5821 114.271 80.4728C114.44 80.3634 114.63 80.2945 114.828 80.2709C115.026 80.2472 115.226 80.2695 115.414 80.3362C115.603 80.4028 115.775 80.5121 115.918 80.6563L132.755 97.5989V116.917C132.755 117.337 132.649 117.751 132.448 118.116C132.248 118.481 131.959 118.784 131.611 118.996L56.689 164.217Z" fill="#F5F5F5"/>
<path d="M102.729 98.8048L108.737 104.243L103.48 97.5996L102.729 98.8048Z" fill="#EBEBEB"/>
<path d="M136.749 35.8633C136.745 35.8169 136.736 35.771 136.724 35.7264C136.664 35.3992 136.543 35.0877 136.366 34.8109C136.189 34.534 135.96 34.2973 135.693 34.1152L133.823 32.9851C133.492 32.8087 133.126 32.7168 132.755 32.7168C132.384 32.7168 132.018 32.8087 131.687 32.9851L49.7525 82.4489C49.4374 82.6574 49.1764 82.944 48.9925 83.2832C48.8028 83.6166 48.6968 83.9947 48.6843 84.3824V168.813C48.7045 169.2 48.8117 169.577 48.9973 169.913C49.1829 170.249 49.4416 170.535 49.7525 170.747L51.6185 171.877C51.909 172.03 52.2262 172.119 52.5508 172.138C52.8753 172.158 53.2003 172.108 53.5057 171.991L53.5817 171.961C53.6421 171.939 53.7001 171.911 53.7548 171.877L77.4608 157.565L135.693 122.413C136.004 122.2 136.262 121.915 136.447 121.579C136.633 121.243 136.74 120.867 136.762 120.479V36.0443C136.778 35.9825 136.753 35.9207 136.749 35.8633ZM134.169 118.996C134.149 119.384 134.041 119.761 133.855 120.097C133.669 120.433 133.409 120.719 133.097 120.93L76.8275 154.727L55.756 167.63C55.1692 167.983 54.6879 167.696 54.6879 166.985V88.0067C54.7004 87.6198 54.808 87.2428 55.0003 86.9119C55.1753 86.5674 55.4365 86.279 55.756 86.0776L133.097 39.3772C133.692 39.0152 134.169 39.3021 134.169 40.0173V118.996Z" fill="#FAFAFA"/>
<path d="M53.7548 171.877C53.7001 171.911 53.6421 171.939 53.5817 171.961L53.5057 171.991C53.2003 172.108 52.8753 172.158 52.5508 172.138C52.2262 172.119 51.909 172.029 51.6185 171.877L49.7525 170.747C49.4416 170.535 49.1829 170.249 48.9973 169.913C48.8117 169.577 48.7045 169.2 48.6843 168.813V84.3824C48.6968 83.9947 48.8028 83.6166 48.9925 83.2832L52.9949 85.6979C53.6451 86.0908 54.3163 86.4925 55.0003 86.9119C54.808 87.2427 54.7004 87.6197 54.6879 88.0067V166.985C54.6879 167.696 55.1692 167.983 55.756 167.63L53.7548 171.877Z" fill="#F0F0F0"/>
<path d="M136.749 35.8635C136.745 35.8171 136.736 35.7712 136.723 35.7267C136.597 35.2587 136.183 35.1042 135.693 35.4L53.7547 84.8726C53.4413 85.0808 53.1802 85.3648 52.9936 85.7005C52.807 86.0362 52.7002 86.4139 52.6824 86.8018V171.232C52.6824 171.837 53.0328 172.137 53.5014 171.992L53.5774 171.961C53.6378 171.939 53.6958 171.911 53.7505 171.877L135.689 122.435C135.999 122.223 136.257 121.937 136.443 121.601C136.628 121.265 136.736 120.889 136.757 120.502V36.0445C136.778 35.9827 136.753 35.9209 136.749 35.8635ZM134.169 118.996C134.149 119.384 134.041 119.762 133.855 120.098C133.668 120.434 133.409 120.719 133.097 120.93L55.7559 167.63C55.1691 167.983 54.6878 167.696 54.6878 166.986V88.0069C54.7003 87.62 54.8079 87.243 55.0002 86.9121C55.1752 86.5676 55.4364 86.2792 55.7559 86.0778L133.097 39.3774C133.692 39.0154 134.169 39.3024 134.169 40.0175V118.996Z" fill="#F5F5F5"/>
<path d="M122.453 61.0078L124.476 57.4145L121.014 55.3044C119.996 54.6952 118.595 54.7835 117.049 55.7193C113.951 57.591 111.434 62.1423 111.434 65.8725C111.434 67.7178 112.051 69.02 113.039 69.6425H113.068H113.089L116.425 71.6687L118.358 68.2431C120.414 66.3387 121.846 63.8081 122.453 61.0078Z" fill="#EBEBEB"/>
<path d="M124.412 66.9549C126.604 62.9855 126.604 58.6955 124.413 57.3728C122.223 56.0502 118.67 58.1958 116.478 62.1653C114.286 66.1347 114.285 70.4247 116.476 71.7474C118.667 73.07 122.22 70.9244 124.412 66.9549Z" fill="#F5F5F5"/>
<path d="M140.468 42.9131V123.274L62.3926 170.402L64.1573 174.172L140.468 128.107L143.879 128.439V43.2574L140.468 42.9131Z" fill="#E0E0E0"/>
<path d="M124.775 87.1499L125.413 86.2185L121.381 83.7817H121.352C121.055 83.603 120.704 83.5492 120.371 83.6312C120.037 83.7132 119.747 83.9249 119.557 84.2232L108.437 102.124L96.9152 91.6924L97.3923 90.9419L93.3983 88.5317C93.0996 88.3438 92.7427 88.2849 92.4031 88.3672C92.0635 88.4496 91.7678 88.6669 91.5787 88.9731L62.397 134.755V167.541L66.3993 169.956L138.467 124.046V100.919L124.775 87.1499Z" fill="#E6E6E6"/>
<path d="M66.3992 169.956V137.174L95.5767 91.3785C95.6824 91.2114 95.821 91.0699 95.9832 90.9633C96.1454 90.8567 96.3275 90.7875 96.5173 90.7603C96.7071 90.7332 96.9002 90.7487 97.0839 90.8058C97.2675 90.8629 97.4373 90.9603 97.5821 91.0915L112.439 104.542L123.559 86.6418C123.668 86.4675 123.812 86.3204 123.981 86.2111C124.15 86.1017 124.341 86.0328 124.538 86.0091C124.736 85.9855 124.936 86.0078 125.124 86.0744C125.313 86.1411 125.485 86.2504 125.628 86.3946L142.465 103.337V122.655C142.465 123.076 142.359 123.489 142.158 123.854C141.958 124.219 141.669 124.522 141.321 124.734L66.3992 169.956Z" fill="#EBEBEB"/>
<path d="M112.439 104.543L118.447 109.982L113.19 103.338L112.439 104.543Z" fill="#E6E6E6"/>
<path d="M146.459 41.6016C146.455 41.5552 146.447 41.5093 146.434 41.4647C146.375 41.1375 146.253 40.826 146.076 40.5491C145.899 40.2723 145.67 40.0356 145.404 39.8535L143.533 38.7234C143.202 38.547 142.836 38.4551 142.465 38.4551C142.094 38.4551 141.728 38.547 141.397 38.7234L59.4627 88.1872C59.1476 88.3957 58.8866 88.6823 58.7027 89.0215C58.513 89.3549 58.407 89.733 58.3945 90.1207V174.551C58.4147 174.939 58.5219 175.316 58.7075 175.652C58.8931 175.988 59.1518 176.273 59.4627 176.485L61.3287 177.615C61.6192 177.768 61.9364 177.857 62.261 177.877C62.5855 177.896 62.9105 177.846 63.2159 177.73L63.2919 177.699C63.3523 177.677 63.4104 177.649 63.465 177.615L87.171 163.303L145.404 128.151C145.714 127.939 145.972 127.653 146.157 127.317C146.343 126.981 146.451 126.605 146.472 126.218V41.7826C146.489 41.7208 146.463 41.659 146.459 41.6016ZM143.879 124.734C143.859 125.122 143.751 125.5 143.565 125.836C143.379 126.172 143.119 126.457 142.807 126.668L86.5377 160.465L65.4662 173.368C64.8794 173.721 64.3981 173.434 64.3981 172.724V93.745C64.4106 93.3581 64.5182 92.9811 64.7105 92.6502C64.8855 92.3057 65.1467 92.0173 65.4662 91.8159L142.807 45.1155C143.402 44.7535 143.879 45.0404 143.879 45.7556V124.734Z" fill="#F0F0F0"/>
<path d="M63.465 177.615C63.4104 177.649 63.3523 177.677 63.2919 177.699L63.2159 177.73C62.9105 177.846 62.5855 177.896 62.261 177.877C61.9364 177.857 61.6192 177.768 61.3287 177.615L59.4627 176.485C59.1518 176.273 58.8931 175.988 58.7075 175.652C58.5219 175.316 58.4147 174.939 58.3945 174.551V90.1207C58.407 89.733 58.513 89.3548 58.7027 89.0215L62.7051 91.4362C63.3553 91.8291 64.0265 92.2308 64.7105 92.6502C64.5182 92.981 64.4106 93.358 64.3981 93.7449V172.724C64.3981 173.434 64.8794 173.721 65.4662 173.368L63.465 177.615Z" fill="#E0E0E0"/>
<path d="M146.459 41.6018C146.455 41.5554 146.446 41.5095 146.434 41.4649C146.307 40.997 145.893 40.8425 145.403 41.1383L63.4649 90.6109C63.1515 90.8191 62.8904 91.1031 62.7038 91.4388C62.5172 91.7745 62.4104 92.1522 62.3926 92.54V176.971C62.3926 177.575 62.743 177.876 63.2116 177.73L63.2876 177.699C63.348 177.678 63.406 177.65 63.4607 177.615L145.399 128.173C145.709 127.961 145.968 127.675 146.153 127.339C146.339 127.004 146.446 126.627 146.467 126.24V41.7828C146.489 41.721 146.463 41.6592 146.459 41.6018ZM143.879 124.735C143.859 125.122 143.751 125.5 143.565 125.836C143.379 126.172 143.119 126.457 142.807 126.668L65.4661 173.368C64.8793 173.722 64.398 173.435 64.398 172.724V93.7452C64.4105 93.3583 64.5181 92.9813 64.7104 92.6504C64.8854 92.3059 65.1466 92.0175 65.4661 91.8161L142.807 45.1157C143.402 44.7537 143.879 45.0406 143.879 45.7558V124.735Z" fill="#EBEBEB"/>
<path d="M132.164 66.7461L134.186 63.1527L130.724 61.0426C129.707 60.4334 128.305 60.5217 126.76 61.4576C123.661 63.3293 121.145 67.8806 121.145 71.6108C121.145 73.4561 121.761 74.7583 122.749 75.3807H122.778H122.8L126.135 77.407L128.068 73.9814C130.124 72.0769 131.556 69.5464 132.164 66.7461Z" fill="#E6E6E6"/>
<path d="M134.121 72.6942C136.313 68.7248 136.314 64.4347 134.123 63.1121C131.932 61.7895 128.379 63.9351 126.187 67.9045C123.996 71.8739 123.995 76.164 126.186 77.4866C128.377 78.8093 131.93 76.6636 134.121 72.6942Z" fill="#EBEBEB"/>
<path d="M150.601 49.0938V129.454L72.5251 176.583L74.2899 180.353L150.601 134.288L154.012 134.619V49.4381L150.601 49.0938Z" fill="#263238"/>
<path d="M134.908 93.3306L135.546 92.3992L131.514 89.9624H131.484C131.187 89.7837 130.837 89.7298 130.503 89.8119C130.17 89.8939 129.879 90.1055 129.69 90.4038L118.569 108.304L107.048 97.8731L107.525 97.1226L103.531 94.7123C103.232 94.5245 102.875 94.4655 102.536 94.5479C102.196 94.6303 101.9 94.8476 101.711 95.1538L72.5295 140.936V173.722L76.5319 176.137L148.6 130.227V107.099L134.908 93.3306Z" fill="#208A51"/>
<path opacity="0.15" d="M134.908 93.3306L135.546 92.3992L131.514 89.9624H131.484C131.187 89.7837 130.837 89.7298 130.503 89.8119C130.17 89.8939 129.879 90.1055 129.69 90.4038L118.569 108.304L107.048 97.8731L107.525 97.1226L103.531 94.7123C103.232 94.5245 102.875 94.4655 102.536 94.5479C102.196 94.6303 101.9 94.8476 101.711 95.1538L72.5295 140.936V173.722L76.5319 176.137L148.6 130.227V107.099L134.908 93.3306Z" fill="black"/>
<path d="M76.5317 176.136V143.355L105.709 97.5591C105.815 97.3921 105.954 97.2505 106.116 97.1439C106.278 97.0373 106.46 96.9682 106.65 96.941C106.84 96.9138 107.033 96.9293 107.216 96.9864C107.4 97.0436 107.57 97.141 107.715 97.2722L122.572 110.723L133.692 92.8224C133.801 92.6482 133.945 92.5011 134.114 92.3917C134.283 92.2824 134.473 92.2134 134.671 92.1898C134.868 92.1662 135.068 92.1885 135.257 92.2551C135.445 92.3217 135.617 92.431 135.761 92.5752L152.598 109.518V128.835C152.598 129.256 152.492 129.67 152.291 130.035C152.09 130.4 151.801 130.703 151.453 130.915L76.5317 176.136Z" fill="#208A51"/>
<path opacity="0.15" d="M122.572 110.724L128.579 116.162L123.323 109.519L122.572 110.724Z" fill="black"/>
<path d="M156.592 47.7822C156.588 47.7358 156.579 47.69 156.566 47.6454C156.507 47.3181 156.386 47.0067 156.209 46.7298C156.032 46.4529 155.803 46.2163 155.536 46.0341L153.666 44.904C153.335 44.7277 152.969 44.6357 152.598 44.6357C152.226 44.6357 151.86 44.7277 151.53 44.904L69.5952 94.3679C69.2802 94.5764 69.0191 94.863 68.8353 95.2022C68.6456 95.5355 68.5395 95.9137 68.5271 96.3014V180.732C68.5472 181.119 68.6545 181.496 68.8401 181.832C69.0256 182.168 69.2844 182.454 69.5952 182.666L71.4613 183.796C71.7517 183.948 72.069 184.038 72.3936 184.057C72.7181 184.077 73.0431 184.027 73.3485 183.91L73.4245 183.88C73.4849 183.858 73.5429 183.83 73.5976 183.796L97.3035 169.484L155.536 134.332C155.846 134.119 156.105 133.834 156.29 133.498C156.476 133.162 156.583 132.785 156.604 132.398V47.9632C156.621 47.9014 156.596 47.8396 156.592 47.7822ZM154.012 130.915C153.992 131.303 153.884 131.68 153.698 132.016C153.511 132.352 153.252 132.638 152.94 132.849L96.6703 166.646L75.5988 179.549C75.0119 179.902 74.5306 179.615 74.5306 178.904V99.9256C74.5432 99.5387 74.6508 99.1617 74.8431 98.8309C75.0181 98.4863 75.2793 98.198 75.5988 97.9965L152.94 51.2961C153.535 50.9342 154.012 51.2211 154.012 51.9362V130.915Z" fill="#455A64"/>
<path d="M73.5976 183.796C73.5429 183.83 73.4849 183.858 73.4245 183.879L73.3485 183.91C73.0431 184.027 72.7181 184.077 72.3936 184.057C72.069 184.037 71.7517 183.948 71.4613 183.796L69.5952 182.666C69.2844 182.454 69.0256 182.168 68.8401 181.832C68.6545 181.496 68.5472 181.119 68.5271 180.732V96.3013C68.5395 95.9136 68.6456 95.5355 68.8353 95.2021L72.8377 97.6168C73.4878 98.0097 74.1591 98.4114 74.8431 98.8308C74.6508 99.1617 74.5432 99.5387 74.5306 99.9256V178.904C74.5306 179.615 75.0119 179.902 75.5988 179.549L73.5976 183.796Z" fill="#263238"/>
<path d="M156.592 47.7824C156.588 47.736 156.579 47.6902 156.566 47.6456C156.44 47.1777 156.026 47.0232 155.536 47.3189L73.5975 96.7916C73.284 96.9998 73.023 97.2837 72.8364 97.6194C72.6497 97.9552 72.543 98.3328 72.5251 98.7207V183.151C72.5251 183.756 72.8756 184.056 73.3442 183.911L73.4202 183.88C73.4806 183.858 73.5386 183.83 73.5933 183.796L155.532 134.354C155.842 134.142 156.1 133.856 156.286 133.52C156.471 133.184 156.579 132.808 156.6 132.421V47.9634C156.621 47.9016 156.596 47.8398 156.592 47.7824ZM154.012 130.915C153.992 131.303 153.884 131.68 153.698 132.017C153.511 132.353 153.251 132.638 152.94 132.849L75.5987 179.549C75.0118 179.902 74.5305 179.615 74.5305 178.905V99.9258C74.5431 99.5389 74.6507 99.1619 74.843 98.8311C75.018 98.4865 75.2792 98.1982 75.5987 97.9967L152.94 51.2963C153.535 50.9344 154.012 51.2213 154.012 51.9364V130.915Z" fill="#37474F"/>
<path d="M142.296 72.9268L144.319 69.3334L140.857 67.2233C139.839 66.6141 138.437 66.7024 136.892 67.6383C133.793 69.51 131.277 74.0613 131.277 77.7915C131.277 79.6367 131.893 80.939 132.881 81.5614H132.911H132.932L136.267 83.5876L138.201 80.162C140.256 78.2576 141.689 75.7271 142.296 72.9268Z" fill="#208A51"/>
<path opacity="0.15" d="M142.296 72.9268L144.319 69.3334L140.857 67.2233C139.839 66.6141 138.437 66.7024 136.892 67.6383C133.793 69.51 131.277 74.0613 131.277 77.7915C131.277 79.6367 131.893 80.939 132.881 81.5614H132.911H132.932L136.267 83.5876L138.201 80.162C140.256 78.2576 141.689 75.7271 142.296 72.9268Z" fill="black"/>
<path d="M144.252 78.8719C146.444 74.9025 146.444 70.6125 144.253 69.2898C142.062 67.9672 138.509 70.1128 136.318 74.0823C134.126 78.0517 134.125 82.3417 136.316 83.6644C138.507 84.987 142.06 82.8414 144.252 78.8719Z" fill="#208A51"/>
<path d="M160.324 85.777L159.948 87.0174L156.621 79.3672V89.4012C156.621 89.4012 159.011 94.4116 160.184 94.4116C160.45 94.4116 161.565 95.034 164.06 87.9268L160.324 85.777Z" fill="#FFA8A7"/>
<path d="M164.744 87.7152C163.038 87.7864 161.356 87.2801 159.948 86.2717C160.547 83.5755 161.309 80.9216 162.228 78.3257C163.743 74.26 165.458 73.6376 168.138 73.6861L164.744 87.7152Z" fill="#208A51"/>
<path opacity="0.1" d="M164.904 87.6931C162.266 87.9139 159.948 86.2717 159.948 86.2717C160.547 83.5755 161.309 80.9216 162.228 78.3257C163.743 74.26 165.458 73.6376 168.138 73.6861L164.904 87.6931Z" fill="black"/>
<path d="M180.2 154.62H176.498V161.251H180.2V154.62Z" fill="#FFA8A7"/>
<path d="M167.362 154.267L163.659 154.4L163.473 147.385L167.362 147.253V154.267Z" fill="#FFA8A7"/>
<path d="M180.192 103.082C180.192 106.781 179.567 128.297 179.567 128.297C179.656 129.361 180.635 131.255 180.711 135.087C180.821 140.649 180.361 157.94 180.361 157.94C179.721 158.268 179.02 158.445 178.307 158.459C177.595 158.474 176.888 158.325 176.236 158.024C176.236 158.024 172.968 135.307 172.306 129.803C171.727 125 170.743 111.951 170.743 111.951L168.734 127.631C169.163 129.651 169.318 131.724 169.194 133.789C169.021 136.332 167.594 152.096 167.594 152.096C166.948 152.476 166.231 152.703 165.492 152.762C164.753 152.821 164.01 152.709 163.317 152.435C163.317 152.435 161.443 129.966 161.4 127.631C161.354 124.982 162.633 97.7891 162.633 97.7891L180.192 103.082Z" fill="#37474F"/>
<path d="M178.668 76.2946C178.668 76.2946 180.086 77.6454 180.086 81.1505V88.7389L180.192 103.068C174.877 105.999 168.117 106.198 162.46 101.863C162.46 101.863 162.777 83.4195 162.777 80.4C162.777 80.2764 162.777 80.1484 162.777 80.0204C162.967 75.6942 167.024 72.7145 171.03 73.7916L174.408 74.6966L177.785 75.8576L178.668 76.2946Z" fill="#208A51"/>
<path d="M168.248 67.0773C171.06 67.0773 173.34 64.6938 173.34 61.7535C173.34 58.8132 171.06 56.4297 168.248 56.4297C165.436 56.4297 163.157 58.8132 163.157 61.7535C163.157 64.6938 165.436 67.0773 168.248 67.0773Z" fill="#263238"/>
<path d="M177.047 65.541C177.047 65.541 176.223 69.5935 175.894 70.2601C175.671 70.6691 175.307 70.9738 174.877 71.112L174.936 68.2603L177.047 65.541Z" fill="#263238"/>
<path d="M176.012 59.7321C176.301 59.697 176.594 59.7312 176.868 59.8322C177.143 59.9332 177.391 60.0982 177.595 60.3149C178.271 61.0432 177.895 63.3123 177.047 65.5416L175.493 65.727L176.012 59.7321Z" fill="#263238"/>
<path d="M175.029 65.7271C175.341 65.9214 175.784 65.2857 176.169 64.8751C176.553 64.4646 177.807 63.8819 178.432 65.2592C179.056 66.6365 177.883 68.5215 176.895 68.8481C175.206 69.4044 174.936 68.261 174.936 68.261L174.809 74.8827C172.698 77.7212 166.821 77.4828 169.27 74.5163V72.5651C168.511 72.6908 167.741 72.7322 166.973 72.6887C165.707 72.4856 164.934 71.4527 164.554 70.04C163.946 67.7622 163.71 65.9258 164.229 61.4495C164.799 56.5451 170.254 56.4965 173.201 58.4345C176.147 60.3724 175.029 65.7271 175.029 65.7271Z" fill="#FFA8A7"/>
<path d="M175.029 66.2743C175.185 66.2743 175.78 65.2457 176.168 64.8749C176.705 64.3628 176.012 59.7321 176.012 59.7321C176.151 59.3313 176.176 58.8971 176.084 58.4819C175.991 58.0667 175.786 57.6883 175.493 57.3924C174.758 56.5448 173.526 56.4521 171.427 56.1034C170.325 55.9224 168.654 55.6001 167.552 55.3882C166.239 55.1322 165.149 54.8629 164.221 55.7061C163.856 56.0352 163.599 56.4745 163.484 56.9632C163.369 57.452 163.402 57.966 163.579 58.4342C163.67 58.6491 163.796 58.8462 163.95 59.0169C164.201 59.3286 164.528 59.5636 164.896 59.6967C164.896 59.6967 165.47 60.2309 167.463 60.4825C169.304 60.627 171.154 60.5915 172.989 60.3766C173.564 60.2927 173.69 60.8798 174.003 62.4778C174.273 63.8816 174.501 66.2654 175.029 66.2743Z" fill="#263238"/>
<path d="M176.008 60.0938L177.895 59.0343C177.835 58.9018 177.749 58.7835 177.644 58.6866C177.539 58.5896 177.415 58.516 177.282 58.4702C177.149 58.4244 177.008 58.4074 176.868 58.4201C176.728 58.4328 176.592 58.4751 176.468 58.5443C176.216 58.691 176.027 58.934 175.941 59.2226C175.855 59.5112 175.879 59.8232 176.008 60.0938Z" fill="#263238"/>
<path d="M169.287 72.5607C169.287 72.5607 172.078 71.9692 173.057 71.4262C173.631 71.1133 174.102 70.6273 174.408 70.0312C174.259 70.6279 173.998 71.1876 173.64 71.6778C172.926 72.6314 169.287 73.3377 169.287 73.3377V72.5607Z" fill="#F28F8F"/>
<path d="M169.946 64.9989C169.95 65.1141 169.986 65.2256 170.051 65.3193C170.115 65.4129 170.204 65.4847 170.307 65.5257C170.411 65.5666 170.523 65.5749 170.631 65.5494C170.738 65.524 170.836 65.466 170.912 65.3826C170.989 65.2992 171.04 65.1942 171.059 65.0807C171.079 64.9672 171.066 64.8502 171.022 64.7442C170.979 64.6383 170.906 64.5482 170.814 64.4851C170.721 64.4221 170.613 64.3889 170.503 64.3897C170.428 64.3908 170.354 64.4075 170.285 64.4389C170.216 64.4702 170.154 64.5156 170.102 64.5723C170.05 64.6289 170.01 64.6959 169.983 64.7691C169.956 64.8423 169.943 64.9204 169.946 64.9989Z" fill="#263238"/>
<path d="M170.553 62.7873L171.752 63.4804C171.838 63.3086 171.857 63.1089 171.805 62.9229C171.753 62.737 171.634 62.5792 171.474 62.4827C171.395 62.4372 171.308 62.4091 171.218 62.3998C171.128 62.3906 171.037 62.4005 170.951 62.429C170.865 62.4575 170.786 62.5039 170.717 62.5655C170.649 62.6271 170.593 62.7025 170.553 62.7873Z" fill="#263238"/>
<path d="M169.528 69.042L168.261 69.5452C168.318 69.7202 168.438 69.8647 168.596 69.9474C168.755 70.03 168.937 70.0441 169.105 69.9867C169.279 69.9171 169.42 69.7798 169.499 69.6035C169.578 69.4273 169.588 69.226 169.528 69.042Z" fill="#F28F8F"/>
<path d="M164.951 63.2725L166.044 62.3897C165.993 62.3127 165.927 62.2474 165.851 62.1979C165.774 62.1484 165.689 62.1156 165.6 62.1015C165.511 62.0875 165.421 62.0925 165.334 62.1162C165.247 62.1399 165.166 62.1819 165.095 62.2396C164.947 62.3586 164.85 62.5329 164.823 62.7257C164.796 62.9184 164.842 63.1145 164.951 63.2725Z" fill="#263238"/>
<path d="M165.289 64.8308C165.287 64.9089 165.3 64.9865 165.327 65.0592C165.354 65.1319 165.395 65.1983 165.447 65.2545C165.499 65.3108 165.561 65.3557 165.629 65.3868C165.698 65.4179 165.771 65.4344 165.846 65.4356C165.962 65.4409 166.078 65.4096 166.177 65.3457C166.276 65.2819 166.355 65.1884 166.402 65.0774C166.45 64.9664 166.465 64.843 166.445 64.723C166.426 64.603 166.372 64.492 166.291 64.4043C166.21 64.3166 166.106 64.2562 165.992 64.231C165.878 64.2058 165.76 64.2168 165.652 64.2627C165.544 64.3086 165.452 64.3873 165.387 64.4886C165.322 64.5898 165.288 64.709 165.289 64.8308Z" fill="#263238"/>
<path d="M168.139 64.2744L167.957 67.7971L166.197 67.1703L168.139 64.2744Z" fill="#F28F8F"/>
<path d="M176.498 159.362V158.788C176.143 158.951 175.32 162.236 173.851 163.644C172.681 164.761 171.09 166.045 170.684 167.29C170.279 168.535 172.905 169.294 173.994 169.091C175.261 168.857 177.46 167.926 178.013 167.061C178.566 166.196 178.824 164.915 179.28 164.28C179.736 163.644 180.762 162.955 181.007 162.205C181.138 161.799 180.981 160.916 180.796 160.17C180.61 159.424 180.437 158.731 180.213 158.797V159.238C179.684 159.67 179.03 159.9 178.36 159.892C177.811 159.887 176.494 159.773 176.498 159.362Z" fill="#263238"/>
<path d="M163.617 153.208C163.427 153.208 163.271 153.499 162.844 153.981C162.21 154.65 161.474 155.203 160.666 155.618C159.277 156.342 156.583 157.459 155.359 158.038C154.599 158.395 154.633 159.362 155.422 159.905C156.212 160.448 158.111 160.85 160.4 160.315C161.645 160.024 163.262 158.823 164.288 158.885C165.314 158.947 167.243 158.938 167.991 158.391C168.738 157.843 168.447 156.678 168.231 155.68C167.999 154.585 167.708 152.881 167.362 152.956V153.332C166.914 154.038 164.617 154.325 163.638 153.804L163.617 153.208Z" fill="#263238"/>
<path d="M170.743 111.95C168.828 111.327 167.067 110.273 165.584 108.86C165.584 108.86 166.581 110.807 169.54 112.621L168.907 126.306L170.743 111.95Z" fill="#263238"/>
<path d="M173.576 99.9872C175.265 99.0734 175.852 98.7512 176.616 96.4556C182.105 79.928 180.293 77.7649 177.558 76.7363L175.493 81.1199L171.82 94.8311C169.384 97.003 164.322 99.5325 161.544 100.168C160.894 100.239 160.236 100.167 159.614 99.9563C158.411 99.5149 157.799 99.5943 156.592 99.2588V100.729C155.5 100.685 154.413 100.555 153.341 100.34C150.841 99.8548 149.963 100.724 151.998 103.347C153.159 104.834 155.435 105.408 158.753 105.037C160.466 104.75 162.148 104.292 163.777 103.669C168.058 102.159 171.351 101.188 173.576 99.9872Z" fill="#FFA8A7"/>
<path d="M177.76 75.8713C179.656 76.4099 180.944 78.136 180.716 81.3011C180.521 84.144 179.415 88.1965 178.82 91.0791C178.82 91.0791 175.307 91.1277 172.985 89.2074C173.564 86.6558 174.125 83.9895 174.556 81.7028C175.388 78.6215 176.646 75.7786 177.76 75.8713Z" fill="#208A51"/>
<g opacity="0.05">
<path d="M177.76 75.8713C179.656 76.4099 180.944 78.136 180.716 81.3011C180.521 84.144 179.415 88.1965 178.82 91.0791C178.82 91.0791 175.307 91.1277 172.985 89.2074C173.564 86.6558 174.125 83.9895 174.556 81.7028C175.388 78.6215 176.646 75.7786 177.76 75.8713Z" fill="black"/>
</g>
<path d="M68.2485 33.4706L63.1823 36.521C63.2087 36.288 63.2228 36.0537 63.2245 35.8191V34.2917C63.2245 31.5724 61.3964 30.4688 59.1419 31.8284C58.173 32.4518 57.3436 33.2859 56.7101 34.274C56.3428 30.8528 53.7548 29.577 50.6559 31.462C47.2784 33.4971 44.551 38.4457 44.551 42.4981V44.7892C44.5291 45.7015 44.7052 46.607 45.0661 47.4379L40.8738 49.9674C40.215 50.417 39.6668 51.0226 39.2736 51.7351C38.8805 52.4476 38.6534 53.247 38.6108 54.0684C38.6108 55.5781 39.6241 56.1917 40.8738 55.4369L68.2274 38.9224C68.8875 38.4738 69.4369 37.8685 69.8308 37.1559C70.2248 36.4432 70.4522 35.6434 70.4946 34.8214C70.5157 33.3293 69.5024 32.7157 68.2485 33.4706Z" fill="#F5F5F5"/>
</svg>
