<svg width="106" height="21" viewBox="0 0 106 21" fill="none" xmlns="http://www.w3.org/2000/svg">
<path d="M2 2C7.1018 2 7.1018 19 12.2036 19C17.3054 19 17.3054 2 22.4072 2C27.509 2 27.509 19 32.5988 19C37.7008 19 37.7008 2 42.7905 2C47.8924 2 47.8924 19 52.982 19C58.084 19 58.084 2 63.1855 2C68.2874 2 68.2874 19 73.3893 19C78.4908 19 78.4908 2 83.5927 2C88.6946 2 88.6946 19 93.7966 19C98.8981 19 98.8981 2 104 2" stroke="#A6A6A6" stroke-width="3" stroke-miterlimit="10" stroke-linecap="round"/>
</svg>
