<svg width="26" height="92" viewBox="0 0 26 92" fill="none" xmlns="http://www.w3.org/2000/svg">
<path d="M16.0987 2C8.31215 2 2 6.40468 2 11.8381C2 17.2716 8.31215 21.6763 16.0987 21.6763C20.4624 21.6763 24 19.8117 24 17.5117C24 15.2116 20.4624 13.347 16.0987 13.347C8.31215 13.347 2 17.7517 2 23.1852C2 28.6186 8.31215 33.0235 16.0987 33.0235C20.4624 33.0235 24 31.1588 24 28.8587C24 26.5587 20.4624 24.6941 16.0987 24.6941C8.31215 24.6941 2 29.1258 2 34.5926C2 40.0593 8.31215 44.4912 16.0987 44.4912C20.4624 44.4912 24 42.6265 24 40.3264C24 38.0263 20.4624 36.162 16.0987 36.162C8.31215 36.162 2 40.5665 2 46C2 51.4335 8.31215 55.838 16.0987 55.838C20.4624 55.838 24 53.9737 24 51.6736C24 49.3735 20.4624 47.5088 16.0987 47.5088C8.31215 47.5088 2 51.9137 2 57.3471C2 62.7806 8.31215 67.1851 16.0987 67.1851C20.4624 67.1851 24 65.3205 24 63.0207C24 60.7206 20.4624 58.856 16.0987 58.856C8.31215 58.856 2 63.2608 2 68.694C2 74.1274 8.31215 78.5323 16.0987 78.5323C20.4624 78.5323 24 76.6677 24 74.3675C24 72.0677 20.4624 70.2031 16.0987 70.2031C8.31215 70.2031 2 74.6346 2 80.1014C2 85.5681 8.31215 90 16.0987 90" stroke="#A6A6A6" stroke-width="3" stroke-linecap="round"/>
</svg>
